<svg id="Layer_1" data-name="Layer 1" xmlns="http://www.w3.org/2000/svg" viewBox="0 0 61.8431 50">
  <g>
    <g id="Group_6592" data-name="Group 6592">
      <g id="Group_6166" data-name="Group 6166">
        <path id="Path_14448" data-name="Path 14448" d="M974.63878,413.53037l-15.64648.00782c4.31934-6.07618,10.52344-9.50977,18.56055-10.729a35.575,35.575,0,0,1-2.915,10.72119m-18.70508.01709H943.31164c-.28223-8.12109,1.96875-16.36181,6.31445-21.3208,4.415,4.83057,6.69922,13.03662,6.30664,21.31934Zm-15.72266-.0249-15.34863.00781a35.08233,35.08233,0,0,1-2.71875-10.7539c7.91113,1.40869,14.01172,4.65185,18.06836,10.74463Zm31.45313,5.98193-43.95606.01709a19.17725,19.17725,0,0,1-1.67773-2.87988h47.31348a15.70234,15.70234,0,0,1-1.67871,2.86231Zm-5.07031,5.53907-34.01075-.01709a13.1921,13.1921,0,0,1-2.81152-2.57422h39.67774a22.96425,22.96425,0,0,1-2.8545,2.58984Zm-14.376,2.36914-5.34375.00879a18.325,18.325,0,0,0,2.7998,4.125,19.595,19.595,0,0,0,2.54493-4.13428Zm1.11621.01709-.5791,3.562a31.80066,31.80066,0,0,0,10.28613-3.562Zm-7.41406-.00782h-9.72363a31.141,31.141,0,0,0,10.17578,3.792Z" transform="translate(-919.70747 -386.88657)" fill="#c6c0b9" fill-rule="evenodd"/>
        <path id="Path_14449" data-name="Path 14449" d="M976.11144,401.25791a2.51,2.51,0,1,1,2.52344-2.51514,2.50964,2.50964,0,0,1-2.52344,2.51514m0-5.54a.11164.11164,0,0,0-.04883-.00781,3.009,3.009,0,0,0-.10449,6.01709c.03516.00049.06934.00049.10449,0h.04883a3.0044,3.0044,0,0,0,0-6.00879Z" transform="translate(-919.70747 -386.88657)" fill="#c6c0b9" fill-rule="evenodd"/>
        <path id="Path_14450" data-name="Path 14450" d="M976.11339,398.48838h-.63964v-.81006h.63964a2.93,2.93,0,0,1,.3584.00879.371.371,0,0,1,.25489.12793.31473.31473,0,0,1,.085.25488.53042.53042,0,0,1-.05957.25586.4588.4588,0,0,1-.2002.12793,2.91507,2.91507,0,0,1-.44238.03418m.87695.73291a2.05331,2.05331,0,0,0-.34863-.28076,1.01514,1.01514,0,0,0,.65527-.31494.84081.84081,0,0,0,.21485-.58789,1.0979,1.0979,0,0,0-.1543-.52881.75286.75286,0,0,0-.3916-.2998,2.07143,2.07143,0,0,0-.7666-.1001h-1.36426v3.28076h.63867v-1.373h.13672a1.16292,1.16292,0,0,1,.34082.03418.62423.62423,0,0,1,.16211.11084c.00781.00879.02539.01709.0332.02588.05274.07715.1709.229.35059.48486l.46875.71582h.792l-.39258-.63085a3.234,3.234,0,0,0-.37109-.53565Z" transform="translate(-919.70747 -386.88657)" fill="#c6c0b9" fill-rule="evenodd"/>
      </g>
    </g>
    <rect width="61.8431" height="50" fill="none"/>
  </g>
</svg>
