<svg xmlns="http://www.w3.org/2000/svg" width="56.96" height="39.32" viewBox="0 0 56.96 39.32">
  <g id="Group_6592" data-name="Group 6592" transform="translate(0)">
    <g id="Group_6166" data-name="Group 6166" transform="translate(0 0)">
      <path id="Path_14448" data-name="Path 14448" d="M12929.685,5828.845l-15.646.008c4.319-6.076,10.523-9.51,18.561-10.729a35.588,35.588,0,0,1-2.915,10.721m-18.705.017h-12.621c-.282-8.121,1.969-16.362,6.314-21.321C12909.087,5812.372,12911.371,5820.578,12910.979,5828.861Zm-15.723-.025-15.349.008a35.088,35.088,0,0,1-2.719-10.754C12885.1,5819.5,12891.2,5822.743,12895.257,5828.836Zm31.453,5.982-43.956.017a19.126,19.126,0,0,1-1.678-2.88h47.313A15.682,15.682,0,0,1,12926.71,5834.819Zm-5.07,5.539-34.011-.017a13.179,13.179,0,0,1-2.812-2.574h39.678A23.01,23.01,0,0,1,12921.64,5840.357Zm-14.376,2.369-5.344.009a18.317,18.317,0,0,0,2.8,4.125A19.6,19.6,0,0,0,12907.264,5842.727Zm1.116.017-.579,3.562a31.8,31.8,0,0,0,10.286-3.562Zm-7.414-.008h-9.724a31.143,31.143,0,0,0,10.176,3.792Z" transform="translate(-12877.189 -5807.54)" fill="#c6c0b9" fill-rule="evenodd"/>
      <path id="Path_14449" data-name="Path 14449" d="M13061.369,5825.489a2.51,2.51,0,1,1,2.523-2.515,2.531,2.531,0,0,1-2.523,2.515m0-5.54a.111.111,0,0,0-.049-.008,3.009,3.009,0,1,0,0,6.017h.049a3,3,0,0,0,0-6.009Z" transform="translate(-13007.401 -5816.456)" fill="#c6c0b9" fill-rule="evenodd"/>
      <path id="Path_14450" data-name="Path 14450" d="M13065.948,5826.294h-.64v-.81h.64a3,3,0,0,1,.358.009.371.371,0,0,1,.255.128.315.315,0,0,1,.085.255.525.525,0,0,1-.06.256.459.459,0,0,1-.2.128,2.917,2.917,0,0,1-.442.034m.877.733a2.039,2.039,0,0,0-.349-.281,1.017,1.017,0,0,0,.655-.315.843.843,0,0,0,.215-.588,1.1,1.1,0,0,0-.154-.529.752.752,0,0,0-.392-.3,2.068,2.068,0,0,0-.767-.1h-1.364v3.281h.639v-1.373h.137a1.162,1.162,0,0,1,.341.034.632.632,0,0,1,.162.111c.008.009.025.017.033.026.053.077.171.229.351.485l.469.716h.792l-.393-.631A3.261,3.261,0,0,0,13066.825,5827.027Z" transform="translate(-13011.979 -5820.031)" fill="#c6c0b9" fill-rule="evenodd"/>
    </g>
  </g>
</svg>
