<svg xmlns="http://www.w3.org/2000/svg" width="27.94" height="25.226" data-name="Group 7061" viewBox="0 0 27.94 25.226">
  <defs>
    <clipPath id="a">
      <path fill="none" d="M0 0h27.94v25.226H0z" data-name="Rectangle 2341"/>
    </clipPath>
  </defs>
  <g clip-path="url(#a)" data-name="Group 7060">
    <path fill="#040506" d="M4.922 25.226A4.928 4.928 0 0 1 0 20.3V4.922A4.928 4.928 0 0 1 4.922 0h18.1a4.928 4.928 0 0 1 4.918 4.922V20.3a4.928 4.928 0 0 1-4.922 4.922ZM2.607 20.3a2.318 2.318 0 0 0 2.315 2.32h18.1a2.318 2.318 0 0 0 2.311-2.32V9.2l-7.323 5.232a6.948 6.948 0 0 1-8.079 0L2.607 9.2ZM4.922 2.6a2.318 2.318 0 0 0-2.315 2.322V6l8.839 6.313a4.4 4.4 0 0 0 5.045 0L25.333 6V4.922a2.318 2.318 0 0 0-2.315-2.315Z" data-name="Path 17559"/>
  </g>
</svg>
