<svg xmlns="http://www.w3.org/2000/svg" data-name="Layer 1" viewBox="0 0 109.276 50">
  <path d="M53.696 25.066a3.778 3.778 0 0 1-1.314-2.558 4.146 4.146 0 0 1 2.8-4.555 7.106 7.106 0 0 1 5.243.148 3.873 3.873 0 0 1 2.42 3.685c.012.342-.088.507-.459.494a29.687 29.687 0 0 0-1.688 0c-.272 0-.416-.11-.4-.381a2 2 0 0 0-2.216-2.057 8.187 8.187 0 0 0-1.554.055 2 2 0 0 0-1.647 2.208 1.831 1.831 0 0 0 1.884 1.777l.083-.004a15.76 15.76 0 0 1 2.628.166 4.074 4.074 0 0 1 3.11 2.224.555.555 0 0 0 .392.3 15.5 15.5 0 0 0 2.979.51c.366.03.468-.11.467-.464-.013-2.741-.007-5.483-.006-8.224 0-.57 0-.571.579-.573.476 0 .954.022 1.428-.007.414-.025.556.123.552.54-.018 1.659.006 3.318-.016 4.977-.006.433.117.576.56.568 1.472-.025 2.944-.022 4.415 0 .409.006.55-.108.545-.533-.023-1.616-.01-3.232-.009-4.848 0-.7 0-.7.676-.7h1.125c.743 0 .744 0 .744.724v5.756c0 .175.074.27.27.234a6.044 6.044 0 0 1 2.89.357c.373.114.48.02.476-.364-.006-.894-.018-1.787.034-2.682a4.03 4.03 0 0 1 2.984-3.91 7.06 7.06 0 0 1 5.39.34 3.847 3.847 0 0 1 2.175 3.31 15.746 15.746 0 0 1 .048 1.643c0 .272.073.372.355.273q1.488-.524 2.986-1.026c.274-.091.276-.287.275-.513 0-1.2.016-2.4-.01-3.592-.01-.446.146-.565.574-.56 1.7.02 3.4-.008 5.107.016a4.474 4.474 0 0 1 3.471 1.583.632.632 0 0 0 .561.24c.75-.032 1.5-.052 2.248-.074a3.132 3.132 0 0 1 .433.009c.438.049.706.323.684.689a.653.653 0 0 1-.69.613l-.02-.001c-.633.019-1.27.026-1.9.012-.365-.008-.5.126-.438.489a4.069 4.069 0 0 1-3.1 4.558 8.628 8.628 0 0 1-1.888.2c-.576.02-1.152 0-1.73 0-.742 0-.743 0-.743.72v4.718c0 .637 0 .637-.657.639-.461 0-.924-.018-1.385.005-.4.02-.524-.131-.522-.527.015-2.423.007-4.847.007-7.271 0-.115-.008-.231 0-.346.02-.281-.11-.314-.343-.233-.98.34-1.96.684-2.946 1.009-.283.093-.321.279-.326.53-.016.952.023 1.9-.03 2.855a4.161 4.161 0 0 1-3.637 4.017 7.139 7.139 0 0 1-4.65-.463 3.886 3.886 0 0 1-2.27-3.517 36.737 36.737 0 0 1-.05-1.556.43.43 0 0 0-.368-.484l-.008-.001a19.402 19.402 0 0 0-1.891-.453c-.1-.014-.2-.032-.3-.036-.944-.036-1.068.083-1.068 1.016v4.89c0 .54-.024.563-.562.565-.5 0-1.01-.013-1.514 0-.357.013-.477-.131-.474-.484.013-1.486.005-2.972 0-4.458 0-.523 0-.524-.5-.383a38.92 38.92 0 0 1-4.424 1.01c-.47.076-.6.268-.588.732.036 1.023 0 2.048.016 3.073.006.366-.11.528-.5.512a17.579 17.579 0 0 0-1.557 0c-.406.02-.521-.146-.511-.534.022-.952-.007-1.9.014-2.856.008-.366-.085-.516-.48-.5a9.988 9.988 0 0 1-2.648-.361c-.27-.065-.366-.012-.371.273a4.022 4.022 0 0 1-3.207 3.95 7.86 7.86 0 0 1-4.848-.22 3.983 3.983 0 0 1-2.624-3.6c-.047-.534.017-.6.555-.6h1.6c.241 0 .36.079.387.344a1.985 1.985 0 0 0 1.926 2.043h.011a6.034 6.034 0 0 0 2.11-.051 2.056 2.056 0 0 0 1.459-2.733.475.475 0 0 0-.4-.346 20.359 20.359 0 0 0-6.683-.634 53.534 53.534 0 0 0-6.491.989c-.6.117-.6.118-.6.749 0 1.2-.01 2.4.005 3.592 0 .379-.134.515-.506.5a22.466 22.466 0 0 0-1.6 0c-.338.009-.456-.132-.452-.464.013-1.053-.006-2.107.01-3.16 0-.342-.078-.435-.42-.313a23.69 23.69 0 0 0-2.313.968.631.631 0 0 1-.863-.229l-.023-.044a.656.656 0 0 1 .315-.873l.007-.003c.074-.044.153-.081.23-.12a15.318 15.318 0 0 1 2.613-1.027.526.526 0 0 0 .458-.586l-.001-.014q-.025-2.921 0-5.843c0-.382-.118-.5-.5-.491-1.154.021-2.31 0-3.462.013-.357 0-.495-.117-.475-.475.022-.432.02-.866 0-1.3-.017-.336.108-.462.45-.455.82.016 1.644 0 2.466 0 2.61 0 5.223.008 7.834-.008.421 0 .611.1.571.554a8.354 8.354 0 0 0 0 1.21c.021.369-.136.47-.482.466-1.125-.015-2.25.008-3.376-.012-.378-.007-.5.11-.5.492q.026 2.618 0 5.237c0 .337.085.424.422.356a55.835 55.835 0 0 1 6.23-.988c.286-.012.558-.023.947-.046Zm29.554-1.781c0 .49.021.98-.006 1.47-.024.42.14.542.55.54a16.965 16.965 0 0 0 4.543-.766.435.435 0 0 0 .366-.494c-.012-.706.007-1.413-.014-2.12a1.932 1.932 0 0 0-1.568-1.958 4.626 4.626 0 0 0-2.1-.032 1.979 1.979 0 0 0-1.767 2.15c-.01.402 0 .806 0 1.21Zm5.44 3.909h.007c0-.331-.015-.663 0-.993s-.088-.422-.426-.323a16.951 16.951 0 0 1-4.631.726c-.3 0-.41.126-.4.415.015.4-.008.807.019 1.209a1.847 1.847 0 0 0 1.273 1.733 4.184 4.184 0 0 0 2.713.065 1.9 1.9 0 0 0 1.437-1.882c.018-.316.007-.634.007-.95Zm10.525-3.308c.446 0 .893.014 1.34 0a1.9 1.9 0 0 0 1.83-1.967 2.008 2.008 0 0 0-.026-.253c-.028-.19-.08-.3-.3-.244a53.04 53.04 0 0 0-4.363 1.377c-.426.156-.208.576-.211.878 0 .277.26.21.434.214.435 0 .864-.006 1.296-.006Zm2.02-3.612a1.469 1.469 0 0 0-.853-.238c-.633 0-1.269-.011-1.9 0-1.173.023-1-.237-1.015 1.076v.086c0 .189.084.26.276.2 1.135-.368 2.271-.732 3.492-1.125Zm-29.86 5.972-.018-.094h-2.07a.274.274 0 0 0-.312.317c.005.266.189.21.336.182.69-.131 1.377-.27 2.064-.405Zm-47.663-1.225v2.727a4.164 4.164 0 0 1-3.617 4.506 7.524 7.524 0 0 1-3.89-.137 4.078 4.078 0 0 1-3.085-4.066c-.035-2.02-.052-4.04 0-6.058.072-2.66 1.768-4 4.245-4.341a7.409 7.409 0 0 1 3.538.34 4.043 4.043 0 0 1 2.8 3.957c.014 1.024.01 2.052.01 3.072Zm-2.556.007c0-1.01.009-2.02 0-3.03a1.994 1.994 0 0 0-1.672-2.064 5.48 5.48 0 0 0-1.636-.075 2.108 2.108 0 0 0-2.173 2.04 2.11 2.11 0 0 0 .002.179c-.03 1.947-.027 3.895 0 5.84a2.057 2.057 0 0 0 1.678 2.17 4.817 4.817 0 0 0 1.633.093 2.134 2.134 0 0 0 2.173-2.427q-.006-1.363-.007-2.726Zm16.042.25c-.045.93.075 2.115-.063 3.3a3.79 3.79 0 0 1-2.242 3.219 6.97 6.97 0 0 1-5.99.01 3.792 3.792 0 0 1-2.3-3.628c-.034-2-.011-4.01-.009-6.015a4.131 4.131 0 0 1 3.43-4.354 7.676 7.676 0 0 1 3.723 0 4.187 4.187 0 0 1 3.444 4.32c.022.965.007 1.93.007 3.147Zm-8.046-.3c0 1.038-.01 2.077 0 3.115a1.92 1.92 0 0 0 1.444 1.928 4.228 4.228 0 0 0 2.051.119c1.275-.225 1.877-.761 1.945-2.042a52.009 52.009 0 0 0-.013-6.267 1.883 1.883 0 0 0-1.73-1.911A4.547 4.547 0 0 0 31 19.905a2.029 2.029 0 0 0-1.861 2.183l.007.079c.003.934.008 1.872.008 2.81ZM1.319 31.63c0 .59 0 .592.608.595h1.385c.534 0 .557-.025.557-.567v-4.89c0-.617 0-.618.63-.62 1.73 0 3.461-.006 5.19 0 .383 0 .558-.108.525-.52-.032-.386-.006-.777-.007-1.167 0-.574 0-.578-.58-.58H4.479c-.609 0-.61 0-.61-.627v-2.6c0-.626 0-.627.608-.627 1.817 0 3.634-.01 5.45.008.406 0 .542-.14.521-.526a9.692 9.692 0 0 1 0-1.167c.028-.421-.143-.541-.553-.54q-4.023.023-8.046 0c-.414 0-.545.122-.542.54.017 2.22.009 4.44.008 6.662s.004 4.419.005 6.625Z" data-name="Path 14925"/>
  <path fill="none" d="M0 0h109.276v50H0z"/>
</svg>
