<svg xmlns="http://www.w3.org/2000/svg" width="106.664" height="14.951" viewBox="0 0 106.664 14.951">
  <path id="Path_14925" data-name="Path 14925" d="M-4345.958-1687.234a3.778,3.778,0,0,1-1.314-2.559,4.146,4.146,0,0,1,2.8-4.555,7.106,7.106,0,0,1,5.243.148,3.873,3.873,0,0,1,2.419,3.685c.013.342-.087.507-.458.494-.562-.02-1.125-.012-1.688,0-.272,0-.416-.109-.4-.381a2,2,0,0,0-2.216-2.057,8.184,8.184,0,0,0-1.554.055,2,2,0,0,0-1.647,2.208,1.831,1.831,0,0,0,1.967,1.773,15.77,15.77,0,0,1,2.628.166,4.074,4.074,0,0,1,3.111,2.224.555.555,0,0,0,.391.3,15.5,15.5,0,0,0,2.979.51c.366.03.468-.109.467-.464-.012-2.741-.007-5.483-.006-8.224,0-.569,0-.571.579-.573.476,0,.954.022,1.428-.007.414-.025.556.123.552.54-.018,1.659.006,3.318-.016,4.977-.006.433.117.576.561.568,1.471-.025,2.943-.022,4.414,0,.409.006.551-.108.545-.533-.023-1.616-.01-3.232-.009-4.848,0-.7,0-.7.676-.7h1.125c.743,0,.744,0,.744.724q0,2.705,0,5.41,0,.173,0,.346c0,.175.074.27.271.234a6.043,6.043,0,0,1,2.889.357c.373.114.479.02.476-.364-.006-.894-.018-1.787.034-2.682a4.03,4.03,0,0,1,2.984-3.909,7.06,7.06,0,0,1,5.39.339,3.847,3.847,0,0,1,2.175,3.311,15.764,15.764,0,0,1,.048,1.642c0,.272.073.372.355.273q1.489-.524,2.986-1.026c.274-.091.276-.287.275-.513,0-1.2.016-2.4-.01-3.592-.01-.446.146-.565.574-.56,1.7.021,3.4-.008,5.107.016a4.475,4.475,0,0,1,3.471,1.583.632.632,0,0,0,.561.241c.75-.033,1.5-.053,2.248-.075a3.128,3.128,0,0,1,.432.009c.438.049.706.323.684.689a.653.653,0,0,1-.709.612c-.634.019-1.27.026-1.9.012-.365-.008-.5.126-.439.489a4.069,4.069,0,0,1-3.1,4.558,8.623,8.623,0,0,1-1.887.2c-.576.021-1.153,0-1.731,0-.741,0-.742,0-.742.72q0,2.359,0,4.718c0,.637,0,.637-.657.639-.461,0-.924-.018-1.385.005-.4.02-.524-.131-.522-.527.015-2.423.007-4.847.007-7.271,0-.115-.008-.231,0-.346.02-.281-.11-.314-.343-.233-.98.341-1.96.684-2.946,1.009-.283.093-.322.279-.326.53-.016.952.023,1.9-.031,2.855a4.161,4.161,0,0,1-3.636,4.017,7.139,7.139,0,0,1-4.65-.463,3.886,3.886,0,0,1-2.271-3.517c-.026-.518-.045-1.037-.049-1.556a.43.43,0,0,0-.377-.485c-.63-.151-1.245-.365-1.891-.453-.1-.014-.2-.032-.3-.036-.944-.036-1.068.083-1.068,1.016q0,2.446,0,4.891c0,.54-.024.562-.562.564-.5,0-1.01-.013-1.514,0-.357.013-.477-.131-.474-.484.013-1.486.006-2.972,0-4.458,0-.523,0-.524-.5-.383a38.947,38.947,0,0,1-4.424,1.01c-.47.076-.6.268-.588.732.036,1.023,0,2.048.016,3.073.006.366-.111.528-.5.512-.519-.022-1.039-.024-1.557,0-.406.02-.521-.146-.511-.534.022-.952-.007-1.9.014-2.856.008-.366-.085-.516-.48-.5a9.992,9.992,0,0,1-2.648-.361c-.269-.065-.366-.012-.371.273a4.022,4.022,0,0,1-3.207,3.951,7.861,7.861,0,0,1-4.848-.221,3.983,3.983,0,0,1-2.624-3.6c-.047-.534.017-.6.555-.6s1.068,0,1.6,0c.241,0,.36.079.387.344a1.985,1.985,0,0,0,1.937,2.043,6.032,6.032,0,0,0,2.11-.051,2.055,2.055,0,0,0,1.459-2.733.475.475,0,0,0-.4-.346,20.361,20.361,0,0,0-6.683-.634,53.524,53.524,0,0,0-6.491.989c-.6.117-.6.118-.6.749,0,1.2-.01,2.4.006,3.592,0,.379-.135.515-.507.5-.533-.021-1.067-.017-1.6,0-.338.009-.455-.132-.451-.464.013-1.053-.006-2.107.01-3.159,0-.343-.078-.436-.42-.314a23.656,23.656,0,0,0-2.313.968.631.631,0,0,1-.886-.273.656.656,0,0,1,.322-.876c.074-.044.153-.081.23-.12a15.317,15.317,0,0,1,2.614-1.027.526.526,0,0,0,.456-.6q-.024-2.921,0-5.843c0-.382-.117-.5-.5-.491-1.154.021-2.309,0-3.462.013-.357,0-.494-.117-.475-.475.022-.432.02-.866,0-1.3-.016-.336.109-.462.45-.455.821.016,1.644,0,2.466,0,2.611,0,5.223.008,7.834-.008.422,0,.612.1.572.554a8.356,8.356,0,0,0,0,1.211c.021.368-.136.47-.482.465-1.125-.015-2.251.008-3.376-.012-.378-.007-.5.111-.5.492q.026,2.618,0,5.237c0,.337.085.424.422.356a55.834,55.834,0,0,1,6.229-.988C-4346.619-1687.2-4346.347-1687.211-4345.958-1687.234Zm29.554-1.782h0c0,.49.021.981-.007,1.47-.024.421.141.542.551.54a16.963,16.963,0,0,0,4.543-.766.435.435,0,0,0,.365-.494c-.011-.706.008-1.413-.013-2.119a1.932,1.932,0,0,0-1.569-1.959,4.627,4.627,0,0,0-2.1-.032,1.979,1.979,0,0,0-1.766,2.15C-4316.411-1689.824-4316.4-1689.42-4316.4-1689.016Zm5.439,3.909h.008c0-.331-.015-.663,0-.993s-.088-.422-.426-.323a16.953,16.953,0,0,1-4.632.726c-.3,0-.409.126-.4.415.015.4-.008.807.019,1.209a1.847,1.847,0,0,0,1.273,1.733,4.184,4.184,0,0,0,2.713.065,1.9,1.9,0,0,0,1.437-1.882C-4310.954-1684.473-4310.965-1684.791-4310.965-1685.107Zm10.526-3.308v0c.446,0,.893.014,1.339,0a1.9,1.9,0,0,0,1.805-2.22c-.029-.189-.08-.3-.3-.244-1.474.4-2.931.852-4.364,1.377-.426.156-.208.576-.211.878,0,.277.26.21.434.214C-4301.3-1688.41-4300.871-1688.416-4300.439-1688.416Zm2.02-3.612a1.47,1.47,0,0,0-.853-.238c-.634,0-1.269-.011-1.9,0-1.174.023-1-.237-1.015,1.076,0,.029,0,.057,0,.086,0,.189.084.261.276.2C-4300.776-1691.271-4299.64-1691.635-4298.419-1692.028Zm-29.86,5.972c-.006-.031-.012-.063-.018-.094h-2.07c-.21,0-.319.1-.313.317.006.266.189.21.337.182C-4329.653-1685.781-4328.966-1685.92-4328.279-1686.055Zm-47.663-1.225v2.727a4.164,4.164,0,0,1-3.617,4.506,7.524,7.524,0,0,1-3.89-.137,4.078,4.078,0,0,1-3.085-4.066c-.035-2.019-.052-4.04,0-6.058.072-2.659,1.768-4,4.245-4.341a7.408,7.408,0,0,1,3.538.341,4.043,4.043,0,0,1,2.8,3.956C-4375.937-1689.328-4375.942-1688.3-4375.941-1687.28Zm-2.556.007h0c0-1.01.009-2.019,0-3.029a1.994,1.994,0,0,0-1.672-2.065,5.478,5.478,0,0,0-1.636-.075,2.108,2.108,0,0,0-2.171,2.219c-.031,1.947-.027,3.895,0,5.841a2.057,2.057,0,0,0,1.678,2.169,4.816,4.816,0,0,0,1.633.093,2.134,2.134,0,0,0,2.173-2.427Q-4378.5-1685.91-4378.5-1687.273Zm16.042.25c-.045.931.075,2.115-.063,3.3a3.791,3.791,0,0,1-2.242,3.219,6.97,6.97,0,0,1-5.99.01,3.792,3.792,0,0,1-2.3-3.628c-.034-2-.011-4.01-.009-6.015a4.131,4.131,0,0,1,3.429-4.354,7.677,7.677,0,0,1,3.723,0,4.187,4.187,0,0,1,3.445,4.32C-4362.441-1689.206-4362.456-1688.24-4362.456-1687.024Zm-8.046-.3h0c0,1.038-.011,2.077,0,3.115a1.92,1.92,0,0,0,1.444,1.928,4.227,4.227,0,0,0,2.051.119c1.275-.225,1.877-.761,1.945-2.042a52.01,52.01,0,0,0-.013-6.267,1.883,1.883,0,0,0-1.73-1.911,4.547,4.547,0,0,0-1.848-.015,2.029,2.029,0,0,0-1.854,2.262C-4370.505-1689.2-4370.5-1688.262-4370.5-1687.324Zm-27.833,6.652c0,.591,0,.592.608.595.462,0,.923,0,1.385,0,.534,0,.557-.025.557-.567q0-2.444,0-4.889c0-.618,0-.619.63-.62,1.73,0,3.461-.007,5.191,0,.382,0,.557-.109.524-.52-.032-.387-.006-.778-.007-1.168,0-.574,0-.578-.58-.579q-2.573,0-5.148,0c-.609,0-.61,0-.61-.628q0-1.3,0-2.6c0-.626,0-.627.608-.627,1.817,0,3.634-.01,5.45.008.406,0,.542-.14.521-.526a9.6,9.6,0,0,1,0-1.167c.028-.421-.143-.541-.553-.539q-4.023.022-8.046,0c-.414,0-.545.121-.542.539.017,2.221.009,4.441.008,6.662S-4398.335-1682.878-4398.334-1680.672Z" transform="translate(4398.343 1694.777)" fill="#b9b4ac"/>
</svg>
