<svg id="Layer_1" data-name="Layer 1" xmlns="http://www.w3.org/2000/svg" viewBox="0 0 109.27568 50">
  <g>
    <path id="Path_14925" data-name="Path 14925" d="M949.68725,642.86073a3.77822,3.77822,0,0,1-1.314-2.559,4.1459,4.1459,0,0,1,2.7998-4.55505,7.106,7.106,0,0,1,5.24317.148,3.8726,3.8726,0,0,1,2.41894,3.68506c.01319.342-.08691.50695-.458.494-.562-.02-1.125-.012-1.688,0-.272,0-.416-.109-.39991-.381a2.00006,2.00006,0,0,0-2.21582-2.057,8.18668,8.18668,0,0,0-1.5542.05505,2,2,0,0,0-1.647,2.208,1.83124,1.83124,0,0,0,1.8833,1.77734q.04174-.00128.0835-.00439a15.76028,15.76028,0,0,1,2.62793.166,4.07369,4.07369,0,0,1,3.11084,2.224.55481.55481,0,0,0,.39111.30005,15.50012,15.50012,0,0,0,2.979.51c.36621.03.46777-.109.46679-.464-.0122-2.741-.00683-5.483-.00586-8.224,0-.569,0-.571.5791-.573.47608,0,.95411.022,1.42823-.007.41406-.025.55615.123.55176.54-.01807,1.659.00585,3.318-.01612,4.977-.00586.433.11719.57605.561.568,1.47119-.025,2.94287-.022,4.41406,0,.40918.006.55078-.108.54492-.533-.02295-1.616-.00976-3.23206-.00879-4.848,0-.69995,0-.69995.67578-.69995h1.125c.74317,0,.74414,0,.74414.724v5.756c0,.175.07422.27.271.234a6.04362,6.04362,0,0,1,2.88916.357c.373.114.479.02.47607-.364-.00585-.894-.01806-1.787.03418-2.682a4.02994,4.02994,0,0,1,2.98389-3.90906,7.06037,7.06037,0,0,1,5.39014.339,3.84652,3.84652,0,0,1,2.1748,3.311,15.74583,15.74583,0,0,1,.04785,1.642c0,.272.07325.37194.355.27295q1.48828-.52405,2.98584-1.026c.27393-.09094.27588-.287.27491-.51294,0-1.19995.01611-2.4-.00977-3.592-.00976-.446.146-.56494.57422-.56,1.7002.021,3.3999-.00806,5.10693.016a4.47448,4.47448,0,0,1,3.47119,1.583.63234.63234,0,0,0,.561.241c.75-.033,1.5-.053,2.24805-.07495a3.13212,3.13212,0,0,1,.43213.009c.438.049.70605.323.68408.689a.65277.65277,0,0,1-.69043.6134l-.01856-.00134c-.63379.019-1.27.026-1.8999.012-.36523-.00806-.5.126-.439.489a4.0687,4.0687,0,0,1-3.1001,4.558,8.62824,8.62824,0,0,1-1.88721.2c-.57617.021-1.15283,0-1.731,0-.74121,0-.74218,0-.74218.72v4.718c0,.637,0,.637-.65723.639-.46094,0-.92383-.01795-1.38477.005-.3999.02-.52392-.131-.522-.527.01514-2.423.00684-4.847.00684-7.271,0-.115-.00781-.231,0-.346.02-.281-.10987-.314-.34278-.233-.98.34094-1.96.684-2.9458,1.009-.2832.093-.32177.279-.32617.53-.01611.952.023,1.9-.03076,2.855a4.16105,4.16105,0,0,1-3.63623,4.017,7.13855,7.13855,0,0,1-4.6499-.463,3.88568,3.88568,0,0,1-2.271-3.517c-.02588-.51795-.04492-1.037-.04883-1.556a.43.43,0,0,0-.36816-.48389l-.00879-.0011a19.40157,19.40157,0,0,0-1.89111-.453c-.1001-.014-.2002-.032-.29981-.036-.94385-.036-1.06787.083-1.06787,1.016v4.891c0,.54-.02392.562-.562.564-.5,0-1.00977-.01294-1.51416,0-.35693.01294-.477-.131-.47412-.484.01318-1.486.00586-2.972,0-4.458,0-.523,0-.524-.5-.38306a38.92049,38.92049,0,0,1-4.42383,1.01c-.47021.07605-.6001.268-.58789.73206.03613,1.023,0,2.048.01611,3.073.00586.366-.11084.528-.5.512-.519-.022-1.03906-.024-1.55713,0-.40576.02-.521-.146-.51123-.53406.022-.952-.00683-1.9.01416-2.856.00782-.366-.085-.516-.48-.5a9.98767,9.98767,0,0,1-2.648-.361c-.269-.06494-.36621-.012-.37109.273a4.02215,4.02215,0,0,1-3.207,3.951,7.8607,7.8607,0,0,1-4.84815-.22095,3.98278,3.98278,0,0,1-2.624-3.6c-.04687-.53406.01709-.6.55518-.6h1.60009c.24122,0,.35987.079.38721.344a1.985,1.985,0,0,0,1.92578,2.04272l.01123.00025a6.03353,6.03353,0,0,0,2.10987-.051,2.056,2.056,0,0,0,1.459-2.733.47511.47511,0,0,0-.3999-.346,20.35856,20.35856,0,0,0-6.68311-.634,53.53415,53.53415,0,0,0-6.49121.989c-.6001.11694-.6001.118-.6001.749,0,1.2-.00976,2.4.00586,3.59205,0,.379-.13476.515-.50683.5-.53321-.021-1.0669-.017-1.6001,0-.33789.009-.45508-.132-.45117-.464.01318-1.053-.00586-2.10706.00976-3.15906,0-.343-.07812-.436-.41992-.314a23.68978,23.68978,0,0,0-2.313.968.63119.63119,0,0,1-.86279-.22839q-.01245-.0218-.02344-.04456a.65569.65569,0,0,1,.31494-.87268l.00684-.00329c.07422-.04395.15283-.08106.23-.12a15.31785,15.31785,0,0,1,2.61377-1.027.526.526,0,0,0,.458-.58618l-.00195-.01379q-.02418-2.92109,0-5.843c0-.382-.11719-.5-.5-.491-1.15381.021-2.30909,0-3.46192.01294-.35693,0-.49414-.11694-.4751-.475.022-.432.02-.866,0-1.30005-.01611-.33606.10889-.462.4502-.455.8208.016,1.644,0,2.46582,0,2.61084,0,5.22314.00806,7.834-.00805.42188,0,.61182.1.57178.554a8.3538,8.3538,0,0,0,0,1.21106c.021.368-.13623.47-.48193.465-1.125-.015-2.251.00805-3.376-.012-.37793-.00695-.5.111-.5.49195q.02564,2.618,0,5.23706c0,.337.085.42395.42188.356a55.835,55.835,0,0,1,6.229-.988C949.02612,642.89479,949.29809,642.88368,949.68725,642.86073Zm29.5542-1.782h0c0,.49.021.981-.00683,1.47-.02393.421.14111.542.55078.54a16.96522,16.96522,0,0,0,4.543-.766.43493.43493,0,0,0,.36523-.494c-.01123-.70605.00781-1.413-.01318-2.119a1.932,1.932,0,0,0-1.56885-1.959,4.62629,4.62629,0,0,0-2.1001-.032,1.979,1.979,0,0,0-1.76611,2.15c-.01123.402,0,.80591,0,1.21Zm5.439,3.90906h.00781c0-.33106-.01514-.663,0-.993s-.08789-.422-.42578-.323a16.95106,16.95106,0,0,1-4.63184.726c-.2998,0-.40918.126-.3999.415.01514.4-.00781.807.019,1.209a1.84723,1.84723,0,0,0,1.273,1.733,4.18423,4.18423,0,0,0,2.71289.06494,1.90045,1.90045,0,0,0,1.437-1.882c.01856-.316.00782-.634.00782-.95007Zm10.52588-3.308h0c.4458,0,.89306.014,1.33886,0a1.90017,1.90017,0,0,0,1.83155-1.9663,2.008,2.008,0,0,0-.02637-.25367c-.02881-.189-.08008-.3-.29981-.244-1.47412.4-2.93115.85205-4.36376,1.377-.42579.156-.208.57605-.21094.878,0,.277.25976.21.43408.214.43555-.00012.86426-.0061,1.29639-.0061Zm2.02-3.61206a1.46893,1.46893,0,0,0-.853-.238c-.63379,0-1.269-.011-1.8999,0-1.17383.02295-1-.23706-1.01514,1.07605v.08606c0,.189.084.261.27588.19995,1.13525-.368,2.271-.73206,3.49219-1.125Zm-29.85987,5.972-.01806-.094h-2.06983a.27352.27352,0,0,0-.313.317c.00586.266.189.21.33692.182.68994-.1311,1.37695-.27014,2.064-.40515Zm-47.66308-1.225v2.727a4.164,4.164,0,0,1-3.61719,4.506,7.52383,7.52383,0,0,1-3.89014-.137,4.07824,4.07824,0,0,1-3.085-4.066c-.03515-2.019-.05176-4.04,0-6.058.07178-2.65906,1.76807-4,4.24512-4.34094a7.40868,7.40868,0,0,1,3.53808.34094,4.0425,4.0425,0,0,1,2.79981,3.95605c.01416,1.02381.00928,2.05176.01025,3.07178Zm-2.55616.007h0c0-1.01.00879-2.019,0-3.029a1.99394,1.99394,0,0,0-1.67187-2.06494,5.4803,5.4803,0,0,0-1.63623-.075,2.1082,2.1082,0,0,0-2.17285,2.04113c-.002.05921-.001.11866.002.17786-.03076,1.947-.02686,3.895,0,5.84094a2.057,2.057,0,0,0,1.67822,2.16895,4.81732,4.81732,0,0,0,1.63282.093,2.13386,2.13386,0,0,0,2.17285-2.427q-.0066-1.363-.00684-2.726Zm16.042.25c-.04493.931.07519,2.115-.063,3.30005a3.79082,3.79082,0,0,1-2.24219,3.219,6.97038,6.97038,0,0,1-5.99023.01,3.79209,3.79209,0,0,1-2.29981-3.628c-.03418-2-.01123-4.01-.00879-6.015a4.13114,4.13114,0,0,1,3.4292-4.354,7.676,7.676,0,0,1,3.72315,0,4.187,4.187,0,0,1,3.44482,4.31995c.022.965.00684,1.931.00684,3.147Zm-8.0459-.3h0c0,1.038-.01123,2.077,0,3.115a1.92016,1.92016,0,0,0,1.44385,1.928,4.22831,4.22831,0,0,0,2.05078.119c1.2749-.225,1.877-.761,1.94482-2.042a52.00857,52.00857,0,0,0-.01318-6.267,1.88289,1.88289,0,0,0-1.73-1.911,4.54676,4.54676,0,0,0-1.84815-.015,2.02894,2.02894,0,0,0-1.86181,2.18347c.00195.02624.00488.05237.00781.07849.00293.93408.00781,1.87207.00781,2.81006Zm-27.833,6.652c0,.59094,0,.592.60791.595H899.303c.53418,0,.55712-.025.55712-.567v-4.889c0-.61805,0-.619.62989-.62,1.73,0,3.46094-.007,5.19092,0,.38183,0,.55712-.109.52392-.52-.03223-.387-.00586-.778-.00683-1.168,0-.574,0-.578-.58008-.579H900.47c-.60889,0-.60987,0-.60987-.628v-2.6c0-.626,0-.627.60792-.627,1.81689,0,3.63378-.01,5.45019.00806.40576,0,.542-.14.521-.526a9.69214,9.69214,0,0,1,0-1.167c.02783-.421-.14307-.541-.55323-.53894q-4.02319.022-8.04589,0c-.41407,0-.54493.121-.542.53894.01709,2.22094.00879,4.441.00782,6.662s.00439,4.41895.00537,6.625Z" transform="translate(-895.99118 -617.79427)" fill="#b9b4ac"/>
    <rect width="109.27568" height="50" fill="none"/>
  </g>
</svg>
