<svg id="Group_6587" data-name="Group 6587" xmlns="http://www.w3.org/2000/svg" width="118.661" height="22.118" viewBox="0 0 118.661 22.118">
  <path id="Path_1" data-name="Path 1" d="M1043.463,100.138h5.408l2.313,5.986,2.468-5.986,6.808.017,2.188,7.054,1.926-7.072h4.342l2.135,6.967,1.908-6.967h2.24l-3.466,12.6h-4.078l-2.277-7.352-2.013,7.352h-4.184l-3.729-12.166-5.234,12.83a9.031,9.031,0,0,1-1.68,2.924,3.937,3.937,0,0,1-3.624,1.138c-1.679-.3-2.345-1.174-2.468-2.206a2.029,2.029,0,0,1,1.594-2.346,1.928,1.928,0,0,1,2.241.805,2.124,2.124,0,0,1,.173,1.593,1.791,1.791,0,0,1-.419.6,1.368,1.368,0,0,0,1.277-.472,5.151,5.151,0,0,0,1.068-1.926,2.187,2.187,0,0,0,.106-.49Z" transform="translate(-982.894 -95.426)" fill="#c6c0b9" fill-rule="evenodd"/>
  <path id="Path_2" data-name="Path 2" d="M1100.124,105.254a17.643,17.643,0,0,1,.109-2.43,2.831,2.831,0,0,1,.966-1.715,1.614,1.614,0,0,1,1.933.14,2.576,2.576,0,0,1,.7,1.2,6.731,6.731,0,0,1,.2,1.674c-.01.708-.01,1.106,0,1.136Zm-4.421-2.393a6.908,6.908,0,0,1,6.609-3.417c3.1.158,4.888,1.289,5.983,3.373a8.628,8.628,0,0,1,.773,4.117l-8.936-.024v2.563a2.25,2.25,0,0,0,.293.786c.2.27,1.012,1.317,3.44.932,2.691-.426,2.617-2.35,2.672-2.35l2.128,0a3.3,3.3,0,0,1-.91,2.114,7.494,7.494,0,0,1-4.2,1.889,8.116,8.116,0,0,1-6.238-1.437,6.515,6.515,0,0,1-2.043-3.006,7.777,7.777,0,0,1,.433-5.541" transform="translate(-1002.917 -95.157)" fill="#c6c0b9" fill-rule="evenodd"/>
  <rect id="Rectangle_1" data-name="Rectangle 1" width="4.767" height="17.316" transform="translate(107.639 0.007)" fill="#c6c0b9"/>
  <rect id="Rectangle_2" data-name="Rectangle 2" width="4.766" height="17.316" transform="translate(113.894 0.027)" fill="#c6c0b9"/>
  <path id="Path_3" data-name="Path 3" d="M979.539,99.451a8.53,8.53,0,0,1,3.111.445,5.952,5.952,0,0,1,3.393,2.82,7.616,7.616,0,0,1,.4,6.026,6.083,6.083,0,0,1-2.972,3.415,8.493,8.493,0,0,1-3.766.752,7.4,7.4,0,0,1-4.434-1.276,6.348,6.348,0,0,1-2.4-3.464,7.217,7.217,0,0,1,.932-6.038,6.507,6.507,0,0,1,4.35-2.558,7.153,7.153,0,0,1,1.391-.123m1.776,2.9a6.372,6.372,0,0,1,.314,2.1c.018,1.709.02,3.726-.017,4.147a3.98,3.98,0,0,1-1.04,2.555,1.322,1.322,0,0,1-2.042-.446c-.522-.784-.7-1.523-.665-3.74s-.079-3.751.338-4.659.846-1.286,1.242-1.36c.838-.167,1.47.4,1.87,1.406" transform="translate(-956.269 -95.161)" fill="#c6c0b9" fill-rule="evenodd"/>
  <path id="Path_4" data-name="Path 4" d="M1002.968,103.448v9.06l-4.965,0V99.912h4.989v1.7a4.92,4.92,0,0,1,1.668-1.47,5.577,5.577,0,0,1,4.532-.176,3.391,3.391,0,0,1,2.107,2.955l.008,9.589h-4.9v-8.766a1.937,1.937,0,0,0-.4-1.322,1.54,1.54,0,0,0-1.766-.179c-.678.363-1.371,1.114-1.275,1.211" transform="translate(-965.957 -95.204)" fill="#c6c0b9" fill-rule="evenodd"/>
  <path id="Path_5" data-name="Path 5" d="M1027.135,105.254a17.623,17.623,0,0,1,.109-2.43,2.834,2.834,0,0,1,.966-1.715,1.615,1.615,0,0,1,1.934.14,2.564,2.564,0,0,1,.7,1.2,6.74,6.74,0,0,1,.2,1.674c-.011.708-.011,1.106,0,1.136Zm-4.422-2.393a6.91,6.91,0,0,1,6.611-3.417c3.1.158,4.887,1.289,5.981,3.373a8.721,8.721,0,0,1,.787,4.117l-8.949-.024v2.563a2.258,2.258,0,0,0,.293.786c.2.27,1.013,1.317,3.44.932,2.693-.425,2.617-2.339,2.671-2.339l2.128-.009a3.3,3.3,0,0,1-.909,2.114,7.5,7.5,0,0,1-4.2,1.889,8.114,8.114,0,0,1-6.238-1.437,6.519,6.519,0,0,1-2.043-3.006,7.78,7.78,0,0,1,.432-5.541" transform="translate(-975.09 -95.157)" fill="#c6c0b9" fill-rule="evenodd"/>
  <path id="Path_6" data-name="Path 6" d="M946.211,92.568h5.35v7.18h4.162V92.522h5.3V109.9h-5.3v-7.958h-4.208v7.867h-5.3Z" transform="translate(-946.211 -92.522)" fill="#c6c0b9" fill-rule="evenodd"/>
</svg>
