<svg xmlns="http://www.w3.org/2000/svg" data-name="Layer 1" viewBox="0 0 123.697 50">
  <path fill-rule="evenodd" d="M63.088 19.655h5.408l2.313 5.986 2.468-5.986 6.808.017 2.188 7.054 1.926-7.072h4.342l2.135 6.967 1.908-6.967h2.24l-3.466 12.6H87.28l-2.277-7.352-2.013 7.352h-4.184l-3.729-12.166-5.234 12.83a9.03 9.03 0 0 1-1.68 2.924 3.937 3.937 0 0 1-3.624 1.138c-1.679-.3-2.345-1.174-2.468-2.206a2.029 2.029 0 0 1 1.594-2.346 1.928 1.928 0 0 1 2.241.805 2.124 2.124 0 0 1 .173 1.593 1.792 1.792 0 0 1-.419.6 1.368 1.368 0 0 0 1.277-.472 5.15 5.15 0 0 0 1.068-1.926 2.192 2.192 0 0 0 .106-.49Z" data-name="Path 1"/>
  <path fill-rule="evenodd" d="M99.726 25.04a17.643 17.643 0 0 1 .109-2.43 2.83 2.83 0 0 1 .966-1.715 1.614 1.614 0 0 1 1.933.14 2.576 2.576 0 0 1 .7 1.2 6.728 6.728 0 0 1 .2 1.674c-.01.708-.01 1.106 0 1.136Zm-4.421-2.393a6.908 6.908 0 0 1 6.609-3.417c3.1.158 4.888 1.289 5.983 3.373a8.628 8.628 0 0 1 .773 4.117l-8.936-.024v2.563a2.248 2.248 0 0 0 .293.786c.2.27 1.012 1.317 3.44.932 2.691-.426 2.617-2.35 2.672-2.35h2.128a3.3 3.3 0 0 1-.91 2.114 7.494 7.494 0 0 1-4.2 1.889 8.116 8.116 0 0 1-6.238-1.437 6.515 6.515 0 0 1-2.043-3.006 7.777 7.777 0 0 1 .433-5.541" data-name="Path 2"/>
  <path d="M110.158 14.95h4.767v17.316h-4.767z" data-name="Rectangle 1"/>
  <path d="M116.413 14.97h4.766v17.316h-4.766z" data-name="Rectangle 2"/>
  <path fill-rule="evenodd" d="M25.789 19.232a8.53 8.53 0 0 1 3.111.446 5.952 5.952 0 0 1 3.393 2.82 7.616 7.616 0 0 1 .4 6.026 6.083 6.083 0 0 1-2.972 3.415 8.493 8.493 0 0 1-3.766.752 7.4 7.4 0 0 1-4.434-1.276 6.348 6.348 0 0 1-2.4-3.464 7.217 7.217 0 0 1 .932-6.038 6.507 6.507 0 0 1 4.35-2.558 7.154 7.154 0 0 1 1.391-.123m1.776 2.9a6.373 6.373 0 0 1 .314 2.1c.018 1.709.02 3.726-.017 4.147a3.98 3.98 0 0 1-1.04 2.555 1.322 1.322 0 0 1-2.042-.446c-.522-.784-.7-1.523-.665-3.74s-.079-3.751.338-4.66.846-1.285 1.242-1.36c.838-.166 1.47.4 1.87 1.407" data-name="Path 3"/>
  <path fill-rule="evenodd" d="M39.53 23.187v9.06h-4.965V19.651h4.99v1.7a4.92 4.92 0 0 1 1.667-1.47 5.577 5.577 0 0 1 4.532-.176 3.391 3.391 0 0 1 2.107 2.955l.008 9.589h-4.9v-8.766a1.937 1.937 0 0 0-.4-1.322 1.54 1.54 0 0 0-1.766-.18c-.678.364-1.37 1.115-1.275 1.212" data-name="Path 4"/>
  <path fill-rule="evenodd" d="M54.564 25.04a17.624 17.624 0 0 1 .109-2.43 2.834 2.834 0 0 1 .966-1.715 1.615 1.615 0 0 1 1.934.14 2.563 2.563 0 0 1 .7 1.2 6.74 6.74 0 0 1 .2 1.674c-.011.708-.011 1.106 0 1.136Zm-4.422-2.393a6.91 6.91 0 0 1 6.611-3.417c3.1.158 4.887 1.289 5.981 3.373a8.72 8.72 0 0 1 .787 4.117l-8.949-.024v2.563a2.259 2.259 0 0 0 .293.786c.2.27 1.013 1.317 3.44.932 2.693-.425 2.617-2.34 2.67-2.34l2.129-.008a3.3 3.3 0 0 1-.91 2.114 7.5 7.5 0 0 1-4.2 1.889 8.114 8.114 0 0 1-6.237-1.437 6.52 6.52 0 0 1-2.043-3.006 7.78 7.78 0 0 1 .432-5.541" data-name="Path 5"/>
  <path fill-rule="evenodd" d="M2.519 14.989h5.35v7.18h4.162v-7.226h5.3v17.378h-5.3v-7.958H7.823v7.867h-5.3Z" data-name="Path 6"/>
  <path fill="none" d="M0 0h123.697v50H0z"/>
</svg>
