<svg id="Layer_1" data-name="Layer 1" xmlns="http://www.w3.org/2000/svg" viewBox="0 0 123.69741 50">
  <g>
    <g>
      <path id="Path_1" data-name="Path 1" d="M951.86805,527.22283h5.408l2.313,5.986,2.468-5.986,6.808.017,2.188,7.054,1.926-7.072h4.342l2.135,6.967,1.908-6.967h2.24l-3.46594,12.6h-4.078l-2.277-7.352-2.01294,7.352h-4.184l-3.729-12.166-5.234,12.83a9.03094,9.03094,0,0,1-1.68006,2.924,3.937,3.937,0,0,1-3.624,1.138c-1.679-.3-2.345-1.174-2.468-2.206a2.029,2.029,0,0,1,1.594-2.346,1.928,1.928,0,0,1,2.241.805,2.12369,2.12369,0,0,1,.173,1.593,1.79208,1.79208,0,0,1-.41895.6,1.36808,1.36808,0,0,0,1.277-.472,5.15086,5.15086,0,0,0,1.068-1.926,2.19152,2.19152,0,0,0,.106-.49Z" transform="translate(-888.78031 -507.56818)" fill="#c6c0b9" fill-rule="evenodd"/>
      <path id="Path_2" data-name="Path 2" d="M988.50605,532.60784a17.64256,17.64256,0,0,1,.109-2.43,2.83094,2.83094,0,0,1,.96594-1.715,1.614,1.614,0,0,1,1.933.14,2.57556,2.57556,0,0,1,.69995,1.2,6.72829,6.72829,0,0,1,.2,1.674c-.01.708-.01,1.106,0,1.136Zm-4.421-2.393a6.90808,6.90808,0,0,1,6.609-3.417c3.1.158,4.88794,1.289,5.983,3.373a8.628,8.628,0,0,1,.773,4.117l-8.936-.024v2.563a2.2481,2.2481,0,0,0,.293.786c.19995.27,1.012,1.317,3.43994.932,2.691-.426,2.61694-2.35,2.672-2.35H997.047a3.29972,3.29972,0,0,1-.91,2.114,7.49377,7.49377,0,0,1-4.19995,1.889,8.1161,8.1161,0,0,1-6.238-1.437,6.515,6.515,0,0,1-2.043-3.006,7.77723,7.77723,0,0,1,.433-5.541" transform="translate(-888.78031 -507.56818)" fill="#c6c0b9" fill-rule="evenodd"/>
      <rect id="Rectangle_1" data-name="Rectangle 1" x="110.15771" y="14.94966" width="4.767" height="17.316" fill="#c6c0b9"/>
      <rect id="Rectangle_2" data-name="Rectangle 2" x="116.41271" y="14.96966" width="4.766" height="17.316" fill="#c6c0b9"/>
      <path id="Path_3" data-name="Path 3" d="M914.569,526.80083a8.53023,8.53023,0,0,1,3.111.445,5.95194,5.95194,0,0,1,3.393,2.82,7.61593,7.61593,0,0,1,.4,6.026,6.083,6.083,0,0,1-2.972,3.415,8.493,8.493,0,0,1-3.766.752,7.4,7.4,0,0,1-4.434-1.276,6.3478,6.3478,0,0,1-2.4-3.464,7.217,7.217,0,0,1,.932-6.038,6.507,6.507,0,0,1,4.35-2.558,7.15432,7.15432,0,0,1,1.391-.123m1.776,2.9a6.37312,6.37312,0,0,1,.314,2.1c.018,1.709.02,3.726-.017,4.147a3.98017,3.98017,0,0,1-1.04,2.555,1.322,1.322,0,0,1-2.042-.446c-.522-.784-.7-1.523-.665-3.74s-.079-3.751.338-4.659.846-1.286,1.242-1.36c.838-.167,1.47.4,1.87,1.406" transform="translate(-888.78031 -507.56818)" fill="#c6c0b9" fill-rule="evenodd"/>
      <path id="Path_4" data-name="Path 4" d="M928.31007,530.75483v9.06h-4.965v-12.596h4.989v1.7a4.9205,4.9205,0,0,1,1.668-1.47,5.577,5.577,0,0,1,4.532-.176,3.391,3.391,0,0,1,2.107,2.955l.008,9.589h-4.9v-8.766a1.937,1.937,0,0,0-.4-1.322,1.54,1.54,0,0,0-1.766-.179c-.678.363-1.371,1.114-1.275,1.211" transform="translate(-888.78031 -507.56818)" fill="#c6c0b9" fill-rule="evenodd"/>
      <path id="Path_5" data-name="Path 5" d="M943.344,532.60784a17.62373,17.62373,0,0,1,.109-2.43,2.83407,2.83407,0,0,1,.96594-1.715,1.615,1.615,0,0,1,1.934.14,2.56321,2.56321,0,0,1,.7,1.2,6.73973,6.73973,0,0,1,.2,1.674c-.011.708-.011,1.106,0,1.136Zm-4.422-2.393a6.91,6.91,0,0,1,6.611-3.417c3.1.158,4.887,1.289,5.981,3.373a8.72037,8.72037,0,0,1,.787,4.117l-8.949-.024v2.563a2.25867,2.25867,0,0,0,.293.786c.2.27,1.01294,1.317,3.43994.932,2.693-.425,2.61694-2.339,2.671-2.339l2.12805-.009a3.29983,3.29983,0,0,1-.90906,2.114,7.49991,7.49991,0,0,1-4.2,1.889,8.11408,8.11408,0,0,1-6.238-1.437,6.5191,6.5191,0,0,1-2.043-3.006,7.78005,7.78005,0,0,1,.432-5.541" transform="translate(-888.78031 -507.56818)" fill="#c6c0b9" fill-rule="evenodd"/>
      <path id="Path_6" data-name="Path 6" d="M891.299,522.55683h5.35v7.18h4.162v-7.226h5.3v17.378h-5.3v-7.958h-4.208v7.867h-5.3Z" transform="translate(-888.78031 -507.56818)" fill="#c6c0b9" fill-rule="evenodd"/>
    </g>
    <rect width="123.69741" height="50" fill="none"/>
  </g>
</svg>
