<?xml version="1.0" encoding="UTF-8"?>
<svg id="Vrstva_1" data-name="Vrstva 1" xmlns="http://www.w3.org/2000/svg" viewBox="0 0 453.45398 148.03357">
  <path d="m425.95306,34.87274c-3.51953-4.25342-8.1416-7.43994-13.3623-9.21289-6.5127-2.38672-13.34277-3.57861-20.26074-3.50879-8.89648-.1709-17.78223,1.90918-25.67871,6.03369-3.10645,1.66797-5.78418,3.91992-7.95996,6.69287-1.88965,2.4082-2.95898,5.41992-3.01367,8.48877.05469,3.06201,1.12402,6.0752,3.01562,8.49072,3.51953,4.25049,8.14258,7.43555,13.3623,9.20898,5.95703,2.18439,12.17267,3.35126,18.4942,3.48578-.35217.18384-.68665.40344-.97858.69391-.77148.76562-1.20996,1.82764-1.20508,2.91309v56.50635c.00293.58301.47949,1.05762,1.0625,1.05762h.05176l26.16113-11.2041c.55859-.03027,1.00391-.49512,1.00391-1.06055v-10.56445c-.00098-.58203-.47559-1.05664-1.05762-1.05762h-.83301v-20.55859c-.00977-1.10059-.44824-2.13086-1.2334-2.90137-.77539-.76172-1.79785-1.17969-2.88379-1.17969h-.03906c-.80859.00781-1.60254.25781-2.26953.70801-.20898-.4541-.50195-.87012-.85742-1.21582-1.5957-1.57031-4.19043-1.56934-5.78613.00098-.14258.14258-.27441.29492-.39648.45605-1.29883-1.17676-3.20508-1.40137-4.73438-.58789v-8.47705c-.00391-1.06201-.44727-2.09082-1.21094-2.81787-.28522-.28705-.6142-.50891-.96002-.69666,8.20764-.15961,16.33099-2.21002,23.61627-6.0177,3.10547-1.66992,5.78223-3.92236,7.95801-6.69482,1.88672-2.41113,2.95703-5.4248,3.01465-8.49658-.05762-3.05811-1.12793-6.06982-3.01953-8.48438Zm-13.63086,7.23193l-.03516-.46826c-.15137-1.98389-.56641-3.93848-1.23438-5.81006l-.21777-.60547.64062-.06543c2.24414-.23535,4.31934-.51074,6.16992-.81787,1.3457-.22119,2.64648-.47656,3.86426-.7583l.26367-.05859.19727.18262c.81934.75391,1.57715,1.58838,2.25098,2.48242,1.20312,1.55664,2.03711,3.39941,2.41211,5.3252l.10547.59375h-14.41699Zm-18.90918-8.2085l.00293-9.53418.55273.05273c4.19629.43506,8.08887,2.37646,10.96094,5.46826.79297.84277,1.51172,1.76562,2.1377,2.74316l.45898.71484-.84766.06299c-3.99219.29248-8.28516.45801-12.75684.49219h-.50879Zm14.78027,1.56348l.37207-.04004.13867.34033c.75293,1.84912,1.22266,3.79443,1.39551,5.78223l.04883.55029h-16.73535v-6.02393h.5c5.05176-.04004,9.85645-.24463,14.28027-.60889Zm10.18652-3.45996c-2.40723.4375-5.15723.80811-8.17383,1.10059l-.33398.03271-.15918-.29688c-.86914-1.61328-1.94629-3.10938-3.20215-4.44824-.6123-.65039-1.27539-1.26709-1.96973-1.83301l-2.40039-1.57617,2.8291.69189c4.18555.87891,8.21191,2.36377,11.96387,4.41162.5127.28857,1.0459.61523,1.63379,1l1.06152.68799-1.24902.22949Zm-8.25781,12.82715c-.14551,2.10889-.62305,4.16992-1.4209,6.12598l-.14062.34521-.37012-.02979c-4.4834-.36523-9.28809-.56787-14.28223-.60205h-.49902l.00391-6.38086h16.74805l-.03906.5415Zm-16.20605,8.01855c4.41406.03125,8.70605.19775,12.75684.49561l.84961.06104-.45898.71729c-.62695.97607-1.3457,1.89795-2.13867,2.74023-2.87109,3.09082-6.76367,5.03223-10.95898,5.46729l-.55273.05469-.00391-9.53613h.50684Zm10.61816,7.34229c.69531-.56201,1.36133-1.18066,1.97949-1.83789,1.25293-1.33691,2.3291-2.8335,3.19824-4.44775l.15723-.30664.33008.03223c2.56348.24951,4.94629.55322,7.08105.90186l2.33203.41699.00488.00098-1.06934.69678c-2.11426,1.36182-4.38086,2.50146-6.7373,3.38721-2.22168.84277-4.52734,1.52588-6.85547,2.03027l-2.63965.64453,2.21875-1.51855Zm22.23145-15.89062l-.08398.56934c-.32812,2.06543-1.17773,4.03223-2.45898,5.68945-.67285.89014-1.43066,1.72363-2.25195,2.47852l-.19629.18359-.54492-.12646c-.24609-.05713-.49121-.11377-.75195-.16895-2.5293-.52832-5.55859-.97998-9.00391-1.34131l-.6416-.06787.21875-.60693c.70898-1.9751,1.13184-4.04053,1.25684-6.13965l.03027-.46973h14.42773Zm-35.52832,8.53809v9.54639l-.55273-.05469c-4.19727-.43408-8.09082-2.37549-10.96387-5.46777-.79199-.84375-1.51074-1.76562-2.13672-2.73975l-.45996-.71729.84766-.06104c3.97461-.29395,8.2666-.46094,12.75488-.49561l.51074-.01025Zm-24.97266,1.90381c2.38281-.43408,5.13379-.8042,8.17773-1.10107l.33008-.04053.15918.29297c.86816,1.61377,1.94336,3.10986,3.19824,4.44824.61523.6499,1.2793,1.2666,1.98633,1.8418l1.9043,1.38379-2.34961-.50537c-4.18359-.87256-8.20801-2.35107-11.95605-4.39355-.50586-.28711-1.02441-.60449-1.63281-.99805l-1.07129-.69824,1.25391-.22998Zm10.18945-3.4585l-.36621.0293-.14062-.34521c-.79688-1.95605-1.27637-4.01855-1.4248-6.12988l-.03711-.53076h16.75391v6.36768h-.50391c-5.07324.04004-9.87793.24463-14.28125.60889Zm14.7832-9.17578h-16.7373l.05078-.55127c.1709-1.98486.63867-3.92822,1.3916-5.77686l.14062-.33643.37109.02979c4.44629.36475,9.25195.56738,14.28418.60205h.49902v6.03271Zm-10.96973-15.68701l-.15527.12646c-.69531.56641-1.36035,1.18408-1.97754,1.83594-1.25293,1.33838-2.3291,2.83496-3.19824,4.44775l-.1582.29297-.33398-.03223c-2.55859-.24951-4.94238-.55322-7.08496-.90234-.33984-.05518-.66113-.11133-.97949-.17139l-1.34863-.24658,1.06348-.6875c2.11523-1.36182,4.38086-2.50146,6.73535-3.3877,2.22461-.8418,4.53125-1.5249,6.85449-2.02979l2.93848-.63965-2.35547,1.39404Zm-22.35938,15.68701l.10449-.59033c.37402-1.93164,1.20801-3.77393,2.41602-5.33105.67383-.89697,1.43457-1.73535,2.25977-2.4917l.22852-.16406.3457.08008c.29395.06982.59082.14014.90625.20605,2.52637.52832,5.55469.97998,9,1.3418l.6416.06787-.21875.60742c-.66797,1.86963-1.08301,3.82324-1.23438,5.80713l-.0332.4668h-14.41602Zm33.33105-17.74609v9.53418h-.51074c-4.40625-.03076-8.69727-.19727-12.75488-.49561l-.84863-.06299.46094-.71533c.62402-.97607,1.34277-1.89795,2.13477-2.74023,2.87402-3.08984,6.7666-5.03125,10.96289-5.4668l.55566-.05322Zm-17.42773,27.15527l-.64062.06592c-2.26172.23779-4.33789.5127-6.16895.81738-1.37793.22803-2.67871.4834-3.86621.7583l-.25977.06006-.2002-.18262c-.81934-.75439-1.5752-1.58838-2.24805-2.48291-1.28125-1.65137-2.13184-3.61621-2.46094-5.68164l-.08203-.57471h14.42188l.0293.47266c.12891,2.09473.55176,4.16113,1.25781,6.14209l.21777.60547Zm16.67383,55.62695v-3.18262h24.03906v3.18262h-24.03906Zm3.94531-23.63281c-1.4541.10742-2.83398.67383-3.94531,1.62012v-16.97021c.00488-1.0835.88867-1.96191,1.97168-1.96191h.00977c.52148.00195,1.0127.20654,1.38867.58154.36523.34131.5752.82373.5752,1.32275v15.40771Zm7.79004,5.76367l.00293.00195c-.03223.03027-.15039.12109-.16309.13184-.36719.3252-.85938.47754-1.32617.49316h-5.24316c-.2832.00098-.5498.1123-.75.31348-.19922.20117-.30957.46777-.30859.75195.00098.49316.35254.92773.83789,1.03516,2.83105.59082,4.68848,2.77246,5.67969,6.6709.12109.46973.54395.79688,1.02734.79688.06445-.0166.17773-.00977.26562-.03027.5625-.14746.90625-.72656.76855-1.28027-.46387-2.31543-1.62598-4.47168-3.2959-6.1377h1.01758c.71484-.01758,1.44434-.18066,2.07324-.54883.54492.2666,1.14648.40625,1.74707.40625h.07715c1.07129,0,2.11719-.43457,2.87402-1.19629.04297-.04297.08496-.08789.12695-.13281.04492.05078.0918.10059.13965.14844.75781.77539,1.82031,1.20215,2.8916,1.18848.69336.00488,1.3623-.15918,1.96289-.4873v10.44727h-22.14062v-12.08691c.00879-1.08691.43945-2.1084,1.2041-2.86816,1.02344-.93262,2.40918-1.40332,3.80273-1.30762h5.24512c.18555.00684.37793.01562.53125.04102.36914.11621.69922.32812.97559.63379.41602.375.64355.91113.62305,1.48438.00879.57715-.22656,1.13477-.64648,1.53125Zm10.4082-1.42871c-.00293.51465-.20508.99707-.57129,1.3584-.3623.35938-.84277.55664-1.38281.55664h-.01172c-.51855.03027-1.0166-.1875-1.38086-.55566-.37598-.36719-.58789-.85742-.59766-1.37695v-6.61621c.02344-1.04688.88672-1.88965,1.93359-1.88965h.02246c1.08203,0,1.9707.87988,1.98145,1.95996l.00684,6.56348Zm-6.06348-8.23828l.00195,8.22363c.00586.50586-.19629,1.00098-.55664,1.3584-.36035.36426-.85938.57129-1.37598.57129h-.02832c-.03906-.00293-.07715-.00098-.11523-.00293.33691-.625.50977-1.32129.50195-2.03125.02344-1.12891-.4375-2.21484-1.25586-2.96973-.32715-.34082-.70215-.62207-1.11719-.83984v-4.30273c.03027-1.08691.95898-1.97266,2.02734-1.91699,1.0459.02832,1.88867.87109,1.91797,1.91016Zm-8.05469-1.41309c.01562-.00098.03223-.00098.04883-.00098.50098,0,.98633.2041,1.3457.57324.3584.33203.57227.80273.58789,1.28223v3.41797h-3.93848v-3.38867c.00098-.49219.2041-.97168.56348-1.32031.36328-.37207.89941-.58887,1.38574-.56348l.00391-.12109.00293.12109Z"/>
  <g id="Group_6566" data-name="Group 6566">
    <g id="Path_14520" data-name="Path 14520">
      <path d="m283.33099,88.35087c-6.21503,0-7.14558-3.03026-7.14558-4.83468v-.37771c0-1.80785.93055-4.83812,7.14558-4.83812h.85843c6.12748,0,7.03914,3.04743,7.03914,4.86387v.34337c0,2.33665-1.86451,4.83468-7.09235,4.83468l-.80522.00859Zm.40173-8.96888c-5.32228,0-6.0382,1.98984-6.0382,3.93333,0,1.84219.68673,3.94878,6.0382,3.94878s5.98329-2.31433,5.98329-4.05007c0-1.78382-.67474-3.83203-5.93689-3.83203h-.0464Zm1.74948,6.41591c.02575-.00858-.02405-.07039-.02405-.25238v-.52707c0-.65584-.29359-.94942-.94941-.94942h-2.27824v1.72888h-2.00872v-4.99092h4.97889c1.46448,0,2.20788.38629,2.20788,1.15373-.03097.55977-.47124,1.0103-1.03013,1.05415v.34337c.68673.12533,1.10909.51506,1.10909,1.03012v.97689c-.00647.14568.01449.29128.0618.42922l-2.06709.00343Zm-3.2517-2.76071h2.37957c.78804,0,.84813-.49617.84813-.64726,0-.285-.14765-.62494-.84813-.62494h-2.37957v1.2722Z"/>
    </g>
    <g id="Path_14521" data-name="Path 14521">
      <path d="m59.78369,67.31761c-12.74083,0-19.24944-3.46291-19.35074-10.30117h12.24122c.4275,2.78132,3.23972,4.18914,8.37656,4.18914,7.13012,0,8.5843-1.37349,8.5843-3.43372s-1.15373-3.19851-7.26061-3.31526l-5.50941-.11331c-10.71836-.27641-16.15566-3.3496-16.15566-9.13714v-.34337c0-4.25438,2.16153-9.13542,19.00737-9.13542h2.29544c12.42664,0,18.76358,3.05601,18.83397,9.09936h-12.0867c-.49618-2.15294-3.06287-3.15559-8.06924-3.15559-5.9163,0-7.90958.70563-7.90958,2.79848,0,2.14093,1.88855,2.97875,6.97561,3.09035l5.50941.11331c14.05938.285,16.72737,3.44918,16.72737,9.19379v.34337c0,4.70763-2.26111,10.11059-19.86751,10.11059l-2.3418-.00343Z"/>
    </g>
    <g id="Path_14522" data-name="Path 14522">
      <path d="m132.04121,67.31589c-18.48716,0-21.24787-9.5715-21.24787-15.28006v-1.25846c0-6.86744,3.62601-15.04829,20.90279-15.04829h3.50067c13.90657,0,20.95772,5.43043,20.95772,16.13849v1.619h-33.91658l.12533.60433c.88075,4.26468,4.71279,6.42621,11.39824,6.42621,7.96967,0,9.97153-2.68174,10.47285-3.94878h11.73474c-.47042,9.70198-14.58302,10.7527-20.65898,10.7527l-3.2689-.00515Zm1.31855-25.42156c-6.20302,0-9.61442,1.7718-10.75613,5.58151l-.194.64726h21.97583l-.15451-.62494c-.91165-3.71872-4.55312-5.60555-10.81623-5.60555l-.05495.00172Z"/>
    </g>
    <g id="Path_14523" data-name="Path 14523">
      <path d="m181.46105,67.31589c-18.48544,0-21.24615-9.5715-21.24615-15.28006v-1.25846c0-6.86744,3.62601-15.04829,20.89934-15.04829h3.50068c13.90657,0,20.96116,5.43043,20.96116,16.13849v1.619h-33.91658l.12533.60433c.88075,4.26468,4.71279,6.42621,11.39481,6.42621,7.96623,0,9.97153-2.68174,10.47285-3.94878h11.73818c-.47042,9.70198-14.59332,10.7527-20.65898,10.7527l-3.27062-.00515Zm1.31855-25.41984c-6.19959,0-9.61442,1.7718-10.75613,5.58151l-.194.64726h21.97583l-.15451-.62494c-.91508-3.71872-4.55312-5.60555-10.81623-5.60555l-.05495.00172Z"/>
    </g>
    <g id="Path_14524" data-name="Path 14524">
      <path d="m208.54969,66.45575v-6.69576l22.00673-15.85521h-22.00673v-7.31383h37.66964v6.40046l-23.03512,15.91873h23.14843v7.54217l-37.78294.00344Z"/>
    </g>
    <g id="Path_14525" data-name="Path 14525">
      <path d="m255.21054,77.2445v-8.17226h6.72666c1.32542,0,1.9967-.49961,1.9967-1.47822-.15674-.96009-.51928-1.87491-1.06274-2.68174l-14.78904-28.32821h12.61894l10.25309,21.57408,9.9578-21.57408h11.721l-15.8243,32.21346c-3.01823,6.15323-5.97297,8.44009-10.91064,8.44009l-10.68747.00687Z"/>
    </g>
    <g id="Path_14526" data-name="Path 14526">
      <path d="m59.78369,117.17697c-12.74083,0-19.24944-3.46291-19.35074-10.30117h12.24122c.4275,2.78131,3.23972,4.18914,8.37656,4.18914,7.13012,0,8.5843-1.37349,8.5843-3.43372s-1.15373-3.19851-7.26061-3.31526l-5.50941-.11332c-10.71836-.27641-16.15566-3.3496-16.15566-9.13713v-.34337c0-4.25438,2.16153-9.13542,19.00737-9.13542h2.29544c12.42664,0,18.76358,3.05601,18.83397,9.09936h-12.0867c-.49618-2.15295-3.06287-3.15559-8.06924-3.15559-5.9163,0-7.90958.70563-7.90958,2.79849,0,2.14093,1.88855,2.97875,6.97561,3.09035l5.50941.11332c14.05938.285,16.72737,3.44917,16.72737,9.19379v.34337c0,4.70763-2.26111,10.11059-19.86751,10.11059l-2.3418-.00343Z"/>
    </g>
    <g id="Path_14527" data-name="Path 14527">
      <path d="m97.2971,116.31682c-4.79691,0-7.12669-2.70749-7.12669-8.27527v-14.09886h-6.02619v-7.49238h6.02619v-5.89914h11.61628v5.89227h6.07769v7.49925h-6.07769v11.69526c0,1.58295.36569,3.20195,3.09036,3.20195h2.98733v7.48551l-10.56728-.00859Z"/>
    </g>
    <g id="Path_14528" data-name="Path 14528">
      <path d="m127.48638,117.00529c-10.47285,0-14.18814-6.37471-14.18814-11.83433v-18.71378h11.90471v14.76501c0,5.20896,3.07147,8.19629,8.42292,8.19629,5.79441,0,9.68653-3.57107,9.68653-8.88475v-14.07826h11.78796v29.87338h-11.67466v-6.00043l-1.07475.99578c-3.83179,3.77182-9.03302,5.82269-14.40789,5.6811h-.45667Z"/>
    </g>
    <g id="Rectangle_609" data-name="Rectangle 609">
      <rect x="214.26855" y="86.51383" width="11.78797" height="29.86651"/>
    </g>
    <g id="Path_14529" data-name="Path 14529">
      <path d="m179.3991,117.06538c-12.24981,0-19.57222-5.7532-19.57222-15.38994v-1.09193c0-9.45475,6.93784-14.8766,19.03483-14.8766h.94771c4.59947,0,11.04628.82581,15.65435,4.75399l.84469.7228v-13.69712h11.84634v38.82681h-11.84634v-5.5386l-.79833,1.03011c-1.40611,1.81644-6.42622,5.25016-15.34703,5.25016l-.764.01031Zm4.02947-24.27298c-9.67623,0-11.1201,5.27591-11.1201,8.42292v.22663c0,4.22176,3.47493,8.47786,11.23857,8.47786h.29701c8.08298,0,12.39574-4.20803,12.47128-8.36283v-.45841c-.07554-4.13249-4.42436-8.31304-12.58974-8.31304l-.29701.00687Z"/>
    </g>
    <g id="Path_14530" data-name="Path 14530">
      <path d="m97.2971,66.45746c-4.79691,0-7.12669-2.70749-7.12669-8.27527v-14.10573h-6.02619v-7.48551h6.02619v-5.89227h11.61628v5.89227h6.07769v7.4838h-6.07769v11.69526c0,1.58295.36569,3.20195,3.09036,3.20195h2.98733v7.48551h-10.56728Z"/>
    </g>
    <g id="Rectangle_610" data-name="Rectangle 610">
      <rect x="214.26855" y="77.5501" width="11.78797" height="5.60212"/>
    </g>
    <g id="Path_14531" data-name="Path 14531">
      <path d="m252.63353,117.17354c-14.52464,0-21.58781-5.05272-21.58781-15.45175v-1.03011c0-10.02475,7.26404-15.10838,21.58781-15.10838h6.30261c14.32721,0,21.58782,5.08191,21.58782,15.10838v1.03011c0,10.39388-7.05973,15.45175-21.58782,15.45175h-6.30261Zm1.95206-24.37943c-10.07626,0-11.58195,5.20724-11.58195,8.30961v.285c0,1.98984.83954,8.48129,11.63688,8.48129h2.28686c10.79734,0,11.63688-6.49145,11.63688-8.48129v-.285c0-3.10237-1.50569-8.30961-11.57852-8.30961h-2.40016Z"/>
    </g>
  </g>
  <path d="m0,0v148.03357h453.45398V0H0Zm2.09998,2.09998h329.14227v143.83362H2.09998V2.09998Zm449.25403,143.83362h-118.01178V2.09998h118.01178v143.83362Z"/>
</svg>