<svg xmlns="http://www.w3.org/2000/svg" data-name="Vrstva 1" viewBox="0 0 453.454 148.034">
  <path d="M425.953 34.873a29.758 29.758 0 0 0-13.362-9.213 57.075 57.075 0 0 0-20.261-3.509 53.416 53.416 0 0 0-25.679 6.034 25.226 25.226 0 0 0-7.96 6.693 14.234 14.234 0 0 0-3.013 8.488 14.262 14.262 0 0 0 3.015 8.491 29.782 29.782 0 0 0 13.363 9.21 57.099 57.099 0 0 0 18.494 3.485 3.96 3.96 0 0 0-.979.694 4.103 4.103 0 0 0-1.205 2.913v56.506c.003.583.48 1.058 1.063 1.058h.051l26.162-11.204a1.064 1.064 0 0 0 1.003-1.06v-10.565a1.062 1.062 0 0 0-1.057-1.058h-.833V81.278a4.09 4.09 0 0 0-1.234-2.902 4.088 4.088 0 0 0-2.883-1.18h-.04a4.143 4.143 0 0 0-2.269.708 4.084 4.084 0 0 0-.857-1.215 4.142 4.142 0 0 0-5.787 0 4.408 4.408 0 0 0-.396.457 4.162 4.162 0 0 0-4.734-.588V68.08a3.932 3.932 0 0 0-1.211-2.818 4.066 4.066 0 0 0-.96-.697c8.207-.16 16.33-2.21 23.616-6.017a25.267 25.267 0 0 0 7.958-6.695 14.296 14.296 0 0 0 3.015-8.497 14.274 14.274 0 0 0-3.02-8.484Zm-13.63 7.232-.036-.469a22.344 22.344 0 0 0-1.234-5.81l-.218-.605.64-.066c2.245-.235 4.32-.51 6.17-.817a61.489 61.489 0 0 0 3.865-.759l.263-.058.198.182a18.548 18.548 0 0 1 2.25 2.483 12.735 12.735 0 0 1 2.413 5.325l.105.594h-14.417Zm-18.91-8.209.003-9.534.553.053a17.405 17.405 0 0 1 10.96 5.468 18.83 18.83 0 0 1 2.138 2.743l.46.715-.848.063a196.58 196.58 0 0 1-12.757.492h-.509Zm14.78 1.564.372-.04.139.34a19.886 19.886 0 0 1 1.396 5.782l.048.55h-16.735V36.07h.5c5.052-.04 9.856-.245 14.28-.61ZM418.38 32c-2.407.437-5.157.808-8.174 1.1l-.334.033-.16-.297a21.206 21.206 0 0 0-3.201-4.448 20.521 20.521 0 0 0-1.97-1.833l-2.4-1.576 2.829.692a43.705 43.705 0 0 1 11.964 4.411 28.53 28.53 0 0 1 1.633 1l1.062.688-1.25.23Zm-8.258 12.827a19.8 19.8 0 0 1-1.42 6.126l-.142.345-.37-.03c-4.483-.365-9.288-.568-14.282-.602h-.499l.004-6.38h16.748l-.039.54Zm-16.206 8.018c4.414.032 8.706.198 12.757.496l.85.061-.46.717a18.932 18.932 0 0 1-2.138 2.74 17.404 17.404 0 0 1-10.96 5.468l-.552.055-.004-9.537h.507Zm10.618 7.343a19.913 19.913 0 0 0 1.98-1.838 21.216 21.216 0 0 0 3.198-4.448l.157-.307.33.033c2.564.25 4.946.553 7.081.901l2.332.417.005.001-1.07.697a35.588 35.588 0 0 1-6.737 3.387 48.11 48.11 0 0 1-6.855 2.03l-2.64.645 2.22-1.518Zm22.232-15.89-.084.568a12.545 12.545 0 0 1-2.46 5.69c-.672.89-1.43 1.723-2.251 2.478l-.197.184-.545-.127a38.709 38.709 0 0 0-.752-.168c-2.529-.529-5.558-.98-9.003-1.342l-.642-.068.219-.607a22.041 22.041 0 0 0 1.257-6.14l.03-.469h14.428Zm-35.529 8.537v9.547l-.552-.055a17.405 17.405 0 0 1-10.964-5.468 19.102 19.102 0 0 1-2.137-2.74l-.46-.717.848-.061c3.974-.294 8.266-.46 12.754-.496l.511-.01Zm-24.972 1.904c2.382-.434 5.133-.804 8.177-1.101l.33-.04.16.292a21.164 21.164 0 0 0 3.198 4.449c.615.65 1.28 1.266 1.986 1.841l1.904 1.384-2.35-.505a43.558 43.558 0 0 1-11.955-4.394 32.59 32.59 0 0 1-1.633-.998l-1.071-.698 1.254-.23Zm10.189-3.459-.366.03-.14-.345a19.925 19.925 0 0 1-1.426-6.13l-.037-.531h16.754v6.368h-.504c-5.073.04-9.878.244-14.281.608Zm14.783-9.175H374.5l.05-.552c.172-1.984.64-3.928 1.392-5.776l.14-.337.372.03c4.446.365 9.252.567 14.284.602h.5v6.033Zm-10.97-15.687-.155.126a20.986 20.986 0 0 0-1.977 1.836 21.292 21.292 0 0 0-3.199 4.448l-.158.293-.334-.032c-2.558-.25-4.942-.554-7.085-.903-.34-.055-.66-.111-.98-.171l-1.348-.247 1.064-.687a35.69 35.69 0 0 1 6.735-3.388 48.591 48.591 0 0 1 6.855-2.03l2.938-.64-2.355 1.395Zm-22.359 15.687.105-.59a12.662 12.662 0 0 1 2.416-5.332 18.295 18.295 0 0 1 2.26-2.491l.228-.164.346.08c.294.07.59.14.906.206 2.526.528 5.555.98 9 1.341l.641.068-.218.608a22.306 22.306 0 0 0-1.235 5.807l-.033.467h-14.416Zm33.331-17.746v9.534h-.51a193.671 193.671 0 0 1-12.755-.496l-.85-.063.462-.715a18.77 18.77 0 0 1 2.135-2.74 17.425 17.425 0 0 1 10.963-5.467l.555-.053Zm-17.428 27.155-.64.066c-2.262.238-4.338.512-6.17.817a62.551 62.551 0 0 0-3.865.758l-.26.06-.2-.182a18.491 18.491 0 0 1-2.248-2.483 12.503 12.503 0 0 1-2.461-5.682l-.082-.574h14.422l.029.472a22.385 22.385 0 0 0 1.258 6.142l.217.606Zm16.674 55.627v-3.183h24.04v3.183h-24.04Zm3.946-23.633a6.861 6.861 0 0 0-3.946 1.62v-16.97a1.974 1.974 0 0 1 1.972-1.962h.01a1.962 1.962 0 0 1 1.388.582c.366.34.576.823.576 1.322v15.408Zm7.79 5.764.003.002c-.033.03-.15.12-.164.131-.367.326-.859.478-1.326.494h-5.243c-.283 0-.55.112-.75.313-.2.201-.31.468-.308.752 0 .493.352.928.837 1.035 2.831.591 4.689 2.773 5.68 6.671.121.47.544.797 1.027.797.065-.017.178-.01.266-.03a1.07 1.07 0 0 0 .769-1.28 12.068 12.068 0 0 0-3.296-6.138h1.017c.715-.018 1.445-.18 2.074-.55a3.99 3.99 0 0 0 1.747.407h.077a4.075 4.075 0 0 0 2.874-1.196c.043-.043.085-.088.127-.133a3.997 3.997 0 0 0 3.031 1.337 4.01 4.01 0 0 0 1.963-.487v10.447h-22.14V89.757a4.07 4.07 0 0 1 1.203-2.868 5.137 5.137 0 0 1 3.803-1.308h5.245c.186.007.378.016.531.041.37.116.7.328.976.634.416.375.644.911.623 1.484a2.067 2.067 0 0 1-.646 1.532Zm10.408-1.429a1.927 1.927 0 0 1-1.954 1.915h-.012a1.803 1.803 0 0 1-1.38-.556 1.968 1.968 0 0 1-.599-1.377V81.21a1.939 1.939 0 0 1 1.934-1.89h.023c1.082 0 1.97.88 1.981 1.96l.007 6.564Zm-6.064-8.238.002 8.223a1.892 1.892 0 0 1-.556 1.359c-.36.364-.86.571-1.376.571h-.029c-.039-.003-.077-.001-.115-.003.337-.625.51-1.321.502-2.031a3.935 3.935 0 0 0-1.256-2.97 4.336 4.336 0 0 0-1.117-.84v-4.302c.03-1.087.959-1.973 2.027-1.917a1.973 1.973 0 0 1 1.918 1.91Zm-8.054-1.413.048-.001c.501 0 .987.204 1.346.573.359.332.572.803.588 1.282v3.418h-3.938v-3.389c0-.492.204-.971.563-1.32.363-.372.9-.589 1.386-.563l.004-.121.003.12Z"/>
  <g data-name="Group 6566">
    <path d="M283.331 88.35c-6.215 0-7.146-3.03-7.146-4.834v-.378c0-1.807.931-4.838 7.146-4.838h.858c6.128 0 7.04 3.048 7.04 4.864v.344c0 2.336-1.865 4.834-7.093 4.834l-.805.009Zm.402-8.968c-5.323 0-6.038 1.99-6.038 3.933 0 1.843.686 3.95 6.038 3.95s5.983-2.315 5.983-4.051c0-1.784-.675-3.832-5.937-3.832h-.046Zm1.75 6.416c.025-.009-.025-.07-.025-.252v-.528c0-.655-.293-.949-.95-.949h-2.277v1.729h-2.01v-4.991h4.98c1.464 0 2.208.386 2.208 1.154a1.12 1.12 0 0 1-1.03 1.054v.343c.686.126 1.109.515 1.109 1.03v.977c-.007.146.014.292.061.43l-2.067.003Zm-3.253-2.76h2.38c.788 0 .848-.497.848-.648 0-.285-.147-.625-.848-.625h-2.38v1.272Z" data-name="Path 14520"/>
    <path d="M59.784 67.318c-12.741 0-19.25-3.463-19.351-10.302h12.241c.428 2.782 3.24 4.19 8.377 4.19 7.13 0 8.584-1.374 8.584-3.434s-1.154-3.199-7.26-3.315l-5.51-.114c-10.718-.276-16.156-3.35-16.156-9.137v-.343c0-4.255 2.162-9.136 19.008-9.136h2.295c12.427 0 18.764 3.056 18.834 9.1H68.76c-.496-2.153-3.062-3.156-8.069-3.156-5.916 0-7.91.706-7.91 2.799 0 2.14 1.89 2.978 6.976 3.09l5.51.113c14.059.285 16.727 3.45 16.727 9.194v.343c0 4.708-2.261 10.111-19.868 10.111l-2.341-.003Z" data-name="Path 14521"/>
    <path d="M132.041 67.316c-18.487 0-21.248-9.572-21.248-15.28v-1.259c0-6.867 3.626-15.048 20.903-15.048h3.5c13.907 0 20.959 5.43 20.959 16.139v1.619h-33.917l.125.604c.881 4.265 4.713 6.426 11.399 6.426 7.97 0 9.971-2.682 10.472-3.949h11.735c-.47 9.702-14.583 10.753-20.659 10.753l-3.269-.005Zm1.319-25.422c-6.203 0-9.615 1.772-10.756 5.582l-.194.647h21.975l-.154-.625c-.912-3.719-4.553-5.605-10.816-5.605l-.055.001Z" data-name="Path 14522"/>
    <path d="M181.461 67.316c-18.485 0-21.246-9.572-21.246-15.28v-1.259c0-6.867 3.626-15.048 20.9-15.048h3.5c13.906 0 20.961 5.43 20.961 16.139v1.619H171.66l.126.604c.88 4.265 4.713 6.426 11.395 6.426 7.966 0 9.971-2.682 10.472-3.949h11.739c-.47 9.702-14.594 10.753-20.66 10.753l-3.27-.005Zm1.319-25.42c-6.2 0-9.615 1.772-10.757 5.582l-.194.647h21.976l-.154-.625c-.915-3.719-4.553-5.606-10.816-5.606l-.055.002Z" data-name="Path 14523"/>
    <path d="M208.55 66.456V59.76l22.006-15.855H208.55V36.59h37.67v6.4l-23.036 15.92h23.149v7.541l-37.783.004Z" data-name="Path 14524"/>
    <path d="M255.21 77.245v-8.173h6.727c1.326 0 1.997-.5 1.997-1.478a6.746 6.746 0 0 0-1.063-2.682l-14.789-28.328h12.62l10.252 21.574 9.958-21.574h11.721l-15.824 32.214c-3.019 6.153-5.973 8.44-10.911 8.44l-10.687.006Z" data-name="Path 14525"/>
    <path d="M59.784 117.177c-12.741 0-19.25-3.463-19.351-10.301h12.241c.428 2.781 3.24 4.189 8.377 4.189 7.13 0 8.584-1.374 8.584-3.434s-1.154-3.198-7.26-3.315l-5.51-.113c-10.718-.277-16.156-3.35-16.156-9.137v-.344c0-4.254 2.162-9.135 19.008-9.135h2.295c12.427 0 18.764 3.056 18.834 9.1H68.76c-.496-2.154-3.062-3.157-8.069-3.157-5.916 0-7.91.706-7.91 2.799 0 2.14 1.89 2.979 6.976 3.09l5.51.114c14.059.285 16.727 3.449 16.727 9.193v.344c0 4.707-2.261 10.11-19.868 10.11l-2.341-.003Z" data-name="Path 14526"/>
    <path d="M97.297 116.317c-4.797 0-7.127-2.708-7.127-8.275v-14.1h-6.026V86.45h6.026v-5.899h11.617v5.892h6.077v7.5h-6.077v11.695c0 1.583.365 3.202 3.09 3.202h2.987v7.485l-10.567-.008Z" data-name="Path 14527"/>
    <path d="M127.486 117.005c-10.472 0-14.188-6.374-14.188-11.834V86.457h11.905v14.765c0 5.21 3.071 8.196 8.423 8.196 5.794 0 9.686-3.57 9.686-8.884V86.455H155.1v29.874h-11.674v-6l-1.075.995a19.795 19.795 0 0 1-14.408 5.681h-.457Z" data-name="Path 14528"/>
    <path d="M214.269 86.514h11.788v29.867h-11.788z" data-name="Rectangle 609"/>
    <path d="M179.4 117.065c-12.25 0-19.573-5.753-19.573-15.39v-1.091c0-9.455 6.938-14.877 19.035-14.877h.947c4.6 0 11.047.826 15.655 4.754l.844.723V77.487h11.847v38.826h-11.847v-5.538l-.798 1.03c-1.406 1.816-6.426 5.25-15.347 5.25l-.764.01Zm4.029-24.273c-9.677 0-11.12 5.276-11.12 8.423v.227c0 4.222 3.474 8.478 11.238 8.478h.297c8.083 0 12.396-4.208 12.471-8.363v-.458c-.075-4.133-4.424-8.313-12.59-8.313l-.296.006Z" data-name="Path 14529"/>
    <path d="M97.297 66.457c-4.797 0-7.127-2.707-7.127-8.275V44.076h-6.026v-7.485h6.026v-5.892h11.617v5.892h6.077v7.484h-6.077V55.77c0 1.583.365 3.202 3.09 3.202h2.987v7.485H97.297Z" data-name="Path 14530"/>
    <path d="M214.269 77.55h11.788v5.602h-11.788z" data-name="Rectangle 610"/>
    <path d="M252.634 117.174c-14.525 0-21.588-5.053-21.588-15.452v-1.03c0-10.025 7.264-15.109 21.588-15.109h6.302c14.327 0 21.588 5.082 21.588 15.109v1.03c0 10.394-7.06 15.452-21.588 15.452h-6.302Zm1.952-24.38c-10.077 0-11.582 5.207-11.582 8.31v.285c0 1.99.84 8.481 11.637 8.481h2.286c10.798 0 11.637-6.491 11.637-8.481v-.285c0-3.103-1.505-8.31-11.578-8.31h-2.4Z" data-name="Path 14531"/>
  </g>
  <path d="M0 0v148.034h453.454V0H0Zm2.1 2.1h329.142v143.834H2.1V2.1Zm449.254 143.834H333.342V2.1h118.012v143.834Z"/>
</svg>
