<svg xmlns="http://www.w3.org/2000/svg" data-name="Layer 1" viewBox="0 0 70.596 50">
  <g data-name="Group 6591">
    <path d="M67.293 34.811v.443q.422.014.422-.261 0-.246-.31-.246c-.083-.005-.123.016-.112.063Zm.823 1.028v.035h-.3l-.422-.557-.105.007v.353c-.015.112.039.166.16.162v.035h-.5v-.035c.122.009.173-.053.155-.183v-.781c.015-.112-.038-.167-.155-.163v-.028h.5c.3 0 .455.108.459.31 0 .169-.108.27-.323.299l.365.458a.209.209 0 0 0 .162.085Zm.236-.454a.87.87 0 1 1 0-.22.824.824 0 0 1 0 .22Zm.251-.216a1.128 1.128 0 1 0 0 .24 1.098 1.098 0 0 0 0-.24Zm-2.222-10.255h-3.884a2.3 2.3 0 0 0-2.41-1.86c-1.854 0-2.274.708-2.262 1.238.01.41.324.933 1.177 1.323 1.638.75 4.432 1.023 6.19 2.28 2.274 1.629 1.98 5.093.047 6.8q-1.734 1.534-5.41 1.582-5.9-.256-6.629-5.09h4.085c.4 2.18 3.04 2.426 4.686 1.55.829-.44 1.165-1.16.4-1.856a11.887 11.887 0 0 0-3.026-1.163c-2.652-.666-4.384-1.508-5.2-2.771a4.537 4.537 0 0 1 1.043-5.545 7.758 7.758 0 0 1 4.8-1.41q5.657.086 6.388 4.919Zm-24.864-4.608 5.47 8.468v-8.468h3.97v15.606h-3.97l-5.47-8.494v8.494h-4.333V20.306Zm-17.5 15.606h-4.686l6.039-15.606h3.823l6.038 15.606h-4.762l-.8-2.058h-4.858l-.8 2.058Zm5.041-5.359-1.757-5.59-1.8 5.59Zm-10.486-16.97h49.083v4.136H22.162l-7.04 18.194h-4.764l-8.372-22.33h5.182l5.59 15.022 5.814-15.022Z" data-name="Path 14447"/>
  </g>
  <path fill="none" d="M0 0h70.596v50H0z"/>
</svg>
