<svg id="Layer_1" data-name="Layer 1" xmlns="http://www.w3.org/2000/svg" viewBox="0 0 70.59612 50">
  <g>
    <g id="Group_6591" data-name="Group 6591">
      <path id="Path_14447" data-name="Path 14447" d="M982.62377,479.519v.44287q.42188.01392.42188-.26123,0-.24535-.31055-.24609c-.082-.00489-.12207.01611-.11133.063Zm.82324,1.02783v.03516h-.2998l-.42188-.55713-.10547.00684v.353c-.01464.11182.03907.166.16016.16211v.03516h-.5v-.03516c.12207.00879.17285-.05322.15527-.1831v-.78077c.01465-.11181-.03808-.167-.15527-.16308V479.392h.5c.2998,0,.45508.10791.459.30908,0,.16992-.10839.271-.32324.2998l.36524.458a.20867.20867,0,0,0,.16211.085Zm.23633-.4541a.86907.86907,0,1,1,0-.21924A.82363.82363,0,0,1,983.68334,480.09268Zm.251-.21582a1.12794,1.12794,0,1,0,0,.24023A1.09754,1.09754,0,0,0,983.93432,479.87686ZM981.71166,469.622h-3.88379a2.29908,2.29908,0,0,0-2.41015-1.86084c-1.85352,0-2.27344.709-2.26172,1.23877.00976.41015.32422.9331,1.17675,1.32324,1.63868.75,4.43262,1.02295,6.18946,2.28076,2.27441,1.62793,1.98144,5.0918.04785,6.79981q-1.73437,1.53369-5.40918,1.58105-5.90039-.25562-6.62988-5.08887h4.085c.40039,2.1792,3.03906,2.42481,4.68554,1.54981.82911-.44092,1.165-1.16113.4004-1.85694a11.887,11.887,0,0,0-3.02637-1.16308c-2.65137-.666-4.38379-1.50781-5.2002-2.771a4.537,4.537,0,0,1,1.04395-5.54492,7.75752,7.75752,0,0,1,4.7998-1.41016q5.65723.08643,6.3877,4.91895Zm-24.86328-4.60791,5.46875,8.46777v-8.46777h3.97168V480.62h-3.97168l-5.46875-8.49414V480.62h-4.333v-15.606Zm-17.5,15.606h-4.68652l6.03906-15.606h3.82324l6.03809,15.606h-4.76368l-.7998-2.0581h-4.85742l-.79981,2.0581Zm5.041-5.35888-1.75782-5.58985-1.7998,5.58985ZM933.90307,458.2919h49.083v4.13476H937.49291l-7.03906,18.19385H925.6892l-8.37207-22.3291h5.18164l5.59082,15.022,5.81348-15.022Z" transform="translate(-915.33096 -444.70825)" fill="#c6c0b9"/>
    </g>
    <rect width="70.59612" height="50" fill="none"/>
  </g>
</svg>
