<svg xmlns="http://www.w3.org/2000/svg" width="66.623" height="22.833" viewBox="0 0 66.623 22.833">
  <g id="Group_6591" data-name="Group 6591" transform="translate(0 0)">
    <path id="Path_14447" data-name="Path 14447" d="M13345.905,5881.07v.443q.422.014.422-.261,0-.245-.311-.246c-.082-.005-.122.016-.111.063Zm.823,1.028v.035h-.3l-.422-.557-.105.007v.353c-.015.112.039.166.16.162v.035h-.5v-.035c.122.009.173-.053.155-.183v-.781c.015-.112-.038-.167-.155-.163v-.028h.5c.3,0,.455.108.459.309,0,.17-.108.271-.323.3l.365.458a.21.21,0,0,0,.162.085Zm.236-.454a.869.869,0,1,1,0-.219.824.824,0,0,1,0,.219Zm.251-.216a1.128,1.128,0,1,0,0,.24,1.093,1.093,0,0,0,0-.24Zm-2.223-10.255h-3.884a2.3,2.3,0,0,0-2.41-1.861c-1.854,0-2.273.709-2.262,1.239.01.41.324.933,1.177,1.323,1.639.75,4.433,1.023,6.189,2.281,2.274,1.628,1.981,5.092.048,6.8q-1.734,1.534-5.409,1.581-5.9-.256-6.63-5.089h4.085c.4,2.179,3.039,2.425,4.686,1.55.829-.441,1.165-1.161.4-1.857a11.888,11.888,0,0,0-3.026-1.163c-2.651-.666-4.384-1.508-5.2-2.771a4.536,4.536,0,0,1,1.044-5.545,7.757,7.757,0,0,1,4.8-1.41q5.657.086,6.388,4.919Zm-24.863-4.608,5.469,8.468v-8.468h3.972v15.606h-3.972l-5.469-8.494v8.494h-4.333v-15.606Zm-17.5,15.606h-4.687l6.039-15.606h3.823l6.038,15.606h-4.764l-.8-2.058h-4.857l-.8,2.058Zm5.041-5.359-1.758-5.59-1.8,5.59Zm-10.486-16.969h49.083v4.135h-45.493l-7.039,18.194h-4.765l-8.372-22.329h5.182l5.591,15.022,5.813-15.022Z" transform="translate(-13280.6 -5859.843)" fill="#c6c0b9"/>
  </g>
</svg>
