<svg xmlns="http://www.w3.org/2000/svg" data-name="Layer 1" viewBox="0 0 83 83">
  <path fill="#f5ede5" d="M0 0h83v83H0z"/>
  <path d="M78.432 41.5a13.647 13.647 0 0 0-3.062-8.461 30.025 30.025 0 0 0-13.481-9.296 57.877 57.877 0 0 0-20.382-3.53 53.995 53.995 0 0 0-25.845 6.072 25.465 25.465 0 0 0-8.04 6.762 13.222 13.222 0 0 0 0 16.906 25.465 25.465 0 0 0 8.04 6.762 53.995 53.995 0 0 0 25.845 6.073 57.877 57.877 0 0 0 20.382-3.53 30.025 30.025 0 0 0 13.481-9.296 13.647 13.647 0 0 0 3.062-8.462Zm-54.615-1.273.032-.358a19.725 19.725 0 0 1 1.384-5.741l.09-.216.243.019c4.468.367 9.292.57 14.342.605h.32v5.69Zm47.169-8.234.13.12a18.483 18.483 0 0 1 2.236 2.467 12.562 12.562 0 0 1 2.385 5.263l.069.384h-14.08l-.024-.303a22.552 22.552 0 0 0-1.248-5.876l-.14-.39.413-.043c2.244-.235 4.329-.51 6.2-.822a61.358 61.358 0 0 0 3.886-.762Zm-16.84-7.895a43.667 43.667 0 0 1 11.95 4.406c.509.287 1.043.615 1.629.997l.686.444-.809.149c-2.408.437-5.163.809-8.184 1.102l-.217.021-.102-.192a21.43 21.43 0 0 0-3.24-4.5 20.767 20.767 0 0 0-1.992-1.855l-1.524-1.012Zm-11.372-1.29.355.033a17.288 17.288 0 0 1 10.884 5.43 18.738 18.738 0 0 1 2.123 2.726l.297.463-.55.04a196.6 196.6 0 0 1-12.783.494h-.33Zm-.003 11.724h.322c5.07-.04 9.894-.245 14.34-.611l.241-.026.088.215a19.743 19.743 0 0 1 1.387 5.748l.032.357h-16.41Zm-2.542-11.728v9.186h-.33a193.64 193.64 0 0 1-12.782-.497l-.549-.04.298-.464a18.733 18.733 0 0 1 2.12-2.723 17.31 17.31 0 0 1 10.887-5.428Zm-24.942 6.695a35.712 35.712 0 0 1 6.719-3.38 48.752 48.752 0 0 1 6.853-2.028l1.862-.405-1.431.847-.153.126a21.215 21.215 0 0 0-2.004 1.859 21.594 21.594 0 0 0-3.235 4.498l-.101.189-.215-.021c-2.567-.25-4.953-.554-7.098-.904a35.75 35.75 0 0 1-.977-.17l-.908-.167Zm-8.029 10.35a12.535 12.535 0 0 1 2.39-5.273 18 18 0 0 1 2.239-2.468l.153-.111.286.066c.289.07.582.138.894.204 2.538.53 5.582.984 9.047 1.348l.415.043-.141.395a22.378 22.378 0 0 0-1.248 5.873l-.022.3H7.191Zm51.923 2.936-.032.357a19.743 19.743 0 0 1-1.387 5.748l-.088.215-.242-.026c-4.445-.365-9.27-.571-14.339-.61h-.322v-5.684Zm-18.953-.011v5.69h-.32c-5.05.035-9.873.239-14.342.605l-.244.02-.089-.216a19.725 19.725 0 0 1-1.384-5.742l-.032-.357Zm-27.902 8.163-.286.066-.153-.11a18 18 0 0 1-2.239-2.469 12.535 12.535 0 0 1-2.39-5.273l-.067-.377h14.08l.022.3a22.378 22.378 0 0 0 1.248 5.873l.14.395-.414.044c-3.465.363-6.509.817-9.047 1.348a33.41 33.41 0 0 0-.894.203Zm16.533 7.972a48.752 48.752 0 0 1-6.853-2.028 35.712 35.712 0 0 1-6.719-3.38l-.688-.444.908-.166c.318-.06.64-.117.977-.17 2.145-.351 4.531-.655 7.098-.904l.215-.022.1.189a21.594 21.594 0 0 0 3.236 4.499 21.215 21.215 0 0 0 2.003 1.858l.154.126 1.43.848Zm11.37 1.287-.356-.034a17.311 17.311 0 0 1-10.886-5.428 18.733 18.733 0 0 1-2.121-2.722l-.298-.465.549-.04c4.066-.3 8.366-.466 12.783-.497h.33Zm2.545-.003-.003-9.186h.33c4.48.034 8.781.2 12.782.493l.55.04-.297.463a18.738 18.738 0 0 1-2.123 2.726 17.288 17.288 0 0 1-10.884 5.43Zm24.95-6.694c-.585.383-1.12.71-1.629.997a43.667 43.667 0 0 1-11.949 4.406l-1.803.44 1.524-1.012a20.767 20.767 0 0 0 1.993-1.855 21.43 21.43 0 0 0 3.239-4.5l.102-.192.217.02c3.021.294 5.776.666 8.184 1.103l.809.15Zm5.628-5.079a18.483 18.483 0 0 1-2.237 2.468l-.13.12-.172-.04a61.358 61.358 0 0 0-3.885-.761 104.548 104.548 0 0 0-6.201-.821l-.414-.043.141-.39a22.552 22.552 0 0 0 1.248-5.877l.024-.302h14.08l-.07.383a12.562 12.562 0 0 1-2.384 5.263Z"/>
</svg>
