<svg id="Layer_1" data-name="Layer 1" xmlns="http://www.w3.org/2000/svg" viewBox="0 0 83 83">
  <rect width="83" height="83" fill="#f5ede5"/>
  <path d="M1378.72219,540.39712a13.64657,13.64657,0,0,0-3.06226-8.4613l.00024-.00012a30.02494,30.02494,0,0,0-13.4812-9.29608,57.87678,57.87678,0,0,0-20.38159-3.53,53.9951,53.9951,0,0,0-25.84558,6.07287,25.46483,25.46483,0,0,0-8.04065,6.7616,13.22158,13.22158,0,0,0,0,16.90613,25.46483,25.46483,0,0,0,8.04065,6.7616,53.9951,53.9951,0,0,0,25.84558,6.07287,57.87678,57.87678,0,0,0,20.38159-3.53,30.02494,30.02494,0,0,0,13.4812-9.29608l-.00024-.00012A13.64657,13.64657,0,0,0,1378.72219,540.39712Zm-54.61524-1.27349.032-.35736a19.72483,19.72483,0,0,1,1.38416-5.74158l.08911-.21613.2439.01935c4.46838.36664,9.29187.57013,14.34216.60462h.31958v5.6911Zm47.16882-8.23389.12952.11945a18.48273,18.48273,0,0,1,2.23682,2.468,12.56243,12.56243,0,0,1,2.38476,5.26313l.06885.38342-14.07983-.00012-.02368-.30274a22.5525,22.5525,0,0,0-1.24781-5.8761l-.14111-.39019.4137-.04285c2.24353-.23462,4.32885-.51044,6.20068-.82147,1.35718-.22284,2.66565-.47931,3.88489-.76184Zm-16.83972-7.89435a43.66724,43.66724,0,0,1,11.949,4.40546c.50952.28674,1.04443.61468,1.62964.99725l.68615.444-.80883.14887c-2.40833.43725-5.163.809-8.18372,1.10241l-.2168.021-.10266-.19257a21.42922,21.42922,0,0,0-3.23913-4.49957,20.7672,20.7672,0,0,0-1.99292-1.855l-1.52369-1.01245Zm-11.37207-1.29077.35486.03363a17.288,17.288,0,0,1,10.8844,5.42963,18.73782,18.73782,0,0,1,2.12256,2.72619l.29761.46247-.54993.04034c-4.001.29352-8.303.45917-12.7832.49365h-.32971Zm-.00341,11.72443h.32287c5.06873-.03943,9.8938-.24543,14.33875-.61121l.24218-.02606.08753.21527a19.74285,19.74285,0,0,1,1.38745,5.74829l.032.35645h-16.41076Zm-2.54126-11.72779v9.18585h-.32959c-4.41626-.03106-8.71656-.19757-12.78321-.49694l-.54809-.04035.2976-.46417a18.73332,18.73332,0,0,1,2.12085-2.72278,17.31094,17.31094,0,0,1,10.886-5.428Zm-24.94227,6.69519a35.71189,35.71189,0,0,1,6.71875-3.38037,48.75158,48.75158,0,0,1,6.85315-2.02826l1.86182-.40527-1.43115.84759-.15308.12616a21.21533,21.21533,0,0,0-2.00305,1.85834,21.59381,21.59381,0,0,0-3.23572,4.49878l-.10083.18836-.21533-.02106c-2.56641-.24976-4.95288-.55329-7.09717-.90393-.33789-.05384-.65918-.11029-.977-.17072l-.9082-.16565Zm-8.02868,10.34961a12.53479,12.53479,0,0,1,2.38989-5.27319,17.99936,17.99936,0,0,1,2.2384-2.468l.153-.111.28589.06641c.28943.06884.582.13787.89477.20349,2.53784.53058,5.58179.98468,9.04627,1.348l.41528.0437-.14124.39441a22.3776,22.3776,0,0,0-1.2478,5.87274l-.02185.301H1307.4811Zm51.923,2.9364-.032.35645a19.74285,19.74285,0,0,1-1.38745,5.74829l-.08753.21527-.24218-.02606c-4.445-.36578-9.27-.57178-14.33875-.61121h-.32287v-5.68274Zm-18.95349-.01184v5.6911h-.31958c-5.05029.03449-9.87378.238-14.34216.60462l-.2439.01935-.08911-.21613a19.72483,19.72483,0,0,1-1.38416-5.74158l-.032-.35736ZM1312.6155,549.834l-.28589.06641-.153-.111a17.99936,17.99936,0,0,1-2.2384-2.468,12.53479,12.53479,0,0,1-2.38989-5.27319l-.06726-.37757h14.07983l.02185.301a22.3776,22.3776,0,0,0,1.2478,5.87274l.14124.39441-.41528.0437c-3.46448.36328-6.50843.81738-9.04627,1.348C1313.19753,549.69607,1312.90493,549.76511,1312.6155,549.834Zm16.53344,7.97248a48.75158,48.75158,0,0,1-6.85315-2.02826,35.71249,35.71249,0,0,1-6.71875-3.38037l-.68786-.444.9082-.16565c.31787-.06043.63916-.11689.977-.17072,2.14429-.35065,4.53076-.65417,7.09717-.90393l.21533-.02106.10083.18836a21.59381,21.59381,0,0,0,3.23572,4.49878,21.21533,21.21533,0,0,0,2.00305,1.85834l.15308.12615,1.43115.8476Zm11.37037,1.28656-.35645-.03363a17.311,17.311,0,0,1-10.886-5.428,18.73332,18.73332,0,0,1-2.12085-2.72278l-.2976-.46417.54809-.04035c4.06665-.29937,8.36695-.46588,12.78321-.49695h.32959Zm2.54467-.00336-.00341-9.18591h.32971c4.48022.03448,8.78222.20013,12.7832.49365l.54993.04034-.29761.46247a18.73782,18.73782,0,0,1-2.12256,2.72619,17.288,17.288,0,0,1-10.8844,5.42963Zm24.95069-6.69348c-.58521.38257-1.12012.71051-1.62964.99725a43.66724,43.66724,0,0,1-11.949,4.40546l-1.803.44061,1.52369-1.01245a20.7672,20.7672,0,0,0,1.99292-1.855,21.42948,21.42948,0,0,0,3.23913-4.49957l.10266-.19257.2168.021c3.02075.29345,5.77539.66516,8.18372,1.10241l.80883.14887Zm5.62744-5.0791a18.48273,18.48273,0,0,1-2.23682,2.468l-.12952.11945-.17321-.0387c-1.21924-.28253-2.52771-.539-3.88489-.76184-1.87183-.311-3.95715-.58685-6.20068-.82147l-.4137-.04285.14111-.39019a22.5525,22.5525,0,0,0,1.24781-5.8761l.02368-.30274,14.07983-.00012-.06885.38342A12.56243,12.56243,0,0,1,1373.64211,547.31705Z" transform="translate(-1300.28908 -498.89712)"/>
</svg>
