<svg id="Layer_1" data-name="Layer 1" xmlns="http://www.w3.org/2000/svg" viewBox="0 0 83 83">
  <g>
    <rect width="83" height="83" fill="none"/>
    <path d="M1521.03905,540.39712a13.64651,13.64651,0,0,0-3.06226-8.4613l.00025-.00012a30.025,30.025,0,0,0-13.4812-9.29608,57.87687,57.87687,0,0,0-20.3816-3.53,53.99515,53.99515,0,0,0-25.84558,6.07287,25.46494,25.46494,0,0,0-8.04065,6.7616,13.22158,13.22158,0,0,0,0,16.90613,25.46494,25.46494,0,0,0,8.04065,6.7616,53.99515,53.99515,0,0,0,25.84558,6.07287,57.87687,57.87687,0,0,0,20.3816-3.53,30.025,30.025,0,0,0,13.4812-9.29608l-.00025-.00012A13.64651,13.64651,0,0,0,1521.03905,540.39712Zm-54.61524-1.27349.032-.35736a19.72449,19.72449,0,0,1,1.38415-5.74158l.08911-.21613.2439.01935c4.46838.36664,9.29187.57013,14.34216.60462h.31958v5.6911Zm47.16883-8.23389.12951.11945a18.48273,18.48273,0,0,1,2.23682,2.468,12.56245,12.56245,0,0,1,2.38477,5.26313l.06884.38342-14.07983-.00012-.02368-.30274a22.55289,22.55289,0,0,0-1.2478-5.8761l-.14112-.39019.4137-.04285c2.24353-.23462,4.32886-.51044,6.20068-.82147,1.35718-.22284,2.66565-.47931,3.88489-.76184Zm-16.83972-7.89435a43.66729,43.66729,0,0,1,11.949,4.40546c.50952.28674,1.04443.61468,1.62964.99725l.68616.444-.80884.14887c-2.40833.43725-5.163.809-8.18372,1.10241l-.21679.021-.10267-.19257a21.42886,21.42886,0,0,0-3.23913-4.49957,20.7672,20.7672,0,0,0-1.99292-1.855l-1.52368-1.01245Zm-11.37207-1.29077.35485.03363a17.288,17.288,0,0,1,10.8844,5.42963,18.73782,18.73782,0,0,1,2.12256,2.72619l.29761.46247-.54993.04034c-4.001.29352-8.303.45917-12.7832.49365h-.32971Zm-.00342,11.72443h.32287c5.06873-.03943,9.8938-.24543,14.33875-.61121l.24219-.02606.08752.21527a19.74253,19.74253,0,0,1,1.38745,5.74829l.032.35645h-16.41076Zm-2.54126-11.72779v9.18585h-.32959c-4.41626-.03106-8.71656-.19757-12.78321-.49694l-.54809-.04035.29761-.46417a18.73194,18.73194,0,0,1,2.12085-2.72278,17.31089,17.31089,0,0,1,10.886-5.428Zm-24.94226,6.69519a35.71159,35.71159,0,0,1,6.71875-3.38037,48.75158,48.75158,0,0,1,6.85315-2.02826l1.86181-.40527-1.43115.84759-.15308.12616a21.21533,21.21533,0,0,0-2.00305,1.85834,21.59381,21.59381,0,0,0-3.23572,4.49878l-.10083.18836-.21533-.02106c-2.5664-.24976-4.95288-.55329-7.09717-.90393-.33789-.05384-.65918-.11029-.977-.17072l-.9082-.16565Zm-8.02869,10.34961a12.53491,12.53491,0,0,1,2.38989-5.27319,17.99943,17.99943,0,0,1,2.23841-2.468l.15295-.111.28589.06641c.28943.06884.582.13787.89477.20349,2.53785.53058,5.58179.98468,9.04627,1.348l.41528.0437-.14123.39441a22.37721,22.37721,0,0,0-1.24781,5.87274l-.02185.301H1449.798Zm51.923,2.9364-.032.35645a19.74253,19.74253,0,0,1-1.38745,5.74829l-.08752.21527-.24219-.02606c-4.445-.36578-9.27-.57178-14.33875-.61121h-.32287v-5.68274Zm-18.95349-.01184v5.6911h-.31958c-5.05029.03449-9.87378.238-14.34216.60462l-.2439.01935-.08911-.21613a19.72449,19.72449,0,0,1-1.38415-5.74158l-.032-.35736Zm-27.90234,8.16333-.28589.06641-.15295-.111a17.99943,17.99943,0,0,1-2.23841-2.468,12.53491,12.53491,0,0,1-2.38989-5.27319l-.06726-.37757h14.07983l.02185.301a22.37721,22.37721,0,0,0,1.24781,5.87274l.14123.39441-.41528.0437c-3.46448.36328-6.50842.81738-9.04627,1.348C1455.51439,549.69607,1455.22179,549.76511,1454.93236,549.834Zm16.53345,7.97248a48.75158,48.75158,0,0,1-6.85315-2.02826,35.71219,35.71219,0,0,1-6.71875-3.38037l-.68787-.444.9082-.16565c.31787-.06043.63916-.11689.977-.17072,2.14429-.35065,4.53077-.65417,7.09717-.90393l.21533-.02106.10083.18836a21.59381,21.59381,0,0,0,3.23572,4.49878,21.21533,21.21533,0,0,0,2.00305,1.85834l.15308.12615,1.43115.8476Zm11.37036,1.28656-.35645-.03363a17.31094,17.31094,0,0,1-10.886-5.428,18.73194,18.73194,0,0,1-2.12085-2.72278l-.29761-.46417.54809-.04035c4.06665-.29937,8.367-.46588,12.78321-.49695h.32959Zm2.54468-.00336-.00342-9.18591h.32971c4.48022.03448,8.78223.20013,12.7832.49365l.54993.04034-.29761.46247a18.73782,18.73782,0,0,1-2.12256,2.72619,17.288,17.288,0,0,1-10.8844,5.42963Zm24.95068-6.69348c-.58521.38257-1.12012.71051-1.62964.99725a43.66729,43.66729,0,0,1-11.949,4.40546l-1.803.44061,1.52368-1.01245a20.7672,20.7672,0,0,0,1.99292-1.855,21.42912,21.42912,0,0,0,3.23913-4.49957l.10267-.19257.21679.021c3.02075.29345,5.77539.66516,8.18372,1.10241l.80884.14887Zm5.62744-5.0791a18.48273,18.48273,0,0,1-2.23682,2.468l-.12951.11945-.17322-.0387c-1.21924-.28253-2.52771-.539-3.88489-.76184-1.87182-.311-3.95715-.58685-6.20068-.82147l-.4137-.04285.14112-.39019a22.55289,22.55289,0,0,0,1.2478-5.8761l.02368-.30274,14.07983-.00012-.06884.38342A12.56245,12.56245,0,0,1,1515.959,547.31705Z" transform="translate(-1442.60594 -498.89712)"/>
  </g>
</svg>
