<svg xmlns="http://www.w3.org/2000/svg" width="195" height="195" viewBox="0 0 195 195">
  <g id="abb" transform="translate(8414 -2631)">
    <g id="Group_7016" data-name="Group 7016" transform="translate(0.21 28.41)">
      <path id="Path_16382" data-name="Path 16382" d="M547.446,213.816V196.5H542.51l-6.047,17.317Z" transform="translate(-8892.303 2486.091)" fill="#bab3ab"/>
      <path id="Path_16383" data-name="Path 16383" d="M546.732,213.816h11.059L551.747,196.5h-5.015Z" transform="translate(-8890.835 2486.091)" fill="#bab3ab"/>
      <path id="Path_16384" data-name="Path 16384" d="M558.055,212.311H546.732V222.7H552.8l2.44,7.11h8.924l-6.11-17.508Z" transform="translate(-8890.835 2488.35)" fill="#bab3ab"/>
      <path id="Path_16385" data-name="Path 16385" d="M548.239,212.31H537l-6.11,17.51h8.866l2.5-7.114h5.982Z" transform="translate(-8893.1 2488.351)" fill="#bab3ab"/>
      <rect id="Rectangle_2242" data-name="Rectangle 2242" width="10.302" height="17.317" transform="translate(-8324.227 2682.591)" fill="#bab3ab"/>
      <path id="Path_16386" data-name="Path 16386" d="M573.795,196.5v17.317h10.758a10.645,10.645,0,0,0-3.542-2.3,8.014,8.014,0,0,0-3.919-15.015h-3.3Z" transform="translate(-8886.966 2486.091)" fill="#bab3ab"/>
      <path id="Path_16387" data-name="Path 16387" d="M585.25,212.31H573.794v17.508h3.3a10.65,10.65,0,0,0,10.642-10.657v-.016a10.522,10.522,0,0,0-2.486-6.835Z" transform="translate(-8886.966 2488.351)" fill="#bab3ab"/>
      <rect id="Rectangle_2243" data-name="Rectangle 2243" width="10.302" height="17.508" transform="translate(-8324.227 2700.661)" fill="#bab3ab"/>
      <rect id="Rectangle_2244" data-name="Rectangle 2244" width="10.308" height="17.317" transform="translate(-8296.513 2682.591)" fill="#bab3ab"/>
      <path id="Path_16388" data-name="Path 16388" d="M598.047,196.5v17.317h10.742a10.7,10.7,0,0,0-3.539-2.3,8.015,8.015,0,0,0-3.917-15.015h-3.286Z" transform="translate(-8883.498 2486.091)" fill="#bab3ab"/>
      <path id="Path_16389" data-name="Path 16389" d="M598.047,212.31v17.508h3.286a10.658,10.658,0,0,0,8.154-17.508Z" transform="translate(-8883.498 2488.351)" fill="#bab3ab"/>
      <rect id="Rectangle_2245" data-name="Rectangle 2245" width="10.308" height="17.508" transform="translate(-8296.513 2700.66)" fill="#bab3ab"/>
    </g>
    <rect id="Rectangle_2301" data-name="Rectangle 2301" width="195" height="195" transform="translate(-8414 2631)" fill="none"/>
  </g>
</svg>
