<svg xmlns="http://www.w3.org/2000/svg" width="195" height="195" viewBox="0 0 195 195">
  <g id="adastra" transform="translate(8154 -3193)">
    <g id="Group_7025" data-name="Group 7025" transform="translate(-0.032 10.801)">
      <path id="Path_16580" data-name="Path 16580" d="M727.082,728.958h3.878L734,721.72h-3.878Z" transform="translate(-8865.051 2561.18)" fill="#bab3ab"/>
      <path id="Path_16581" data-name="Path 16581" d="M739.953,715.374l-6.085,14.492h3.878l6.085-14.492Z" transform="translate(-8864.08 2560.273)" fill="#bab3ab"/>
      <path id="Path_16582" data-name="Path 16582" d="M749.781,709.034l-9.129,21.738h3.878l9.129-21.738Z" transform="translate(-8863.11 2559.367)" fill="#bab3ab"/>
      <path id="Path_16583" data-name="Path 16583" d="M770.463,709.126H762.43v21.585h8.033c6.771,0,11.45-4.718,11.45-10.823s-4.679-10.762-11.45-10.762m0,18.131h-4.246V712.58h4.246a7.083,7.083,0,0,1,7.478,7.37c0,4.254-2.955,7.307-7.478,7.307" transform="translate(-8859.997 2559.38)" fill="#bab3ab"/>
      <path id="Path_16584" data-name="Path 16584" d="M809.39,718.23c-4.125-.987-5.109-1.727-5.109-3.423,0-1.448,1.293-2.59,3.508-2.59a9.771,9.771,0,0,1,5.847,2.221l2.031-2.868a11.922,11.922,0,0,0-7.817-2.713c-4.279,0-7.355,2.529-7.355,6.29,0,4.008,2.584,5.365,7.171,6.475,4,.926,4.861,1.758,4.861,3.331,0,1.665-1.477,2.743-3.815,2.743a9.907,9.907,0,0,1-6.8-2.8l-2.278,2.713a13.257,13.257,0,0,0,8.987,3.453c4.524,0,7.694-2.4,7.694-6.475,0-3.608-2.37-5.242-6.924-6.352" transform="translate(-8854.678 2559.342)" fill="#bab3ab"/>
      <path id="Path_16585" data-name="Path 16585" d="M815.827,712.643h6.833v18.069h3.816V712.643h6.832v-3.516H815.827Z" transform="translate(-8852.363 2559.38)" fill="#bab3ab"/>
      <path id="Path_16586" data-name="Path 16586" d="M851.379,715.972c0-4.226-3.046-6.846-8-6.846h-9.6v21.585h3.787v-7.524H842.3l5.294,7.524h4.462l-5.818-8.171a6.46,6.46,0,0,0,5.14-6.568m-13.817,3.853V712.58h5.509c2.8,0,4.461,1.233,4.461,3.608,0,2.219-1.722,3.637-4.43,3.637Z" transform="translate(-8849.797 2559.38)" fill="#bab3ab"/>
      <path id="Path_16587" data-name="Path 16587" d="M751.835,713.651l3.765,8.967h-7.531l-1.476,3.516h10.483l1.948,4.638H762.9l-9.129-21.738Z" transform="translate(-8862.261 2559.367)" fill="#bab3ab"/>
      <path id="Path_16588" data-name="Path 16588" d="M788.292,709.034l-9.128,21.738h3.877l1.948-4.638h10.483l1.949,4.638H801.3l-9.129-21.738Zm-1.826,13.584,3.765-8.967L794,722.618Z" transform="translate(-8857.604 2559.367)" fill="#bab3ab"/>
      <path id="Path_16589" data-name="Path 16589" d="M863.6,709.034h-3.877L850.6,730.772h3.878l1.948-4.638h10.483l1.949,4.638h3.877Zm-5.7,13.584,3.766-8.967,3.766,8.967Z" transform="translate(-8847.392 2559.367)" fill="#bab3ab"/>
    </g>
    <rect id="Rectangle_2312" data-name="Rectangle 2312" width="195" height="195" transform="translate(-8154 3193)" fill="none"/>
  </g>
</svg>
