<svg xmlns="http://www.w3.org/2000/svg" width="195" height="195" viewBox="0 0 195 195">
  <g fill="#bab3ab" data-name="Group 7025">
    <path d="M15.999 107.939h3.878l3.04-7.238h-3.878Z" data-name="Path 16580"/>
    <path d="m29.841 93.448-6.085 14.492h3.878l6.085-14.492Z" data-name="Path 16581"/>
    <path d="M40.639 86.202 31.51 107.94h3.878l9.129-21.738Z" data-name="Path 16582"/>
    <path d="M64.434 86.307h-8.033v21.585h8.033c6.771 0 11.45-4.718 11.45-10.823s-4.679-10.762-11.45-10.762m0 18.131h-4.246V89.761h4.246a7.083 7.083 0 0 1 7.478 7.37c0 4.254-2.955 7.307-7.478 7.307" data-name="Path 16583"/>
    <path d="M108.68 95.373c-4.125-.987-5.109-1.727-5.109-3.423 0-1.448 1.293-2.59 3.508-2.59a9.771 9.771 0 0 1 5.847 2.221l2.031-2.868A11.922 11.922 0 0 0 107.14 86c-4.279 0-7.355 2.529-7.355 6.29 0 4.008 2.584 5.365 7.171 6.475 4 .926 4.861 1.758 4.861 3.331 0 1.665-1.477 2.743-3.815 2.743a9.907 9.907 0 0 1-6.8-2.8l-2.278 2.713a13.257 13.257 0 0 0 8.987 3.453c4.524 0 7.694-2.4 7.694-6.475 0-3.608-2.37-5.242-6.924-6.352" data-name="Path 16584"/>
    <path d="M117.432 89.824h6.833v18.069h3.816V89.824h6.832v-3.516h-17.481Z" data-name="Path 16585"/>
    <path d="M155.55 93.153c0-4.226-3.046-6.846-8-6.846h-9.6v21.585h3.787v-7.524h4.734l5.294 7.524h4.462l-5.818-8.171a6.46 6.46 0 0 0 5.14-6.568m-13.817 3.853v-7.245h5.509c2.8 0 4.461 1.233 4.461 3.608 0 2.219-1.722 3.637-4.43 3.637Z" data-name="Path 16586"/>
    <path d="m43.542 90.819 3.765 8.967h-7.531l-1.476 3.516h10.483l1.948 4.638h3.876l-9.129-21.738Z" data-name="Path 16587"/>
    <path d="m84.656 86.202-9.128 21.738h3.877l1.948-4.638h10.483l1.949 4.638h3.879l-9.129-21.738ZM82.83 99.786l3.765-8.967 3.769 8.967Z" data-name="Path 16588"/>
    <path d="M170.176 86.202h-3.877l-9.123 21.738h3.878l1.948-4.638h10.483l1.949 4.638h3.877Zm-5.7 13.584 3.766-8.967 3.766 8.967Z" data-name="Path 16589"/>
  </g>
  <path fill="none" d="M0 0h195v195H0z" data-name="Rectangle 2312"/>
</svg>
