<svg xmlns="http://www.w3.org/2000/svg" width="195" height="195" viewBox="0 0 195 195">
  <g fill="#bab3ab" fill-rule="evenodd" data-name="Group 7024">
    <path d="m136.524 99.707-25.49.013c7.036-9.9 17.143-15.493 30.237-17.479a57.952 57.952 0 0 1-4.749 17.467m-30.473.027H85.488C85.027 86.505 88.695 73.08 95.775 65c7.193 7.87 10.914 21.239 10.274 34.733Zm-25.614-.041-25 .014a57.153 57.153 0 0 1-4.43-17.519c12.889 2.294 22.827 7.578 29.436 17.5Zm51.24 9.746-71.609.027a31.266 31.266 0 0 1-2.734-4.692h77.079a25.551 25.551 0 0 1-2.734 4.663Zm-8.26 9.024-55.408-.027a21.5 21.5 0 0 1-4.58-4.195h64.639a37.4 37.4 0 0 1-4.65 4.22Zm-23.419 3.86-8.706.014a29.8 29.8 0 0 0 4.562 6.721 31.894 31.894 0 0 0 4.146-6.735Zm1.818.027-.944 5.8a51.814 51.814 0 0 0 16.758-5.8Zm-12.079-.013H73.894a50.731 50.731 0 0 0 16.578 6.178Z" data-name="Path 16455"/>
    <path d="M138.922 79.713a4.089 4.089 0 1 1 4.111-4.1 4.088 4.088 0 0 1-4.111 4.1m0-9.025a.174.174 0 0 0-.08-.013 4.9 4.9 0 0 0-.17 9.8h.25a4.894 4.894 0 1 0 0-9.788Z" data-name="Path 16456"/>
    <path d="M138.925 75.201h-1.045v-1.32h1.042a4.731 4.731 0 0 1 .583.015.608.608 0 0 1 .416.208.517.517 0 0 1 .138.416.863.863 0 0 1-.1.416.749.749 0 0 1-.326.209 4.757 4.757 0 0 1-.721.055m1.429 1.194a3.322 3.322 0 0 0-.568-.457 1.651 1.651 0 0 0 1.068-.513 1.37 1.37 0 0 0 .35-.958 1.777 1.777 0 0 0-.251-.862 1.227 1.227 0 0 0-.638-.488 3.375 3.375 0 0 0-1.248-.163h-2.223v5.345h1.04v-2.237h.223a1.942 1.942 0 0 1 .555.056.994.994 0 0 1 .264.181c.013.015.041.027.054.042.087.126.279.373.571.79l.764 1.166h1.29l-.639-1.028a5.39 5.39 0 0 0-.6-.872Z" data-name="Path 16457"/>
  </g>
  <path fill="none" d="M0 0h195v195H0z" data-name="Rectangle 2311"/>
</svg>
