<svg xmlns="http://www.w3.org/2000/svg" width="195.359" height="195" viewBox="0 0 195.359 195">
  <g id="ceitec" transform="translate(8154 -3603)">
    <g id="Group_7036" data-name="Group 7036" transform="translate(-0.006 5.527)">
      <path id="Path_16571" data-name="Path 16571" d="M745.985,1080.312c-.166,0-.333.033-.5.033l-.761-2.349a2.873,2.873,0,0,0,1.125-2.317,2.9,2.9,0,0,0-5.492-1.324l-7.677-1.025a2.634,2.634,0,0,0-5.195.629v.065l-6.552,2.25a2.729,2.729,0,0,0-2.118-.959,2.8,2.8,0,0,0-2.813,2.779,2.837,2.837,0,0,0,1.126,2.25l-1.159,3.707a3.512,3.512,0,0,0-2.911,3.44,3.468,3.468,0,0,0,3.475,3.441,3.422,3.422,0,0,0,2.647-1.224l6.452,1.853a4.952,4.952,0,0,0,9.86-.662,1.118,1.118,0,0,0-.033-.33l7.776-3.74a3.838,3.838,0,1,0,2.748-6.518m-3.243-6.849a2.018,2.018,0,1,1-2.019,2.017,2,2,0,0,1,2.019-2.017M730,1071.874a1.936,1.936,0,1,1,0,3.871,1.936,1.936,0,0,1,0-3.871m-13.4,5.989a1.952,1.952,0,1,1,1.951,1.952,1.962,1.962,0,0,1-1.951-1.952m-.4,11.779a2.515,2.515,0,1,1,2.515-2.514,2.513,2.513,0,0,1-2.515,2.514m13.931,4.6a3.739,3.739,0,0,1,0-7.478,3.739,3.739,0,1,1,0,7.478m4.6-5.956a4.964,4.964,0,0,0-4.2-2.316,4.914,4.914,0,0,0-4.566,3.077l-5.99-1.323a.649.649,0,0,0,.033-.232,3.416,3.416,0,0,0-1.886-3.077l.894-3.508a2.819,2.819,0,0,0,2.614-2.813,2.225,2.225,0,0,0-.066-.463l6.221-2.448a2.663,2.663,0,0,0,2.316,1.39,2.633,2.633,0,0,0,2.581-2.019l7.346,1.29a2.95,2.95,0,0,0,2.715,2.747l.627,2.779a3.752,3.752,0,0,0-1.224,2.78,4.1,4.1,0,0,0,.1.894Zm10.953-1.886a2.664,2.664,0,1,1,0-5.327,2.664,2.664,0,1,1,0,5.327" transform="translate(-8867.055 2611.161)" fill="#bab3ab"/>
      <path id="Path_16572" data-name="Path 16572" d="M842.969,1074.119h-22.4a.889.889,0,0,0-.894.894.918.918,0,0,0,.894.926h10.29v12.21a.91.91,0,0,0,1.82,0v-12.21h10.291a.919.919,0,0,0,.894-.926.89.89,0,0,0-.894-.894m58.965,13.136H885.258a5.658,5.658,0,1,1,0-11.317h16.676a.918.918,0,0,0,.894-.926.889.889,0,0,0-.894-.894H885.258a7.462,7.462,0,0,0,0,14.924h16.676a.894.894,0,1,0,0-1.787m-142.317-11.317h16.677a.947.947,0,0,0,.927-.926.919.919,0,0,0-.927-.894H759.617a7.462,7.462,0,0,0,0,14.924h16.677a.894.894,0,1,0,0-1.787H759.617a5.662,5.662,0,0,1-3.969-9.661,5.607,5.607,0,0,1,3.969-1.655m111.875,0a.918.918,0,0,0,.893-.926.889.889,0,0,0-.893-.894h-22.6a.889.889,0,0,0-.893.894v13.136a.89.89,0,0,0,.893.894h22.6a.894.894,0,0,0,0-1.787H849.818v-4.732h21.674a.91.91,0,0,0,0-1.82H849.818v-4.765Zm-64.756,0a.919.919,0,0,0,.895-.926.89.89,0,0,0-.895-.894h-22.6a.889.889,0,0,0-.893.894v13.136a.89.89,0,0,0,.893.894h22.6a.894.894,0,1,0,0-1.787H785.03v-4.732h21.706a.91.91,0,0,0,0-1.82H785.03v-4.765Zm8.439-1.82a.918.918,0,0,0-.927.894v13.136a.919.919,0,0,0,.927.894.89.89,0,0,0,.893-.894v-13.136a.889.889,0,0,0-.893-.894" transform="translate(-8861.463 2611.562)" fill="#bab3ab"/>
    </g>
    <rect id="Rectangle_2320" data-name="Rectangle 2320" width="195" height="195" transform="translate(-8154 3603)" fill="none"/>
  </g>
</svg>
