<svg xmlns="http://www.w3.org/2000/svg" width="195" height="195" viewBox="0 0 195 195">
  <g fill="#bab3ab" data-name="Group 7035">
    <path d="M120.804 93.331a4.638 4.638 0 0 0-4.488 4.925 3.536 3.536 0 0 0 3.655 3.853 4.638 4.638 0 0 0 4.488-4.925 3.538 3.538 0 0 0-3.655-3.853" data-name="Path 16557"/>
    <path d="M36.996 127.188h120.379V67.001H36.996Zm36.054-25.079a3.4 3.4 0 0 0 2.979-1.51h7.428c-.635 3.694-3.932 8.182-10.407 8.182s-10.8-3.734-10.8-10.009c0-7.308 5.164-12.115 11.8-12.115 7.545 0 10.127 4.567 10.326 8.263H76.87a2.738 2.738 0 0 0-2.82-1.59c-2.662 0-4.051 2.383-4.051 5.044 0 2.224 1.111 3.734 3.056 3.734m29.716 6.116h-5.245c-5.4 0-8.619-2.3-7.467-8.022l1.271-6.673h-5.044l1.27-6.316h5.005l1.391-7.188h7.744l-1.391 7.188h6.554l-1.231 6.316h-6.554l-.953 4.925c-.435 2.224.318 2.978 2.542 2.978h3.416Zm18.75.4c-3.734 0-5.721-1.669-6.711-3.178l-2.066 10.447h-7.588l5.6-28.677h7.7l-.555 2.781a7.144 7.144 0 0 1 6.037-3.176c4.765 0 8.181 3.614 8.181 9.651 0 7.426-4.885 12.153-10.6 12.153" data-name="Path 16558"/>
  </g>
  <path fill="none" d="M0 0h195v195H0z" data-name="Rectangle 2321"/>
</svg>
