<svg xmlns="http://www.w3.org/2000/svg" width="195" height="195" viewBox="0 0 195 195">
  <g fill="#bab3ab" data-name="Group 7020">
    <path d="M53.073 94.706a4.573 4.573 0 0 0 4.775 3.74 4.328 4.328 0 0 0 4.1-2.3l6.307 1.622a10.4 10.4 0 0 1-3.377 4.235 11.175 11.175 0 0 1-7.163 2.477c-6.8 0-11.713-4.73-11.713-11.351s4.595-11.128 11.352-11.128c6.892 0 11.533 4.73 11.533 11.848v.856Zm8.829-3.649a4.446 4.446 0 0 0-4.5-3.736 4.374 4.374 0 0 0-4.37 3.736Z" data-name="Path 16471"/>
    <path d="M146.138 93.488c0 6.171-5.181 10.991-11.759 10.991-6.757 0-11.666-4.685-11.666-11.216 0-6.622 4.82-11.263 11.757-11.263 6.757 0 11.668 4.82 11.668 11.488m-16.579.537c0 3.063 1.983 5.181 4.866 5.181a4.723 4.723 0 0 0 4.821-5.046c0-3.334-1.8-7.474-4.776-7.474s-4.91 4.23-4.91 7.339" data-name="Path 16472"/>
    <path d="M115.486 84.053a14.972 14.972 0 0 0-.952 1.728 11.737 11.737 0 0 0-.926 2.6s.121-1.888.334-3.525a7.643 7.643 0 0 0-6.356-2.833c-6.443 0-10.767 4.595-10.767 11.442a11.709 11.709 0 0 0 2.388 7.478 10.033 10.033 0 0 0 7.613 3.558 9.182 9.182 0 0 0 7.208-3.109v1.037c0 3.648-2.072 5.811-5.586 5.811a8.178 8.178 0 0 1-6.262-2.837l-4.144 4.234a15.189 15.189 0 0 0 10.767 4.28 12.809 12.809 0 0 0 9.1-3.333c2.028-2.028 2.793-4.6 2.793-9.192V91.109a16.977 16.977 0 0 1 .9-5.324 11.952 11.952 0 0 1 .716-1.732Zm-2.449 12.793a5.29 5.29 0 0 1-3.875 1.623 4.972 4.972 0 0 1-5.045-5.316 4.789 4.789 0 0 1 4.955-5.091c3.063 0 4.864 2.163 4.864 5.765a4.554 4.554 0 0 1-.9 3.019" data-name="Path 16473"/>
    <path d="M89.521 84.053a14.972 14.972 0 0 0-.952 1.728 11.733 11.733 0 0 0-.926 2.6s.121-1.888.334-3.525a7.643 7.643 0 0 0-6.356-2.833c-6.443 0-10.767 4.595-10.767 11.442a11.71 11.71 0 0 0 2.388 7.478 10.033 10.033 0 0 0 7.613 3.558 9.182 9.182 0 0 0 7.208-3.109v1.037c0 3.648-2.072 5.811-5.586 5.811a8.178 8.178 0 0 1-6.262-2.837l-4.144 4.243a15.185 15.185 0 0 0 10.766 4.28 12.809 12.809 0 0 0 9.1-3.333c2.028-2.028 2.793-4.6 2.793-9.192V91.109a16.977 16.977 0 0 1 .9-5.324 12.083 12.083 0 0 1 .715-1.732Zm-2.45 12.793a5.29 5.29 0 0 1-3.875 1.623 4.972 4.972 0 0 1-5.045-5.316 4.789 4.789 0 0 1 4.955-5.091c3.063 0 4.864 2.163 4.864 5.765a4.555 4.555 0 0 1-.9 3.019" data-name="Path 16474"/>
    <path d="M148.442 82.611a2.2 2.2 0 1 1-1.519-.609 2.067 2.067 0 0 1 1.519.609m-.327 2.743a1.635 1.635 0 0 0 .487-1.2 1.668 1.668 0 0 0-.487-1.22 1.68 1.68 0 0 0-2.373 0 1.668 1.668 0 0 0-.487 1.22 1.678 1.678 0 0 0 2.86 1.2m-.7-.946.545.653h-.577l-.493-.6h-.271v.6h-.491v-1.946h.941a.86.86 0 0 1 .578.182.59.59 0 0 1 .213.471.637.637 0 0 1-.448.641m-.353-.363c.221 0 .331-.09.331-.269s-.111-.245-.331-.245h-.44v.513Z" data-name="Path 16475"/>
  </g>
  <path fill="none" d="M0 0h195v195H0z" data-name="Rectangle 2304"/>
</svg>
