<svg xmlns="http://www.w3.org/2000/svg" width="195" height="195" viewBox="0 0 195 195">
  <g data-name="Group 7023">
    <path fill="#bab3ab" d="M96.534 97.733a5.375 5.375 0 0 1-1.87-3.641 5.9 5.9 0 0 1 3.982-6.481 10.111 10.111 0 0 1 7.459.21 5.511 5.511 0 0 1 3.443 5.243c.018.487-.123.721-.651.7-.8-.029-1.6-.017-2.4 0-.387.006-.591-.154-.567-.542a2.843 2.843 0 0 0-3.153-2.927 11.594 11.594 0 0 0-2.21.079 2.841 2.841 0 0 0-2.344 3.141 2.606 2.606 0 0 0 2.8 2.522 22.37 22.37 0 0 1 3.739.235 5.8 5.8 0 0 1 4.428 3.164.786.786 0 0 0 .557.433 22.006 22.006 0 0 0 4.237.725c.521.043.668-.154.665-.661-.017-3.9-.01-7.8-.009-11.7 0-.81 0-.812.824-.815.678 0 1.357.032 2.032-.009.587-.035.791.175.784.769-.025 2.36.009 4.722-.022 7.081-.008.617.168.819.8.808a199.26 199.26 0 0 1 6.281 0c.582.008.784-.153.776-.759-.032-2.3-.014-4.6-.014-6.9 0-.991 0-.991.962-.992h1.6c1.057 0 1.058 0 1.058 1.031v7.7c0 .163 0 .328.006.493.008.248.106.383.385.333a8.6 8.6 0 0 1 4.111.509c.53.162.681.027.678-.518-.009-1.271-.026-2.543.048-3.815a5.735 5.735 0 0 1 4.246-5.563 10.05 10.05 0 0 1 7.668.482 5.472 5.472 0 0 1 3.1 4.712 22.443 22.443 0 0 1 .07 2.335c-.006.387.1.53.505.389q2.119-.744 4.25-1.46c.389-.129.392-.409.391-.73 0-1.7.024-3.408-.015-5.111-.014-.633.207-.8.817-.8 2.422.031 4.845-.01 7.266.023a6.37 6.37 0 0 1 4.939 2.253.9.9 0 0 0 .8.343c1.065-.047 2.132-.074 3.2-.106a4.589 4.589 0 0 1 .615.013c.623.07 1 .461.973.981a.929.929 0 0 1-1.009.871c-.9.028-1.806.038-2.709.017-.52-.011-.707.179-.625.7a5.789 5.789 0 0 1-4.408 6.485 12.234 12.234 0 0 1-2.684.286c-.821.03-1.642.007-2.463.007-1.055 0-1.056 0-1.056 1.024v6.713c0 .906 0 .906-.935.909-.657 0-1.316-.025-1.97.007-.562.029-.746-.186-.743-.75.021-3.448.01-6.9.01-10.345 0-.165-.011-.329 0-.493.03-.4-.155-.447-.488-.331-1.394.485-2.789.973-4.192 1.434-.4.133-.458.4-.464.754-.022 1.353.034 2.708-.043 4.062a5.919 5.919 0 0 1-5.173 5.715 10.154 10.154 0 0 1-6.617-.658 5.528 5.528 0 0 1-3.23-5.005 52.584 52.584 0 0 1-.071-2.213.61.61 0 0 0-.536-.689c-.9-.215-1.772-.52-2.691-.646a4.175 4.175 0 0 0-.426-.05c-1.344-.053-1.52.118-1.521 1.445v6.96c0 .768-.034.8-.8.8-.719 0-1.438-.018-2.156.007-.509.018-.678-.186-.673-.689.018-2.113.008-4.228.007-6.342 0-.744 0-.745-.713-.544a55.535 55.535 0 0 1-6.294 1.437c-.67.107-.861.381-.837 1.04.051 1.456 0 2.915.023 4.372.008.521-.158.752-.705.728a25.195 25.195 0 0 0-2.216 0c-.576.027-.739-.208-.727-.759.032-1.354-.01-2.71.021-4.064.011-.521-.121-.735-.683-.719a14.205 14.205 0 0 1-3.768-.513c-.382-.094-.52-.017-.528.387a5.722 5.722 0 0 1-4.563 5.622 11.189 11.189 0 0 1-6.9-.315 5.669 5.669 0 0 1-3.733-5.123c-.067-.759.023-.852.789-.854s1.519.006 2.279 0c.342 0 .511.112.55.489a2.825 2.825 0 0 0 2.756 2.908 8.576 8.576 0 0 0 3-.072c2.062-.463 2.451-2.312 2.078-3.89a.68.68 0 0 0-.57-.493 29 29 0 0 0-9.507-.9 76.411 76.411 0 0 0-9.235 1.407c-.858.167-.858.169-.858 1.066 0 1.7-.015 3.407.008 5.111.008.538-.191.733-.721.712a32.647 32.647 0 0 0-2.278 0c-.481.013-.647-.187-.641-.661.019-1.5-.008-3 .015-4.5.007-.487-.11-.619-.6-.447a33.538 33.538 0 0 0-3.291 1.377.9.9 0 0 1-1.263-.389.933.933 0 0 1 .458-1.246c.105-.063.217-.115.328-.171a21.762 21.762 0 0 1 3.718-1.462.749.749 0 0 0 .65-.855q-.036-4.156 0-8.313c0-.544-.166-.709-.7-.7-1.642.03-3.285 0-4.926.019-.507.007-.7-.167-.676-.677.032-.614.029-1.232 0-1.847-.022-.478.157-.656.64-.647 1.169.024 2.34.007 3.51.007 3.716 0 7.43.011 11.146-.011.6 0 .871.143.814.789a11.88 11.88 0 0 0 0 1.724c.031.523-.193.669-.686.662-1.6-.021-3.2.011-4.8-.017-.537-.01-.713.157-.708.7q.036 3.726 0 7.451c0 .48.122.6.6.508a79.512 79.512 0 0 1 8.864-1.4c.385-.033.773-.049 1.326-.082m42.05-2.535c0 .7.03 1.4-.009 2.09-.034.6.2.771.784.768a24.192 24.192 0 0 0 6.465-1.089.62.62 0 0 0 .518-.7c-.016-1 .011-2.009-.017-3.014a2.749 2.749 0 0 0-2.233-2.788 6.58 6.58 0 0 0-2.988-.047 2.817 2.817 0 0 0-2.513 3.06c-.011.575 0 1.149 0 1.724m7.738 5.562h.013c0-.472-.022-.944.006-1.414.029-.489-.126-.6-.607-.459a24.111 24.111 0 0 1-6.589 1.033c-.433 0-.583.179-.568.59.022.574-.011 1.149.027 1.72a2.629 2.629 0 0 0 1.812 2.466 5.956 5.956 0 0 0 3.86.093 2.7 2.7 0 0 0 2.045-2.678c.019-.449 0-.9 0-1.351m14.976-4.708v-.006c.635 0 1.272.021 1.906 0a2.7 2.7 0 0 0 2.568-3.159c-.042-.27-.115-.431-.426-.346a74.788 74.788 0 0 0-6.21 1.958c-.606.223-.3.821-.3 1.249 0 .394.371.3.618.3.615.013 1.23 0 1.845 0m2.875-5.139a2.089 2.089 0 0 0-1.214-.338c-.9 0-1.8-.017-2.707 0-1.67.032-1.423-.338-1.445 1.53v.122c.006.269.12.371.393.283 1.615-.523 3.231-1.041 4.969-1.6m-42.485 8.5-.025-.134h-2.944c-.3 0-.454.137-.446.45.009.38.27.3.48.258.98-.184 1.957-.383 2.935-.575m-67.816-1.743v3.879c0 3.523-1.69 5.652-5.145 6.412a10.713 10.713 0 0 1-5.535-.2 5.8 5.8 0 0 1-4.39-5.786c-.05-2.872-.074-5.748 0-8.619.1-3.783 2.516-5.693 6.041-6.177a10.538 10.538 0 0 1 5.035.485 5.753 5.753 0 0 1 3.988 5.629c.01 1.457 0 2.915 0 4.372m-3.636.01c0-1.437.013-2.873 0-4.31a2.838 2.838 0 0 0-2.379-2.937 7.8 7.8 0 0 0-2.327-.107 3 3 0 0 0-3.091 3.157 274.18 274.18 0 0 0 0 8.312 2.925 2.925 0 0 0 2.385 3.086 6.864 6.864 0 0 0 2.325.133c2.136-.232 3.087-1.309 3.092-3.454V97.68m22.824.355c-.063 1.325.107 3.008-.089 4.687a5.393 5.393 0 0 1-3.19 4.58 9.921 9.921 0 0 1-8.524.014 5.4 5.4 0 0 1-3.264-5.162c-.048-2.852-.016-5.706-.014-8.559a5.877 5.877 0 0 1 4.879-6.194 10.914 10.914 0 0 1 5.3.006 5.958 5.958 0 0 1 4.9 6.146c.024 1.375 0 2.751 0 4.482m-11.447-.429c0 1.478-.017 2.956 0 4.432a2.73 2.73 0 0 0 2.054 2.743 6.018 6.018 0 0 0 2.919.169c1.814-.32 2.67-1.082 2.767-2.905a74.128 74.128 0 0 0-.019-8.916 2.68 2.68 0 0 0-2.462-2.72 6.472 6.472 0 0 0-2.63-.022 2.888 2.888 0 0 0-2.637 3.217c-.007 1.334 0 2.668 0 4m-39.6 9.465c0 .841 0 .844.866.846h1.969c.759 0 .793-.035.793-.807q.005-3.477 0-6.956c0-.878 0-.88.9-.881 2.462 0 4.925-.01 7.386.007.544 0 .793-.155.745-.739-.045-.551-.008-1.108-.009-1.662 0-.816-.006-.823-.824-.823q-3.662-.005-7.325 0c-.868 0-.869 0-.869-.894v-3.693c0-.89 0-.893.864-.893 2.585 0 5.171-.015 7.756.01.576.007.77-.2.741-.749a13.88 13.88 0 0 1 0-1.661c.04-.6-.2-.77-.786-.767q-5.725.031-11.449 0c-.589 0-.776.173-.772.768.025 3.159.013 6.319.013 9.479v9.418" data-name="Path 16391"/>
  </g>
  <path fill="none" d="M0 0h195v195H0z" data-name="Rectangle 2310"/>
</svg>
