<svg xmlns="http://www.w3.org/2000/svg" width="195" height="195" viewBox="0 0 195 195">
  <g fill="#bab3ab" data-name="Group 7026">
    <path d="M160.052 119.995h.747v-5.573l4.389 5.573h.61v-6.8h-.747v5.446l-4.28-5.446h-.719Zm-7.116-.592a2.7 2.7 0 0 1-2.68-2.806v-.019a2.67 2.67 0 0 1 2.661-2.787 2.7 2.7 0 0 1 2.679 2.806v.019a2.67 2.67 0 0 1-2.66 2.787m-.019.709a3.444 3.444 0 0 0 3.476-3.515c.009-.009.009-.009 0-.019a3.466 3.466 0 1 0-6.932.019v.019a3.411 3.411 0 0 0 3.456 3.5m-7.952-.117h.767v-6.8h-.767Zm-6.6 0h.776v-6.092h2.283v-.709h-5.34v.709h2.281Zm-8.445-.592a2.7 2.7 0 0 1-2.679-2.806v-.019a2.669 2.669 0 0 1 2.66-2.787 2.7 2.7 0 0 1 2.679 2.806v.019a2.67 2.67 0 0 1-2.66 2.787m-.019.709a3.444 3.444 0 0 0 3.476-3.515c.009-.009.009-.009 0-.019a3.466 3.466 0 1 0-6.932.019v.019a3.411 3.411 0 0 0 3.456 3.5m-13.233-.117h.748v-5.5l2.476 3.631h.039l2.476-3.64v5.5h.767v-6.8h-.776l-2.477 3.709-2.474-3.709h-.777Zm-11.447.117a4.117 4.117 0 0 0 2.728-1.039v-2.714h-2.807v.689h2.069v1.689a3.2 3.2 0 0 1-1.961.68 2.627 2.627 0 0 1-2.689-2.825v-.019a2.655 2.655 0 0 1 2.582-2.787 2.89 2.89 0 0 1 2.069.777l.495-.583a3.583 3.583 0 0 0-2.534-.9 3.411 3.411 0 0 0-3.408 3.515v.019a3.333 3.333 0 0 0 3.456 3.5m-12.863-.117h.746v-5.573l4.389 5.573h.612v-6.8h-.747v5.446l-4.282-5.446h-.718Zm-4.8 0h.767v-6.8h-.767Zm-6.164.117a3.536 3.536 0 0 0 2.718-1.194l-.5-.495a2.952 2.952 0 0 1-2.194.981 2.682 2.682 0 0 1-2.632-2.806v-.019a2.666 2.666 0 0 1 2.632-2.787 2.955 2.955 0 0 1 2.136.933l.523-.563a3.534 3.534 0 0 0-2.651-1.078 3.424 3.424 0 0 0-3.437 3.515v.019a3.39 3.39 0 0 0 3.408 3.5m-12.816-.117h.747v-5.573l4.389 5.573h.612v-6.8h-.747v5.446l-4.282-5.446h-.719Zm-8.4-2.485 1.554-3.467 1.543 3.467Zm-1.893 2.485h.786l.806-1.8h3.7l.8 1.8h.825l-3.1-6.844h-.719Zm-5.426.049h.679l2.923-6.845h-.822l-2.427 5.854-2.419-5.854h-.854Zm-10.768-.758v-5.395h1.592a2.646 2.646 0 0 1 2.815 2.689v.019a2.631 2.631 0 0 1-2.815 2.67Zm-.767.709h2.359a3.4 3.4 0 0 0 3.612-3.4v-.019a3.388 3.388 0 0 0-3.612-3.379h-2.359Zm-8.4-2.485 1.553-3.467 1.544 3.467Zm-1.893 2.485h.786l.806-1.8h3.7l.8 1.8h.825l-3.1-6.844h-.718Z" data-name="Path 16445"/>
    <path d="m73.2 94.996-3.187.095c-3.047.093-4.406 1.123-4.406 3 0 1.828 1.265 3.094 3.609 3.094a5.851 5.851 0 0 0 3.983-1.407Zm1.266 10.17-.8-1.968a9.18 9.18 0 0 1-6.42 2.437 6.9 6.9 0 0 1-7.265-7.124c0-4.591 3.608-7.077 9.28-7.264l3.936-.142v-.561c0-2.671-1.874-3.75-4.218-3.75a18.772 18.772 0 0 0-7.529 2.23l-.017-4.1a14.589 14.589 0 0 1 8.671-2.438c5.484 0 8.811 2.25 8.811 8.061v8.764c0 3.188.094 4.828.422 5.858Z" data-name="Path 16446"/>
    <path d="M125.268 86.7c-2.719 0-4.359 2.438-4.359 4.875h8.624c-.094-2.39-1.406-4.875-4.264-4.875m-4.219 8.858c.094 3.28 2.813 5.579 6.234 5.579a17.814 17.814 0 0 0 7.122-2.093v4.154a14.209 14.209 0 0 1-8.06 2.438c-7.734 0-11.015-5.625-11.015-11.577 0-6.326 3.749-11.576 10.076-11.576 6 0 9.863 4.547 9.863 11.437v1.639Z" data-name="Path 16447"/>
    <path d="M97.917 82.889a5.691 5.691 0 0 0-1.827-.336c-2.11 0-3.844.774-6.14 2.789L89.48 83h-4.874v22.167h5.625l-.043-15.419a9.608 9.608 0 0 1 4.264-2.469 7.14 7.14 0 0 1 3.464-.034Z" data-name="Path 16448"/>
    <path d="M114.447 82.889a5.7 5.7 0 0 0-1.828-.336c-2.109 0-3.843.774-6.139 2.789L106.01 83h-4.875v22.167h5.626l-.043-15.419a9.607 9.607 0 0 1 4.264-2.469 7.14 7.14 0 0 1 3.464-.034Z" data-name="Path 16449"/>
    <path d="M166.273 87.364v-4.218h-4.29v-6.3l-5.623-.095v6.4h-9v-6.3l-5.623-.095v6.4h-4.255v4.218h4.255v11.8c0 4.354 4.242 6.625 9.605 6.625v-4.859c-2.334 0-3.982-1.105-3.982-2.838V87.364h9v11.8c0 4.354 4.17 6.625 9.533 6.625v-4.859c-2.334 0-3.91-1.105-3.91-2.838V87.364Z" data-name="Path 16450"/>
    <path d="M55.557 92.851v-4.255H44.588l5.578 5v6.7a12.485 12.485 0 0 1-4.006.648c-6.75 0-10.975-4.875-10.975-11.343 0-5.951 3.615-10.919 11.723-10.919a19.172 19.172 0 0 1 8.645 2.187v-5.23a26.758 26.758 0 0 0-9.208-1.644c-10.311 0-17.348 6.89-17.348 16.075 0 8.764 6.1 15.561 15.754 15.561a25.658 25.658 0 0 0 10.8-2.322v-.031Z" data-name="Path 16451"/>
  </g>
  <path fill="none" d="M0 0h195v195H0z" data-name="Rectangle 2313"/>
</svg>
