<svg xmlns="http://www.w3.org/2000/svg" width="195" height="195" viewBox="0 0 195 195">
  <g fill="#bab3ab" data-name="Group 7011">
    <path d="M-8953.305 2495.319v24.639l7.3-.048v-10.758l6.067-.011v10.817l7.192-.048-.019-24.544h-7.178v10.035h-6.067v-10.035Z" data-name="Path 16338" transform="translate(8967 -2408) translate(.306 -5.318)"/>
    <path d="M-8891.062 2503.729a6.864 6.864 0 0 1 1.278 3.892c.071 2.391 0 12.287 0 12.287h-6.989l.006-13.228a1.76 1.76 0 0 0-.886-1.278 3.957 3.957 0 0 0-3.439 1.178l-.391.592v12.774h-6.693v-17.692h6.491l.393 1.378c2.559-2.264 7.772-2.953 10.231.1" data-name="Path 16339" transform="translate(8967 -2408) translate(.306 -5.318)"/>
    <path d="m-8861.163 2502.253 3.345 8.064 3.54-8.112h9.639l3.246 9.2 2.654-9.147h5.606l3.016 9.293 2.886-9.293 2.361-.048-4.529 17.697h-5.083l-2.977-10.474-3.17 10.474-5.191.048-5.85-17.589-8.8 21.818a7.361 7.361 0 0 1-4.72 2.656 3.88 3.88 0 0 1-3.543-1.181 3.56 3.56 0 0 1-.984-3.54c.495-.886 1.182-1.868 2.265-1.967a2.92 2.92 0 0 1 2.911 1.775 15.078 15.078 0 0 1 .034 2.559c1.671-.1 2.162-2.164 2.951-3.345l-.1-1.474-6.92-17.462Z" data-name="Path 16340" transform="translate(8967 -2408) translate(.306 -5.318)"/>
    <path d="M-8880.341 2509.636c.1-1.87-.714-5.092 1.573-6 1.375-.2 2.864.194 3.061 1.67l.022 4.28c-1.8.121-2.87.081-4.655.049m10.518-4.431c-2.854-4.229-9.244-4.524-13.473-2.559-3.64 2.264-4.722 6.3-4.229 10.328a8.6 8.6 0 0 0 6.394 7.281c4.031.884 8.357.294 11.309-2.46a4.135 4.135 0 0 0 1.181-2.864c-1.23-.014-1.842.019-2.853 0a4.887 4.887 0 0 1-3.829 3.553c-1.673.194-3.64-.051-4.33-1.084-.786-.565-.786-2.224-.786-5.031h12.39a12.543 12.543 0 0 0-1.774-7.164" data-name="Path 16341" transform="translate(8967 -2408) translate(.306 -5.318)"/>
    <path d="M-8816.78 2509.636c.1-1.87-.714-5.092 1.573-6 1.375-.2 2.864.194 3.061 1.67l.019 4.28c-1.8.121-2.868.081-4.653.049m10.522-4.427c-2.854-4.229-9.244-4.524-13.473-2.559-3.64 2.264-4.722 6.3-4.229 10.328a8.6 8.6 0 0 0 6.39 7.281c4.035.884 8.361.294 11.312-2.46a4.135 4.135 0 0 0 1.181-2.864c-1.23-.014-1.842.019-2.853 0a4.887 4.887 0 0 1-3.835 3.553c-1.673.194-3.64-.051-4.33-1.084-.786-.565-.786-2.224-.786-5.031h12.393a12.543 12.543 0 0 0-1.77-7.164" data-name="Path 16342" transform="translate(8967 -2408) translate(.306 -5.318)"/>
    <path d="M-8802.598 2495.318h6.64v24.591h-6.64z" data-name="Rectangle 2240" transform="translate(8967 -2408) translate(.306 -5.318)"/>
    <path d="M-8793.234 2495.318h6.637v24.591h-6.637z" data-name="Rectangle 2241" transform="translate(8967 -2408) translate(.306 -5.318)"/>
    <path d="M-8918.183 2516.252a2.244 2.244 0 0 1-4.488 0v-10.391a2.244 2.244 0 0 1 4.488 0Zm4.237-12.815a10.558 10.558 0 0 0-6.513-1.951 10.166 10.166 0 0 0-6.764 2.224 9.94 9.94 0 0 0-3.145 7.388 9.792 9.792 0 0 0 3.575 7.883 10.709 10.709 0 0 0 6.337 1.733 10.411 10.411 0 0 0 7.1-2.492 9.752 9.752 0 0 0 2.813-7.124 9.751 9.751 0 0 0-3.403-7.661" data-name="Path 16343" transform="translate(8967 -2408) translate(.306 -5.318)"/>
  </g>
  <path fill="none" d="M-8967 2408h195v195h-195z" data-name="Rectangle 2297" transform="translate(8967 -2408)"/>
</svg>
