<svg xmlns="http://www.w3.org/2000/svg" width="195" height="195" viewBox="0 0 195 195">
  <g id="honeywell" transform="translate(8967 -2408)">
    <g id="Group_7011" data-name="Group 7011" transform="translate(0.306 -5.318)">
      <path id="Path_16338" data-name="Path 16338" d="M13.732,32.653V57.292l7.3-.048V46.486l6.067-.011V57.292l7.192-.048L34.272,32.7H27.094V42.735H21.027V32.7Z" transform="translate(-8967.037 2462.666)" fill="#bab3ab"/>
      <path id="Path_16339" data-name="Path 16339" d="M70.33,40.267a6.864,6.864,0,0,1,1.278,3.892c.071,2.391,0,12.287,0,12.287H64.619l.006-13.228a1.76,1.76,0,0,0-.886-1.278A3.957,3.957,0,0,0,60.3,43.118l-.391.592V56.484H53.216V38.792h6.491L60.1,40.17c2.559-2.264,7.772-2.953,10.231.1" transform="translate(-8961.392 2463.462)" fill="#bab3ab"/>
      <path id="Path_16340" data-name="Path 16340" d="M95.436,38.726l3.345,8.064,3.54-8.112h9.639l3.246,9.2,2.654-9.147h5.606l3.016,9.293,2.886-9.293,2.361-.048L127.2,56.38h-5.083L119.14,45.906,115.97,56.38l-5.191.048-5.85-17.589-8.8,21.818a7.361,7.361,0,0,1-4.72,2.656,3.88,3.88,0,0,1-3.543-1.181,3.56,3.56,0,0,1-.984-3.54c.495-.886,1.182-1.868,2.265-1.967A2.92,2.92,0,0,1,92.058,58.4a15.078,15.078,0,0,1,.034,2.559c1.671-.1,2.162-2.164,2.951-3.345l-.1-1.474L88.023,38.678Z" transform="translate(-8956.599 2463.527)" fill="#bab3ab"/>
      <path id="Path_16341" data-name="Path 16341" d="M78.481,46.2c.1-1.87-.714-5.092,1.573-6,1.375-.2,2.864.194,3.061,1.67l.022,4.28c-1.8.121-2.87.081-4.655.049M89,41.768c-2.854-4.229-9.244-4.524-13.473-2.559-3.64,2.264-4.722,6.3-4.229,10.328a8.6,8.6,0,0,0,6.394,7.281c4.031.884,8.357.294,11.309-2.46a4.135,4.135,0,0,0,1.181-2.864c-1.23-.014-1.842.019-2.853,0A4.887,4.887,0,0,1,83.5,55.047c-1.673.194-3.64-.051-4.33-1.084-.786-.565-.786-2.224-.786-5.031H90.774A12.543,12.543,0,0,0,89,41.768" transform="translate(-8958.822 2463.436)" fill="#bab3ab"/>
      <path id="Path_16342" data-name="Path 16342" d="M134.092,46.2c.1-1.87-.714-5.092,1.573-6,1.375-.2,2.864.194,3.061,1.67l.019,4.28c-1.8.121-2.868.081-4.653.049m10.522-4.427c-2.854-4.229-9.244-4.524-13.473-2.559-3.64,2.264-4.722,6.3-4.229,10.328a8.6,8.6,0,0,0,6.39,7.281c4.035.884,8.361.294,11.312-2.46a4.135,4.135,0,0,0,1.181-2.864c-1.23-.014-1.842.019-2.853,0a4.887,4.887,0,0,1-3.835,3.553c-1.673.194-3.64-.051-4.33-1.084-.786-.565-.786-2.224-.786-5.031h12.393a12.543,12.543,0,0,0-1.77-7.164" transform="translate(-8950.872 2463.436)" fill="#bab3ab"/>
      <rect id="Rectangle_2240" data-name="Rectangle 2240" width="6.64" height="24.591" transform="translate(-8802.598 2495.318)" fill="#bab3ab"/>
      <rect id="Rectangle_2241" data-name="Rectangle 2241" width="6.637" height="24.591" transform="translate(-8793.234 2495.318)" fill="#bab3ab"/>
      <path id="Path_16343" data-name="Path 16343" d="M45.985,52.815a2.244,2.244,0,0,1-4.488,0V42.424a2.244,2.244,0,0,1,4.488,0ZM50.222,40a10.558,10.558,0,0,0-6.513-1.951,10.166,10.166,0,0,0-6.764,2.224A9.94,9.94,0,0,0,33.8,47.661a9.792,9.792,0,0,0,3.575,7.883,10.709,10.709,0,0,0,6.337,1.733,10.411,10.411,0,0,0,7.1-2.492,9.752,9.752,0,0,0,2.813-7.124A9.751,9.751,0,0,0,50.222,40" transform="translate(-8964.168 2463.437)" fill="#bab3ab"/>
    </g>
    <rect id="Rectangle_2297" data-name="Rectangle 2297" width="195" height="195" transform="translate(-8967 2408)" fill="none"/>
  </g>
</svg>
