<svg xmlns="http://www.w3.org/2000/svg" width="195" height="195" viewBox="0 0 195 195">
  <g fill="#bab3ab" data-name="Group 7022">
    <path d="M79.652 64.009v44.6h4.08V81.172h5.124v-4.076h-5.124v-9.011h6.541v-4.089Z" data-name="Path 16367"/>
    <path d="M139.399 64.004v4.08h4.3v40.538h4.08V68.117h4.3v-4.08Z" data-name="Path 16368"/>
    <path d="M118.467 63.996v18.723a31.206 31.206 0 0 0 1.613 8.805s.088.215-.061.288a.214.214 0 0 1-.288-.086l-.009-.014s-.633-1.655-1.407-3.265c-.895-1.869-1.934-3.76-2.168-4.195-2.792-5.186-5.517-10.146-5.618-17.251l-.055-3.006h-3.84v44.618h4.08V89.144a31.93 31.93 0 0 0-1.49-9.176c-.015-.029-.088-.217.079-.29a.212.212 0 0 1 .277.1s.628 1.5 1.287 2.927a110.514 110.514 0 0 0 1.684 3.485c3.086 5.732 6.045 11.425 6.181 19.925l.032 2.5h3.866V63.996Z" data-name="Path 16369"/>
    <path d="M68.694 63.996v18.723a31.165 31.165 0 0 0 1.613 8.805s.088.215-.064.288a.21.21 0 0 1-.285-.086l-.009-.014s-.635-1.655-1.407-3.265c-.895-1.869-1.934-3.76-2.172-4.195-2.792-5.186-5.517-10.146-5.614-17.251l-.058-3.006h-3.837v44.618h4.08V89.144a31.813 31.813 0 0 0-1.49-9.176c-.014-.029-.088-.217.082-.29a.207.207 0 0 1 .273.1s.628 1.5 1.288 2.927a105.912 105.912 0 0 0 1.684 3.485c3.085 5.732 6.045 11.425 6.18 19.925l.032 2.5h3.863V63.996Z" data-name="Path 16370"/>
    <path d="m134.01 64.376-.079-.373h-3.969l.095.369c1.959 8.187 2.032 15.62.219 22.1a42.649 42.649 0 0 0-.41 21.686l.111.466h3.955l-.112-.461a42.681 42.681 0 0 1 .41-21.7c2.009-7.181 1.517-14.825-.219-22.088" data-name="Path 16371"/>
    <path d="m98.946 64.376-.079-.373h-3.972l.1.369c1.959 8.187 2.032 15.62.219 22.1a42.612 42.612 0 0 0-.41 21.686l.111.466h3.955l-.112-.461a42.68 42.68 0 0 1 .41-21.7c2.009-7.181 1.517-14.825-.219-22.088" data-name="Path 16372"/>
    <path d="m48.354 64.376-.079-.373h-3.972l.1.369c1.956 8.187 2.032 15.62.219 22.1a42.623 42.623 0 0 0-.414 21.686l.114.466h3.951l-.111-.461a42.631 42.631 0 0 1 .41-21.7c2.009-7.181 1.517-14.825-.217-22.088" data-name="Path 16373"/>
    <path d="M68.021 127.873h.021l1.188-4.515h1.614l-2.028 7.054h-1.433l-1.279-4.637h-.021l-1.32 4.637h-1.378l-1.977-7.054h1.613l1.159 4.515h.021l1.256-4.515h1.352Z" data-name="Path 16374"/>
    <path d="M74.807 130.412v-7.054h4.526v1.221H76.25v1.592h3.083v1.217H76.25v1.8h3.083v1.221Z" data-name="Path 16375"/>
    <path d="M83.687 130.412v-7.054h1.444v5.837h2.892v1.217Z" data-name="Path 16376"/>
    <path d="M91.882 130.412v-7.054h1.444v5.837h2.892v1.217Z" data-name="Path 16377"/>
    <path d="m104.754 130.412-3.236-4.414v4.414h-1.44v-7.054h1.27l3.265 4.423v-4.423h1.44v7.054Z" data-name="Path 16378"/>
    <path d="M110.654 130.412v-7.054h4.526v1.221h-3.083v1.592h3.083v1.217h-3.083v1.8h3.083v1.221Z" data-name="Path 16379"/>
    <path d="M122.003 124.468c-.483 0-.915.24-.915.7 0 .545.666.695 1.209.889 1 .339 2.2.806 2.2 2.287 0 1.532-1.44 2.185-2.67 2.185a3.632 3.632 0 0 1-2.7-1.178l.956-.936a2.37 2.37 0 0 0 1.754.886c.566 0 1.12-.267 1.12-.895 0-.6-.645-.839-1.36-1.1-.919-.343-1.945-.745-1.945-2.095a2.062 2.062 0 0 1 2.127-1.991l.178.015a3.672 3.672 0 0 1 2.339.839l-.824 1.026a2.374 2.374 0 0 0-1.464-.637" data-name="Path 16380"/>
    <path d="M131.174 124.468c-.484 0-.916.24-.916.7 0 .545.663.695 1.209.889 1 .339 2.2.806 2.2 2.287 0 1.532-1.44 2.185-2.672 2.185a3.636 3.636 0 0 1-2.7-1.178l.956-.936a2.37 2.37 0 0 0 1.754.886c.564 0 1.118-.267 1.118-.895 0-.6-.642-.839-1.361-1.1-.916-.343-1.942-.745-1.942-2.095a2.063 2.063 0 0 1 2.129-1.991l.176.015a3.672 3.672 0 0 1 2.339.839l-.824 1.026a2.4 2.4 0 0 0-1.464-.637" data-name="Path 16381"/>
  </g>
  <path fill="none" d="M0 0h195v195H0z" data-name="Rectangle 2309"/>
</svg>
