<svg xmlns="http://www.w3.org/2000/svg" width="195" height="195" viewBox="0 0 195 195">
  <g id="infinit" transform="translate(8414 -3003)">
    <g id="Group_7022" data-name="Group 7022" transform="translate(0.404 22.427)">
      <path id="Path_16367" data-name="Path 16367" d="M554.913,513.213v44.6h4.08V530.376h5.124V526.3h-5.124v-9.011h6.541V513.2Z" transform="translate(-8889.665 2531.369)" fill="#bab3ab"/>
      <path id="Path_16368" data-name="Path 16368" d="M607.186,513.207v4.08h4.3v40.538h4.08V517.32h4.3v-4.08Z" transform="translate(-8882.191 2531.37)" fill="#bab3ab"/>
      <path id="Path_16369" data-name="Path 16369" d="M590.353,513.2v18.723a31.206,31.206,0,0,0,1.613,8.805s.088.215-.061.288a.214.214,0,0,1-.288-.086l-.009-.014s-.633-1.655-1.407-3.265c-.895-1.869-1.934-3.76-2.168-4.195-2.792-5.186-5.517-10.146-5.618-17.251l-.055-3.006h-3.84v44.618H582.6V538.348a31.93,31.93,0,0,0-1.49-9.176c-.015-.029-.088-.217.079-.29a.212.212,0,0,1,.277.1v0s.628,1.5,1.287,2.927c.725,1.573,1.578,3.288,1.684,3.485,3.086,5.732,6.045,11.425,6.181,19.925l.032,2.5h3.866V513.2Z" transform="translate(-8886.29 2531.369)" fill="#bab3ab"/>
      <path id="Path_16370" data-name="Path 16370" d="M546.806,513.2v18.723a31.165,31.165,0,0,0,1.613,8.805s.088.215-.064.288a.21.21,0,0,1-.285-.086l-.009-.014s-.635-1.655-1.407-3.265c-.895-1.869-1.934-3.76-2.172-4.195-2.792-5.186-5.517-10.146-5.614-17.251l-.058-3.006h-3.837v44.618h4.08V538.348a31.813,31.813,0,0,0-1.49-9.176c-.014-.029-.088-.217.082-.29a.207.207,0,0,1,.273.1v0s.628,1.5,1.288,2.927c.724,1.573,1.577,3.288,1.684,3.485,3.085,5.732,6.045,11.425,6.18,19.925l.032,2.5h3.863V513.2Z" transform="translate(-8892.516 2531.369)" fill="#bab3ab"/>
      <path id="Path_16371" data-name="Path 16371" d="M603.141,513.579l-.079-.373h-3.969l.095.369c1.959,8.187,2.032,15.62.219,22.1a42.649,42.649,0,0,0-.41,21.686l.111.466h3.955l-.112-.461a42.681,42.681,0,0,1,.41-21.7c2.009-7.181,1.517-14.825-.219-22.088" transform="translate(-8883.535 2531.37)" fill="#bab3ab"/>
      <path id="Path_16372" data-name="Path 16372" d="M572.463,513.579l-.079-.373h-3.972l.1.369c1.959,8.187,2.032,15.62.219,22.1a42.612,42.612,0,0,0-.41,21.686l.111.466h3.955l-.112-.461a42.68,42.68,0,0,1,.41-21.7c2.009-7.181,1.517-14.825-.219-22.088" transform="translate(-8887.921 2531.37)" fill="#bab3ab"/>
      <path id="Path_16373" data-name="Path 16373" d="M528.2,513.579l-.079-.373h-3.972l.1.369c1.956,8.187,2.032,15.62.219,22.1a42.623,42.623,0,0,0-.414,21.686l.114.466h3.951l-.111-.461a42.631,42.631,0,0,1,.41-21.7c2.009-7.181,1.517-14.825-.217-22.088" transform="translate(-8894.25 2531.37)" fill="#bab3ab"/>
      <path id="Path_16374" data-name="Path 16374" d="M545.564,569.652h.021l1.188-4.515h1.614l-2.028,7.054h-1.433l-1.279-4.637h-.021l-1.32,4.637h-1.378l-1.977-7.054h1.613l1.159,4.515h.021L543,565.137h1.352Z" transform="translate(-8891.947 2538.794)" fill="#bab3ab"/>
      <path id="Path_16375" data-name="Path 16375" d="M550.674,572.191v-7.054H555.2v1.221h-3.083v1.592H555.2v1.217h-3.083v1.8H555.2v1.221Z" transform="translate(-8890.271 2538.794)" fill="#bab3ab"/>
      <path id="Path_16376" data-name="Path 16376" d="M558.443,572.191v-7.054h1.444v5.837h2.892v1.217Z" transform="translate(-8889.16 2538.794)" fill="#bab3ab"/>
      <path id="Path_16377" data-name="Path 16377" d="M565.614,572.191v-7.054h1.444v5.837h2.892v1.217Z" transform="translate(-8888.136 2538.794)" fill="#bab3ab"/>
      <path id="Path_16378" data-name="Path 16378" d="M577.46,572.191l-3.236-4.414v4.414h-1.44v-7.054h1.27l3.265,4.423v-4.423h1.44v7.054Z" transform="translate(-8887.11 2538.794)" fill="#bab3ab"/>
      <path id="Path_16379" data-name="Path 16379" d="M582.037,572.191v-7.054h4.526v1.221H583.48v1.592h3.083v1.217H583.48v1.8h3.083v1.221Z" transform="translate(-8885.787 2538.794)" fill="#bab3ab"/>
      <path id="Path_16380" data-name="Path 16380" d="M592.327,566.264c-.483,0-.915.24-.915.7,0,.545.666.695,1.209.889,1,.339,2.2.806,2.2,2.287,0,1.532-1.44,2.185-2.67,2.185a3.632,3.632,0,0,1-2.7-1.178l.956-.936a2.37,2.37,0,0,0,1.754.886c.566,0,1.12-.267,1.12-.895,0-.6-.645-.839-1.36-1.1-.919-.343-1.945-.745-1.945-2.095a2.062,2.062,0,0,1,2.127-1.991l.178.015a3.672,3.672,0,0,1,2.339.839l-.824,1.026a2.374,2.374,0,0,0-1.464-.637" transform="translate(-8884.728 2538.777)" fill="#bab3ab"/>
      <path id="Path_16381" data-name="Path 16381" d="M600.351,566.264c-.484,0-.916.24-.916.7,0,.545.663.695,1.209.889,1,.339,2.2.806,2.2,2.287,0,1.532-1.44,2.185-2.672,2.185a3.636,3.636,0,0,1-2.7-1.178l.956-.936a2.37,2.37,0,0,0,1.754.886c.564,0,1.118-.267,1.118-.895,0-.6-.642-.839-1.361-1.1-.916-.343-1.942-.745-1.942-2.095a2.063,2.063,0,0,1,2.129-1.991l.176.015a3.672,3.672,0,0,1,2.339.839l-.824,1.026a2.4,2.4,0,0,0-1.464-.637" transform="translate(-8883.581 2538.777)" fill="#bab3ab"/>
    </g>
    <rect id="Rectangle_2309" data-name="Rectangle 2309" width="195" height="195" transform="translate(-8414 3003)" fill="none"/>
  </g>
</svg>
