<svg xmlns="http://www.w3.org/2000/svg" width="195" height="195" viewBox="0 0 195 195">
  <g id="isobar" transform="translate(8154 -3003)">
    <g id="Group_7021" data-name="Group 7021" transform="translate(0.486 27.315)">
      <path id="Path_16476" data-name="Path 16476" d="M765.086,542.359c-4.057-.406-5.411-1.127-5.411-2.569,0-1.353,1.669-2.255,4.69-2.255a12.372,12.372,0,0,1,7.574,2.344l3.336-3.381-.089-.09a16.55,16.55,0,0,0-10.506-3.742c-5.861,0-10.145,2.885-10.145,7.3,0,5.1,3.968,6.809,10.01,7.349,4.554.406,6.222,1.173,6.222,2.932,0,1.668-1.669,2.795-5.457,2.795a12.4,12.4,0,0,1-7.98-2.479l-3.427,3.471.09.046a16.4,16.4,0,0,0,11.226,3.787c6.178,0,10.731-2.795,10.731-7.709-.045-5.14-4.6-7.17-10.866-7.8m-18.846,15.014h5.591V533.116h-5.591Zm2.795-33.77a3.156,3.156,0,1,0,3.157,3.2,3.164,3.164,0,0,0-3.157-3.2m40.67,9.107a12.58,12.58,0,1,0,12.535,12.625v-.046A12.518,12.518,0,0,0,789.7,532.71m.135,19.569a7.057,7.057,0,1,1,7.08-7.034,7.025,7.025,0,0,1-7.08,7.034c.046.045,0,.045,0,0m26.783-19.569h-.046a9.889,9.889,0,0,0-6.673,2.48V522.926l-5.726,5.726v28.676h5.275l.136-2.075a9.165,9.165,0,0,0,6.853,2.57h.135a11.48,11.48,0,0,0,8.072-3.7,12.789,12.789,0,0,0,3.7-8.882c0-6.763-5.365-12.535-11.722-12.535m-.857,19.613a7.016,7.016,0,0,1-5.771-3.021l-.046-.09v-7.89l.046-.09a7.06,7.06,0,1,1,5.771,11.091m25.2-19.613a12.324,12.324,0,0,0-7.574,2.3,12.822,12.822,0,0,0-1.173,1.037l3.111,3.111a7.542,7.542,0,0,1,5.411-1.848c3.2,0,5.094,2.164,5.094,4.283v.9h-5.275c-7.349,0-11.227,2.661-11.227,7.62,0,4.419,3.653,7.53,8.837,7.53,3.111,0,5.32-.135,7.259-2.073l.542-.542v2.3h5.455V541.592c0-5.41-4.1-8.882-10.46-8.882m4.869,15.24c0,3.156-2.525,5.23-6.448,5.23-2.569,0-4.238-1.263-4.238-3.157,0-2.209,1.848-3.381,5.5-3.381h5.14v1.307Zm14.339-11.633v-3.2l-5.546-.045v24.257h5.726V543.622c.09-4.194,3.111-5.005,5.861-5.186V532.62c-3.742.271-5.771,2.435-6.042,3.7" transform="translate(-8862.363 2532.759)" fill="#bab3ab"/>
    </g>
    <rect id="Rectangle_2308" data-name="Rectangle 2308" width="195" height="195" transform="translate(-8154 3003)" fill="none"/>
  </g>
</svg>
