<svg xmlns="http://www.w3.org/2000/svg" width="195" height="195" viewBox="0 0 195 195">
  <g id="jeste-jednu" transform="translate(8154 -2631)">
    <g id="Group_7015" data-name="Group 7015" transform="translate(0.473 33.309)">
      <path id="Path_16458" data-name="Path 16458" d="M858.151,237.571a4.789,4.789,0,1,1,4.664-4.787,4.529,4.529,0,0,1-4.664,4.787m0-8.691a3.617,3.617,0,0,0-3.7,3.9,3.724,3.724,0,1,0,3.7-3.9m.185,1.746a1.616,1.616,0,0,1,1.829,1.561,1.466,1.466,0,0,1-.637,1.254v.021l.718,1.069v.247h-1.314l-.678-1.007h-.719v1.007h-1.254v-4.151Zm-.8,1.13v.925h.76c.35,0,.556-.165.556-.453,0-.307-.206-.472-.556-.472Z" transform="translate(-8846.973 2490.594)" fill="#bab3ab"/>
      <path id="Path_16459" data-name="Path 16459" d="M831.089,191.422v1.1H828.3v23.9H827c-4.572,0-5.859-.486-6.878-1.119a4.477,4.477,0,0,1-2.149-2.777,22.05,22.05,0,0,1-.376-5.23V192.518h-1.976a35.321,35.321,0,0,0,12.678-9.2v8.1h2.79Z" transform="translate(-8852.393 2484.207)" fill="#bab3ab"/>
      <rect id="Rectangle_2246" data-name="Rectangle 2246" width="15.468" height="33.1" transform="translate(-8036.771 2667.529)" fill="none"/>
      <rect id="Rectangle_2247" data-name="Rectangle 2247" width="15.468" height="33.1" transform="translate(-8036.771 2667.529)" fill="none"/>
      <path id="Path_16460" data-name="Path 16460" d="M829.781,219.895v19.5h-10.7V226.308a2,2,0,1,0-4.01,0V239.39H804.924V214.446h10.145V222.8a.016.016,0,0,0,.016.016.015.015,0,0,0,.014-.013,15.754,15.754,0,0,1,5.986-8.019,5.853,5.853,0,0,1,8.7,5.112" transform="translate(-8853.922 2488.599)" fill="#bab3ab"/>
      <rect id="Rectangle_2248" data-name="Rectangle 2248" width="24.857" height="25.345" transform="translate(-8048.998 2702.644)" fill="none"/>
      <rect id="Rectangle_2249" data-name="Rectangle 2249" width="24.857" height="25.345" transform="translate(-8048.998 2702.644)" fill="none"/>
      <path id="Path_16461" data-name="Path 16461" d="M802.507,214.266h0a.014.014,0,0,0-.014.014.015.015,0,0,0,.014.016h0a15.539,15.539,0,0,0,3.519-.3,4.785,4.785,0,0,0,2.365-1.261,2.888,2.888,0,0,0,.822-2.044,3.244,3.244,0,0,0-1.276-2.375,36.755,36.755,0,0,0-4.456-3.06,45.413,45.413,0,0,1-5.818-4.176,10.343,10.343,0,0,1-2.91-4.08,3.917,3.917,0,0,1,.31-3.7c.8-1.334,2.432-2.891,8.871-2.891h16.181v9.746a8.99,8.99,0,0,1-3.324-.107,8.378,8.378,0,0,1-3.165-1.311,5.043,5.043,0,0,1-2.689-4.111,3.123,3.123,0,0,1,2.685-3.092.014.014,0,0,0,.013-.017c0-.007-.008-.013-.016-.013H811.8c-2.318,0-3.163.3-3.846.717a2.992,2.992,0,0,0-1.42,1.669,2.349,2.349,0,0,0,.853,2.528,32.98,32.98,0,0,0,4.679,2.765A35.348,35.348,0,0,1,817,202.56a9.927,9.927,0,0,1,2.909,3.449,7.225,7.225,0,0,1,.575,4.128,5.464,5.464,0,0,1-1.751,3.1,6.982,6.982,0,0,1-2.725,1.436,15.078,15.078,0,0,1-3.176.537c-1.13.1-2.568.171-7.013.193V242.77H795.495v-4.562a.016.016,0,0,0-.016-.015.018.018,0,0,0-.016.01,6.044,6.044,0,0,1-4.211,4.228,7.513,7.513,0,0,1-5.71-.563,13.369,13.369,0,0,1-5.1-5.05,12.615,12.615,0,0,1-1.686-6.915,12.113,12.113,0,0,1,2.406-6.809,13.415,13.415,0,0,1,6.63-4.546,27.709,27.709,0,0,1,7.7-1.1V204.108a12.78,12.78,0,0,1,5.786,1.47c2.75,1.54,3.8,3.563,3.8,5.614a3.017,3.017,0,0,1-2.575,3.073m-7.548,19.005V219.157a7.637,7.637,0,0,0,0,14.115" transform="translate(-8857.665 2485.22)" fill="#bab3ab"/>
      <rect id="Rectangle_2250" data-name="Rectangle 2250" width="41.837" height="52.36" transform="translate(-8078.925 2675.629)" fill="none"/>
      <rect id="Rectangle_2251" data-name="Rectangle 2251" width="41.837" height="52.36" transform="translate(-8078.925 2675.629)" fill="none"/>
      <path id="Path_16462" data-name="Path 16462" d="M854,214.4V239.34H843.853v-8.349a.014.014,0,0,0-.016-.016.016.016,0,0,0-.014.01A15.749,15.749,0,0,1,837.838,239a5.852,5.852,0,0,1-8.7-5.112V214.4h10.7V227.48a2,2,0,1,0,4.01,0V214.4Z" transform="translate(-8850.459 2488.649)" fill="#bab3ab"/>
      <rect id="Rectangle_2252" data-name="Rectangle 2252" width="24.857" height="25.346" transform="translate(-8021.318 2703.045)" fill="none"/>
      <rect id="Rectangle_2253" data-name="Rectangle 2253" width="24.857" height="25.346" transform="translate(-8021.318 2703.045)" fill="none"/>
      <path id="Path_16463" data-name="Path 16463" d="M850.432,196.257a5.028,5.028,0,0,1-.4,2.345,6.92,6.92,0,0,1-2.073,2.585,8.574,8.574,0,0,1-3.7,1.6,20.264,20.264,0,0,1-4.677.133,6.014,6.014,0,0,0,4.09,2.788c1.637.361,3.716.409,6.683-1.367v10.6a35.791,35.791,0,0,1-6.557.458q-15.5,0-15.5-12.761a10.949,10.949,0,0,1,2.329-6.731c3.225-3.583,5.447-4.327,7.112-4.8a14.45,14.45,0,0,1,4.134-.682,10.516,10.516,0,0,1,4.408.824,9.268,9.268,0,0,1,3.337,2.7,3.694,3.694,0,0,1,.815,2.3m-9.658,4.844V192.19a4.631,4.631,0,0,0,0,8.911" transform="translate(-8850.58 2485.223)" fill="#bab3ab"/>
      <rect id="Rectangle_2254" data-name="Rectangle 2254" width="22.143" height="24.983" transform="translate(-8022.284 2675.655)" fill="none"/>
      <rect id="Rectangle_2255" data-name="Rectangle 2255" width="22.143" height="24.983" transform="translate(-8022.284 2675.655)" fill="none"/>
      <path id="Path_16464" data-name="Path 16464" d="M760.344,213.8v19a6.454,6.454,0,0,1-.823,3.752,4.987,4.987,0,0,1-2.1,1.918c-1.038.537-2.528,1-7.4,1h-9.177a5.456,5.456,0,1,1,3.28-1.1h1.743a3.542,3.542,0,0,0,3.359-1.618,5.487,5.487,0,0,0,.794-3.4V213.378a8.009,8.009,0,0,0,10.322.425" transform="translate(-8863.862 2488.504)" fill="#bab3ab"/>
      <rect id="Rectangle_2256" data-name="Rectangle 2256" width="24.954" height="26.092" transform="translate(-8128.473 2701.882)" fill="none"/>
      <rect id="Rectangle_2257" data-name="Rectangle 2257" width="24.954" height="26.092" transform="translate(-8128.473 2701.882)" fill="none"/>
      <path id="Path_16465" data-name="Path 16465" d="M773.126,189.914v19a6.44,6.44,0,0,1-.824,3.752,4.962,4.962,0,0,1-2.1,1.918c-1.039.538-2.528,1-7.4,1h-9.177a5.455,5.455,0,1,1,3.28-1.095h1.743a3.544,3.544,0,0,0,3.359-1.62,5.489,5.489,0,0,0,.794-3.4V189.491a8.008,8.008,0,0,0,10.322.423" transform="translate(-8862.035 2485.089)" fill="#bab3ab"/>
      <path id="Path_16466" data-name="Path 16466" d="M766.386,179.089a5.413,5.413,0,1,1-5.413,5.413,5.414,5.414,0,0,1,5.413-5.413" transform="translate(-8860.205 2483.602)" fill="#bab3ab"/>
      <rect id="Rectangle_2258" data-name="Rectangle 2258" width="25.457" height="37.981" transform="translate(-8113.863 2662.691)" fill="none"/>
      <rect id="Rectangle_2259" data-name="Rectangle 2259" width="25.457" height="37.981" transform="translate(-8113.863 2662.691)" fill="none"/>
      <path id="Path_16467" data-name="Path 16467" d="M793.8,196.257a5.029,5.029,0,0,1-.4,2.345,6.907,6.907,0,0,1-2.076,2.585,8.553,8.553,0,0,1-3.694,1.6,20.265,20.265,0,0,1-4.677.133,6.009,6.009,0,0,0,4.09,2.788c1.637.361,3.714.409,6.683-1.367v10.6a35.8,35.8,0,0,1-6.558.458q-15.5,0-15.5-12.761a10.945,10.945,0,0,1,2.332-6.731c3.226-3.583,5.447-4.327,7.112-4.8a14.45,14.45,0,0,1,4.134-.682,10.516,10.516,0,0,1,4.408.824,9.282,9.282,0,0,1,3.336,2.7,3.689,3.689,0,0,1,.816,2.3m-9.658,4.844V192.19a4.63,4.63,0,0,0,0,8.911" transform="translate(-8858.677 2485.223)" fill="#bab3ab"/>
      <rect id="Rectangle_2260" data-name="Rectangle 2260" width="22.144" height="24.983" transform="translate(-8087.016 2675.655)" fill="none"/>
      <rect id="Rectangle_2261" data-name="Rectangle 2261" width="22.144" height="24.983" transform="translate(-8087.016 2675.655)" fill="none"/>
      <path id="Path_16468" data-name="Path 16468" d="M781.055,220.111a5.025,5.025,0,0,1-.4,2.345,6.906,6.906,0,0,1-2.076,2.585,8.553,8.553,0,0,1-3.694,1.6,20.2,20.2,0,0,1-4.677.133,7.071,7.071,0,0,0,9.562,2.018v10.22a39.6,39.6,0,0,1-5.348.246q-15.5,0-15.5-12.764a10.944,10.944,0,0,1,2.332-6.73c3.225-3.584,5.447-4.328,7.112-4.8a14.532,14.532,0,0,1,4.134-.682,10.536,10.536,0,0,1,4.408.825,9.281,9.281,0,0,1,3.336,2.7,3.689,3.689,0,0,1,.816,2.3m-9.658,4.844v-8.909a4.629,4.629,0,0,0,0,8.909" transform="translate(-8860.499 2488.634)" fill="#bab3ab"/>
      <rect id="Rectangle_2262" data-name="Rectangle 2262" width="22.145" height="24.981" transform="translate(-8101.582 2702.92)" fill="none"/>
      <rect id="Rectangle_2263" data-name="Rectangle 2263" width="22.145" height="24.981" transform="translate(-8101.582 2702.92)" fill="none"/>
      <path id="Path_16469" data-name="Path 16469" d="M800.037,185.046a6.562,6.562,0,0,0,12.094,0" transform="translate(-8854.62 2484.453)" fill="#bab3ab"/>
      <path id="Path_16470" data-name="Path 16470" d="M834.836,185.046a6.563,6.563,0,0,0,12.095,0" transform="translate(-8849.646 2484.453)" fill="#bab3ab"/>
    </g>
    <rect id="Rectangle_2300" data-name="Rectangle 2300" width="195" height="195" transform="translate(-8154 2631)" fill="none"/>
  </g>
</svg>
