<svg xmlns="http://www.w3.org/2000/svg" xmlns:xlink="http://www.w3.org/1999/xlink" width="195" height="195" viewBox="0 0 195 195">
  <defs>
    <path id="a" fill="none" d="M0 0h15.468v33.1H0z" data-name="Rectangle 2246"/>
    <path id="b" fill="none" d="M0 0h24.857v25.345H0z" data-name="Rectangle 2248"/>
    <path id="c" fill="none" d="M0 0h41.837v52.36H0z" data-name="Rectangle 2250"/>
    <path id="d" fill="none" d="M0 0h24.857v25.346H0z" data-name="Rectangle 2252"/>
    <path id="e" fill="none" d="M0 0h22.143v24.983H0z" data-name="Rectangle 2254"/>
    <path id="f" fill="none" d="M0 0h24.954v26.092H0z" data-name="Rectangle 2256"/>
    <path id="g" fill="none" d="M0 0h25.457v37.981H0z" data-name="Rectangle 2258"/>
    <path id="h" fill="none" d="M0 0h22.144v24.983H0z" data-name="Rectangle 2260"/>
    <path id="i" fill="none" d="M0 0h22.145v24.981H0z" data-name="Rectangle 2262"/>
  </defs>
  <g data-name="Group 7015" transform="translate(8154.473 -2597.691)">
    <path fill="#bab3ab" d="M-7988.822 2728.165a4.789 4.789 0 1 1 4.664-4.787 4.529 4.529 0 0 1-4.664 4.787m0-8.691a3.617 3.617 0 0 0-3.7 3.9 3.724 3.724 0 1 0 3.7-3.9m.185 1.746a1.616 1.616 0 0 1 1.829 1.561 1.466 1.466 0 0 1-.637 1.254v.021l.718 1.069v.247h-1.314l-.678-1.007h-.719v1.007h-1.254v-4.151Zm-.8 1.13v.925h.76c.35 0 .556-.165.556-.453 0-.307-.206-.472-.556-.472Z" data-name="Path 16458"/>
    <path fill="#bab3ab" d="M-8021.304 2675.629v1.1h-2.789v23.9h-1.3c-4.572 0-5.859-.486-6.878-1.119a4.477 4.477 0 0 1-2.149-2.777 22.05 22.05 0 0 1-.376-5.23v-14.778h-1.976a35.321 35.321 0 0 0 12.678-9.2v8.1h2.79Z" data-name="Path 16459"/>
    <use xlink:href="#a" data-name="Rectangle 2246" transform="translate(-8036.771 2667.529)"/>
    <use xlink:href="#a" data-name="Rectangle 2247" transform="translate(-8036.771 2667.529)"/>
    <path fill="#bab3ab" d="M-8024.141 2708.494v19.5h-10.7v-13.087a2.005 2.005 0 1 0-4.01 0v13.082h-10.147v-24.944h10.145v8.354a.016.016 0 0 0 .016.016.015.015 0 0 0 .014-.013 15.754 15.754 0 0 1 5.986-8.019 5.853 5.853 0 0 1 8.7 5.112" data-name="Path 16460"/>
    <use xlink:href="#b" data-name="Rectangle 2248" transform="translate(-8048.998 2702.644)"/>
    <use xlink:href="#b" data-name="Rectangle 2249" transform="translate(-8048.998 2702.644)"/>
    <path fill="#bab3ab" d="M-8055.158 2699.486a.014.014 0 0 0-.014.014.015.015 0 0 0 .014.016 15.539 15.539 0 0 0 3.519-.3 4.785 4.785 0 0 0 2.365-1.261 2.888 2.888 0 0 0 .822-2.044 3.244 3.244 0 0 0-1.276-2.375 36.755 36.755 0 0 0-4.456-3.06 45.413 45.413 0 0 1-5.818-4.176 10.343 10.343 0 0 1-2.91-4.08 3.917 3.917 0 0 1 .31-3.7c.8-1.334 2.432-2.891 8.871-2.891h16.181v9.746a8.99 8.99 0 0 1-3.324-.107 8.378 8.378 0 0 1-3.165-1.311 5.043 5.043 0 0 1-2.689-4.111 3.123 3.123 0 0 1 2.685-3.092.014.014 0 0 0 .013-.017c0-.007-.008-.013-.016-.013h-1.819c-2.318 0-3.163.3-3.846.717a2.992 2.992 0 0 0-1.42 1.669 2.349 2.349 0 0 0 .853 2.528 32.98 32.98 0 0 0 4.679 2.765 35.348 35.348 0 0 1 4.934 3.377 9.927 9.927 0 0 1 2.909 3.449 7.225 7.225 0 0 1 .575 4.128 5.464 5.464 0 0 1-1.751 3.1 6.982 6.982 0 0 1-2.725 1.436 15.078 15.078 0 0 1-3.176.537c-1.13.1-2.568.171-7.013.193v27.367h-10.324v-4.562a.016.016 0 0 0-.016-.015.018.018 0 0 0-.016.01 6.044 6.044 0 0 1-4.211 4.228 7.513 7.513 0 0 1-5.71-.563 13.369 13.369 0 0 1-5.1-5.05 12.615 12.615 0 0 1-1.686-6.915 12.113 12.113 0 0 1 2.406-6.809 13.415 13.415 0 0 1 6.63-4.546 27.709 27.709 0 0 1 7.7-1.1v-13.34a12.78 12.78 0 0 1 5.786 1.47c2.75 1.54 3.8 3.563 3.8 5.614a3.017 3.017 0 0 1-2.575 3.073m-7.548 19.005v-14.113a7.637 7.637 0 0 0 0 14.115" data-name="Path 16461"/>
    <use xlink:href="#c" data-name="Rectangle 2250" transform="translate(-8078.925 2675.629)"/>
    <use xlink:href="#c" data-name="Rectangle 2251" transform="translate(-8078.925 2675.629)"/>
    <path fill="#bab3ab" d="M-7996.459 2703.049v24.94h-10.147v-8.349a.014.014 0 0 0-.016-.016.016.016 0 0 0-.014.01 15.749 15.749 0 0 1-5.985 8.015 5.852 5.852 0 0 1-8.7-5.112v-19.488h10.7v13.08a2.005 2.005 0 1 0 4.01 0v-13.08Z" data-name="Path 16462"/>
    <use xlink:href="#d" data-name="Rectangle 2252" transform="translate(-8021.318 2703.045)"/>
    <use xlink:href="#d" data-name="Rectangle 2253" transform="translate(-8021.318 2703.045)"/>
    <path fill="#bab3ab" d="M-8000.148 2681.48a5.028 5.028 0 0 1-.4 2.345 6.92 6.92 0 0 1-2.073 2.585 8.574 8.574 0 0 1-3.7 1.6 20.264 20.264 0 0 1-4.677.133 6.014 6.014 0 0 0 4.09 2.788c1.637.361 3.716.409 6.683-1.367v10.6a35.791 35.791 0 0 1-6.557.458q-15.5 0-15.5-12.761a10.949 10.949 0 0 1 2.329-6.731c3.225-3.583 5.447-4.327 7.112-4.8a14.45 14.45 0 0 1 4.134-.682 10.516 10.516 0 0 1 4.408.824 9.268 9.268 0 0 1 3.337 2.7 3.694 3.694 0 0 1 .815 2.3m-9.658 4.844v-8.903a4.631 4.631 0 0 0 0 8.911" data-name="Path 16463"/>
    <use xlink:href="#e" data-name="Rectangle 2254" transform="translate(-8022.284 2675.655)"/>
    <use xlink:href="#e" data-name="Rectangle 2255" transform="translate(-8022.284 2675.655)"/>
    <path fill="#bab3ab" d="M-8103.518 2702.304v19a6.454 6.454 0 0 1-.823 3.752 4.987 4.987 0 0 1-2.1 1.918c-1.038.537-2.528 1-7.4 1h-9.177a5.456 5.456 0 1 1 3.28-1.1h1.743a3.542 3.542 0 0 0 3.359-1.618 5.487 5.487 0 0 0 .794-3.4v-19.974a8.009 8.009 0 0 0 10.322.425" data-name="Path 16464"/>
    <use xlink:href="#f" data-name="Rectangle 2256" transform="translate(-8128.473 2701.882)"/>
    <use xlink:href="#f" data-name="Rectangle 2257" transform="translate(-8128.473 2701.882)"/>
    <path fill="#bab3ab" d="M-8088.909 2675.003v19a6.44 6.44 0 0 1-.824 3.752 4.962 4.962 0 0 1-2.1 1.918c-1.039.538-2.528 1-7.4 1h-9.177a5.455 5.455 0 1 1 3.28-1.095h1.743a3.544 3.544 0 0 0 3.359-1.62 5.489 5.489 0 0 0 .794-3.4v-19.978a8.008 8.008 0 0 0 10.322.423" data-name="Path 16465"/>
    <path fill="#bab3ab" d="M-8093.819 2662.691a5.413 5.413 0 1 1-5.413 5.413 5.414 5.414 0 0 1 5.413-5.413" data-name="Path 16466"/>
    <use xlink:href="#g" data-name="Rectangle 2258" transform="translate(-8113.863 2662.691)"/>
    <use xlink:href="#g" data-name="Rectangle 2259" transform="translate(-8113.863 2662.691)"/>
    <path fill="#bab3ab" d="M-8064.877 2681.48a5.029 5.029 0 0 1-.4 2.345 6.907 6.907 0 0 1-2.076 2.585 8.553 8.553 0 0 1-3.694 1.6 20.265 20.265 0 0 1-4.677.133 6.009 6.009 0 0 0 4.09 2.788c1.637.361 3.714.409 6.683-1.367v10.6a35.8 35.8 0 0 1-6.558.458q-15.5 0-15.5-12.761a10.945 10.945 0 0 1 2.332-6.731c3.226-3.583 5.447-4.327 7.112-4.8a14.45 14.45 0 0 1 4.134-.682 10.516 10.516 0 0 1 4.408.824 9.282 9.282 0 0 1 3.336 2.7 3.689 3.689 0 0 1 .816 2.3m-9.658 4.844v-8.903a4.63 4.63 0 0 0 0 8.911" data-name="Path 16467"/>
    <use xlink:href="#h" data-name="Rectangle 2260" transform="translate(-8087.016 2675.655)"/>
    <use xlink:href="#h" data-name="Rectangle 2261" transform="translate(-8087.016 2675.655)"/>
    <path fill="#bab3ab" d="M-8079.444 2708.745a5.025 5.025 0 0 1-.4 2.345 6.906 6.906 0 0 1-2.076 2.585 8.553 8.553 0 0 1-3.694 1.6 20.2 20.2 0 0 1-4.677.133 7.071 7.071 0 0 0 9.562 2.018v10.22a39.6 39.6 0 0 1-5.348.246q-15.5 0-15.5-12.764a10.944 10.944 0 0 1 2.332-6.73c3.225-3.584 5.447-4.328 7.112-4.8a14.532 14.532 0 0 1 4.134-.682 10.536 10.536 0 0 1 4.408.825 9.281 9.281 0 0 1 3.336 2.7 3.689 3.689 0 0 1 .816 2.3m-9.658 4.844v-8.909a4.629 4.629 0 0 0 0 8.909" data-name="Path 16468"/>
    <use xlink:href="#i" data-name="Rectangle 2262" transform="translate(-8101.582 2702.92)"/>
    <use xlink:href="#i" data-name="Rectangle 2263" transform="translate(-8101.582 2702.92)"/>
    <path fill="#bab3ab" d="M-8054.583 2669.499a6.562 6.562 0 0 0 12.094 0" data-name="Path 16469"/>
    <path fill="#bab3ab" d="M-8014.81 2669.499a6.563 6.563 0 0 0 12.095 0" data-name="Path 16470"/>
  </g>
  <path fill="none" d="M0 0h195v195H0z" data-name="Rectangle 2300"/>
</svg>
