<svg xmlns="http://www.w3.org/2000/svg" width="195" height="195" viewBox="0 0 195 195">
  <g id="jic" transform="translate(8414 -3381)">
    <g id="Group_7030" data-name="Group 7030" transform="translate(-1.265 -10.921)">
      <path id="Path_16573" data-name="Path 16573" d="M534.538,917.4H551.48V885.453h-3.374v28.572h-23.8V917.4h10.232Z" transform="translate(-8894.041 2584.589)" fill="#bab3ab"/>
      <path id="Path_16574" data-name="Path 16574" d="M612.254,885.441H590.06v-.093h-3.374v38.534h37.519v-3.374H590.06V888.815h34.145v-3.374Z" transform="translate(-8885.123 2584.574)" fill="#bab3ab"/>
      <path id="Path_16575" data-name="Path 16575" d="M613.081,890.993H592.7V904h3.374v-9.635h27.277v-3.374H613.081Z" transform="translate(-8884.264 2585.381)" fill="#bab3ab"/>
      <path id="Path_16576" data-name="Path 16576" d="M609.656,911.513H596.069V902.38H592.7v12.505h30.65v-3.373H609.656Z" transform="translate(-8884.264 2587.009)" fill="#bab3ab"/>
      <path id="Path_16577" data-name="Path 16577" d="M571.9,907.683v16.463h3.373V885.454H571.9Z" transform="translate(-8887.237 2584.589)" fill="#bab3ab"/>
      <path id="Path_16578" data-name="Path 16578" d="M565.993,901.294v22.867h3.373V885.347h-3.373Z" transform="translate(-8888.081 2584.574)" fill="#bab3ab"/>
      <path id="Path_16579" data-name="Path 16579" d="M554.872,891.791v28.982H524.305v3.373h33.939V885.454h-3.373Z" transform="translate(-8894.041 2584.589)" fill="#bab3ab"/>
    </g>
    <rect id="Rectangle_2317" data-name="Rectangle 2317" width="195" height="195" transform="translate(-8414 3381)" fill="none"/>
  </g>
</svg>
