<svg xmlns="http://www.w3.org/2000/svg" width="195" height="195" viewBox="0 0 195 195">
  <g fill="#bab3ab" data-name="Group 7030">
    <path d="M53.232 110.068h16.942V78.121H66.8v28.572H43v3.375h10.232Z" data-name="Path 16573"/>
    <path d="M139.866 78.094h-22.194v-.093h-3.374v38.534h37.519v-3.374h-34.145V81.468h34.145v-3.374Z" data-name="Path 16574"/>
    <path d="M141.552 84.453h-20.381V97.46h3.374v-9.635h27.277v-3.374h-10.27Z" data-name="Path 16575"/>
    <path d="M138.127 106.601H124.54v-9.133h-3.369v12.505h30.65V106.6h-13.694Z" data-name="Path 16576"/>
    <path d="M97.398 100.351v16.463h3.373V78.122h-3.373Z" data-name="Path 16577"/>
    <path d="M90.647 93.947v22.867h3.373V78h-3.373Z" data-name="Path 16578"/>
    <path d="M73.566 84.459v28.982H42.999v3.373h33.939V78.122h-3.373Z" data-name="Path 16579"/>
  </g>
  <path fill="none" d="M0 0h195v195H0z" data-name="Rectangle 2317"/>
</svg>
