<svg xmlns="http://www.w3.org/2000/svg" width="195" height="195" viewBox="0 0 195 195">
  <g id="kfc" transform="translate(8688 -3193)">
    <g id="Group_7027" data-name="Group 7027" transform="translate(-5.359 9.057)">
      <path id="Path_16452" data-name="Path 16452" d="M368.975,711.651c-4.844,3.542-7.526,8.325-7.512,13.113.023,7.1,5.954,13.932,19.693,13.887a57.8,57.8,0,0,0,9.152-.806c.8-.125,1.58-.264,2.321-.413l1.6-6.606a31.245,31.245,0,0,1-8.723,1.585c-7.317.023-12.223-4.176-12.234-9.683a9.4,9.4,0,0,1,3.488-7.4c2.414-2.021,5.972-3.243,10.422-3.243,3.524,0,5.585.943,6.989,2.289a7.246,7.246,0,0,1,.77.83h1.146l2.242-7.8a33.552,33.552,0,0,0-9.351-1.4c-8.415-.109-15.252,2.162-20,5.638m-9.636,1.083a3.693,3.693,0,0,1,2.357.8,1.779,1.779,0,0,1,.753,1.245h1.128l2.186-8.466H336.07l-.433,1.656-.1.4s3.251.354,2.255,3.5l-7.413,26.065,12.607.024h2.212l.56-2.238s-2.772-.648-2.047-3.126c.034-.155,1.078-3.861,1.7-6.086.279-.96.477-1.652.477-1.652l6.786,0a7.354,7.354,0,0,1,2.617.443,4.03,4.03,0,0,1,1.881,1.269l1.968-7.747H347.7l1.236-4.424.464-1.649ZM323.26,733.286c-.879-.911-8.508-12.413-8.508-12.413l13.492-10.451.448-.349a9.322,9.322,0,0,1,1.669-1.085,4.692,4.692,0,0,1,2.358-.612l.542-2.084-17.342.025-.431,1.65-.1.408c1.178.08,2.823,1.1,1.479,2.313-.176.146-13.937,10.324-13.937,10.324l.107-.359,2.861-10.033a3.462,3.462,0,0,1,2.829-2.246l.544-2.064-16.556,0-.425,1.65-.109.408c.792.2,3.053.622,2.27,3.5-5.526,19.328-4.894,17.414-5.268,18.467-1.237,4.582-3.092,5.212-4.208,5.33-.242.023-.453.023-.606.031l-.227.866-.351,1.369H301.1l.578-2.269s-2.748-.527-2.224-2.446c.266-.964.96-3.409,1.573-5.568.594-2.1,1.121-3.932,1.121-3.932,3,4.66,3.693,5.236,7.318,10.05,3.335,4.453,6.9,4.245,15.507,4.188.7,0,1.428-.011,2.209-.011l.573-2.226c-2.182.014-3.627-1.528-4.5-2.436m79.828-26.424a2.261,2.261,0,0,0-3.093,0,2.012,2.012,0,0,0-.635,1.494,2.041,2.041,0,0,0,.635,1.505,2.144,2.144,0,0,0,1.541.622,2.17,2.17,0,0,0,1.552-.622,2.025,2.025,0,0,0,.641-1.505,1.98,1.98,0,0,0-.641-1.494m-.214,2.791a1.839,1.839,0,0,1-1.337.541,1.81,1.81,0,0,1-1.325-.541,1.791,1.791,0,0,1,0-2.582,1.823,1.823,0,0,1,1.325-.54,1.857,1.857,0,0,1,1.337.54,1.8,1.8,0,0,1,0,2.582" transform="translate(-8928.428 2558.934)" fill="#bab3ab"/>
      <path id="Path_16453" data-name="Path 16453" d="M387.909,707.709a.59.59,0,0,0-.369-.59,2.233,2.233,0,0,0-.657-.076h-.839v2.322h.414v-.918h.333a1.13,1.13,0,0,1,.483.077.573.573,0,0,1,.215.535v.178l.018.08v.026a.034.034,0,0,0,.013.023h.39l-.007-.033c-.023-.017-.023-.055-.033-.118v-.344a.614.614,0,0,0-.134-.365.586.586,0,0,0-.408-.225.846.846,0,0,0,.344-.112.52.52,0,0,0,.238-.461m-.667.407a1.179,1.179,0,0,1-.39.043h-.391v-.836h.358a1.1,1.1,0,0,1,.52.085.358.358,0,0,1,.159.343.375.375,0,0,1-.256.365" transform="translate(-8913.808 2559.082)" fill="#bab3ab"/>
    </g>
    <rect id="Rectangle_2314" data-name="Rectangle 2314" width="195" height="195" transform="translate(-8688 3193)" fill="none"/>
  </g>
</svg>
