<svg xmlns="http://www.w3.org/2000/svg" xmlns:xlink="http://www.w3.org/1999/xlink" width="195" height="195" viewBox="0 0 195 195">
  <defs>
    <path id="a" d="M0 0h2.04v11.907H0z" data-name="Rectangle 2267"/>
  </defs>
  <g fill="#bab3ab" data-name="Group 7013" transform="translate(8404.285 -2402)">
    <path fill-rule="evenodd" d="M-8326.419 2541.211v-1.542c-2.815.383-6.486-1.063-6.419-4.386 0-3.229 2.676-4.456 6.425-4.4v-1.568c-4.176-.15-8.672 1.168-8.773 5.97.045 4.382 3.8 6.27 8.761 5.927" data-name="Path 16590"/>
    <path fill-rule="evenodd" d="M-8360.823 2541.507a6.237 6.237 0 1 0-6.031-6.234 6.146 6.146 0 0 0 6.031 6.234m0-1.7c2.1 0 3.8-2.037 3.8-4.533s-1.709-4.533-3.8-4.533-3.8 2.036-3.8 4.533 1.709 4.533 3.8 4.533" data-name="Path 16591"/>
    <path fill-rule="evenodd" d="M-8268.195 2541.507a6.237 6.237 0 1 0-6.031-6.234 6.146 6.146 0 0 0 6.031 6.234m0-1.7c2.1 0 3.8-2.037 3.8-4.533s-1.709-4.533-3.8-4.533-3.8 2.036-3.8 4.533 1.709 4.533 3.8 4.533" data-name="Path 16592"/>
    <use xlink:href="#a" data-name="Rectangle 2267" transform="translate(-8378.285 2529.389)"/>
    <use xlink:href="#a" data-name="Rectangle 2268" transform="translate(-8339.313 2529.389)"/>
    <use xlink:href="#a" data-name="Rectangle 2269" transform="translate(-8291.682 2529.389)"/>
    <path fill-rule="evenodd" d="M-8344.271 2529.388h1.933v11.907h-1.686c-1.61-4.035-4.843-7.994-6.96-9.249v9.249h-1.933v-11.907h1.5a20.744 20.744 0 0 1 7.142 7.4Z" data-name="Path 16593"/>
    <path fill-rule="evenodd" d="M-8277.928 2529.388h1.933v11.907h-1.686c-1.61-4.035-4.842-7.994-6.959-9.249v9.249h-1.933v-11.907h1.5a20.743 20.743 0 0 1 7.142 7.4Z" data-name="Path 16594"/>
    <path fill-rule="evenodd" d="M-8372.319 2534.239a14.6 14.6 0 0 1 5 7.057h-2.273a14.715 14.715 0 0 0-5.564-6.742l4.9-5.165h2.524Z" data-name="Path 16595"/>
    <path fill-rule="evenodd" d="M-8325.579 2541.271h2.02l3.318-7.717 3.991 7.741 2.38-.024-6.323-12.021Z" data-name="Path 16596"/>
    <path fill-rule="evenodd" d="M-8260.292 2529.388h2.133v10.339h4.715v1.563h-6.848v-11.902Z" data-name="Path 16597"/>
    <path fill-rule="evenodd" d="M-8246.199 2529.388v1.551h-3.047v10.356h-2.04v-10.356h-3.047v-1.551Z" data-name="Path 16598"/>
    <path fill-rule="evenodd" d="M-8247.425 2541.271h2.02l3.318-7.717 3.991 7.741 2.38-.024-6.326-12.02Z" data-name="Path 16599"/>
    <path fill-rule="evenodd" d="m-8309.086 2541.272 2.188.024a407.154 407.154 0 0 1 1.724-7.8 35.923 35.923 0 0 1 3.109 6.794h1.479a36.046 36.046 0 0 1 3.109-6.794c.6 2.568 1.173 5.188 1.724 7.8l2.188-.024c-1.077-4.007-1.88-8.014-3.365-12.022a35.144 35.144 0 0 0-4.395 7.994 30.947 30.947 0 0 0-4.394-7.994c-1.486 4.007-2.288 8.014-3.366 12.022" data-name="Path 16600"/>
    <path fill-rule="evenodd" d="M-8284.321 2466.418a29.4 29.4 0 0 1 9.179 13.244.669.669 0 0 1-.442.685l-4.831.161-26.569.2h-25.687l-8.333-.12a.6.6 0 0 1-.4-.523 21.472 21.472 0 0 1 2.733-6.039c7.89-12.359 22.343-17.834 37.037-15.5a35.489 35.489 0 0 1 17.313 7.892m8.938 29.749a.589.589 0 0 1 .4.766c-3.944 12.721-17.028 20.893-29.91 21.819-13.929.966-27.375-5.032-34.339-16.788a25.743 25.743 0 0 1-2.094-5.112.519.519 0 0 1 .362-.6l1.127-.161 20.129-.081h39.654Zm.926-3.864c.806.6.161 1.732.081 2.576-.161.161-.161.443-.483.443l-5.112-.124-17.514-1-11.473-.442-18.357.846-11.151.725c-1.127-.081-2.255.241-3.3-.081a4.581 4.581 0 0 1-.523-2.455c.685-.6 1.65-.161 2.455-.4l25.685.683h13.042l16.989-.523a197.17 197.17 0 0 1 9.661-.241m.765-3.3a7.009 7.009 0 0 1-.08 2.254c-.484.6-1.208.242-1.812.322l-12.8-.6-12.56-.523-15.3.08-10.547.362-13.929.766a4.2 4.2 0 0 1-1.73-.081 4.291 4.291 0 0 1-.241-2.5l.4-.241h3.22l20.572.765 12.48.081 9.58-.161 21.015-.886c.563.081 1.328-.241 1.73.362m-.241-3.744c.161.725.6 2.094-.241 2.617h-4.509l-17.471-.765-15.66-.041-10.065.2-19.363.766c-.523-.081-1.208.2-1.49-.4a7.759 7.759 0 0 1 .041-2.174c.482-.725 1.288-.2 1.892-.362l21.618 1.128c5.958.161 12.279.08 18.075.08l12.48-.6 12.964-.766c.522 0 1.368-.281 1.731.322m-.765-3.864a3.561 3.561 0 0 1 .442 2.576l-.362.2-7.165-.04-17.673-.4-12.721-.081-12.359.322-15.135.348-2.254-.08c-.967-.443-.2-1.57-.161-2.335.161-.2.322-.523.6-.523l5.073.161 15.056.846 13.687.6 24.114-1.369c2.859-.241 5.717-.442 8.575-.442Z" data-name="Path 16601"/>
  </g>
  <path fill="none" d="M0 0h195v195H0z" data-name="Rectangle 2298"/>
</svg>
