<svg xmlns="http://www.w3.org/2000/svg" width="195" height="195" viewBox="0 0 195 195">
  <g id="konica-minolta" transform="translate(8414 -2408)">
    <g id="Group_7013" data-name="Group 7013" transform="translate(-9.715 6)">
      <path id="Path_16590" data-name="Path 16590" d="M563.3,74.294l0-1.542c-2.815.383-6.486-1.063-6.419-4.386,0-3.229,2.676-4.456,6.425-4.4l0-1.568c-4.176-.15-8.672,1.168-8.773,5.97.045,4.382,3.8,6.27,8.761,5.927" transform="translate(-8889.719 2466.917)" fill="#bab3ab" fill-rule="evenodd"/>
      <path id="Path_16591" data-name="Path 16591" d="M532.858,74.623a6.237,6.237,0,1,0-6.031-6.234,6.146,6.146,0,0,0,6.031,6.234m0-1.7c2.1,0,3.8-2.037,3.8-4.533s-1.709-4.533-3.8-4.533-3.8,2.036-3.8,4.533,1.709,4.533,3.8,4.533" transform="translate(-8893.681 2466.884)" fill="#bab3ab" fill-rule="evenodd"/>
      <path id="Path_16592" data-name="Path 16592" d="M613.9,74.623a6.237,6.237,0,1,0-6.031-6.234,6.146,6.146,0,0,0,6.031,6.234m0-1.7c2.1,0,3.8-2.037,3.8-4.533s-1.709-4.533-3.8-4.533-3.8,2.036-3.8,4.533,1.709,4.533,3.8,4.533" transform="translate(-8882.095 2466.884)" fill="#bab3ab" fill-rule="evenodd"/>
      <rect id="Rectangle_2267" data-name="Rectangle 2267" width="2.04" height="11.907" transform="translate(-8378.285 2529.389)" fill="#bab3ab"/>
      <rect id="Rectangle_2268" data-name="Rectangle 2268" width="2.04" height="11.907" transform="translate(-8339.313 2529.389)" fill="#bab3ab"/>
      <rect id="Rectangle_2269" data-name="Rectangle 2269" width="2.04" height="11.907" transform="translate(-8291.682 2529.389)" fill="#bab3ab"/>
      <path id="Path_16593" data-name="Path 16593" d="M547.667,62.461H549.6V74.368h-1.686c-1.61-4.035-4.843-7.994-6.96-9.249v9.249h-1.933V62.461h1.5a20.744,20.744,0,0,1,7.142,7.4Z" transform="translate(-8891.938 2466.927)" fill="#bab3ab" fill-rule="evenodd"/>
      <path id="Path_16594" data-name="Path 16594" d="M605.711,62.461h1.933V74.368h-1.686c-1.61-4.035-4.842-7.994-6.959-9.249v9.249h-1.933V62.461h1.5a20.743,20.743,0,0,1,7.142,7.4Z" transform="translate(-8883.639 2466.927)" fill="#bab3ab" fill-rule="evenodd"/>
      <path id="Path_16595" data-name="Path 16595" d="M522.4,67.312a14.6,14.6,0,0,1,5,7.057h-2.273a14.715,14.715,0,0,0-5.564-6.742l4.9-5.165h2.524Z" transform="translate(-8894.719 2466.927)" fill="#bab3ab" fill-rule="evenodd"/>
      <path id="Path_16596" data-name="Path 16596" d="M562.939,74.361h2.02l3.318-7.717,3.991,7.741,2.38-.024-6.323-12.021Z" transform="translate(-8888.518 2466.91)" fill="#bab3ab" fill-rule="evenodd"/>
      <path id="Path_16597" data-name="Path 16597" d="M620.06,62.461h2.133V72.8h4.715v1.563H620.06V62.461Z" transform="translate(-8880.352 2466.927)" fill="#bab3ab" fill-rule="evenodd"/>
      <path id="Path_16598" data-name="Path 16598" d="M633.407,62.461v1.551h-3.047V74.368h-2.04V64.012h-3.047V62.461Z" transform="translate(-8879.606 2466.927)" fill="#bab3ab" fill-rule="evenodd"/>
      <path id="Path_16599" data-name="Path 16599" d="M631.317,74.361h2.02l3.318-7.717,3.991,7.741,2.38-.024L636.7,62.341Z" transform="translate(-8878.742 2466.91)" fill="#bab3ab" fill-rule="evenodd"/>
      <path id="Path_16600" data-name="Path 16600" d="M577.369,74.362l2.188.024c.552-2.612,1.128-5.231,1.724-7.8a35.923,35.923,0,0,1,3.109,6.794h1.479a36.046,36.046,0,0,1,3.109-6.794c.6,2.568,1.173,5.188,1.724,7.8l2.188-.024c-1.077-4.007-1.88-8.014-3.365-12.022a35.144,35.144,0,0,0-4.395,7.994,30.947,30.947,0,0,0-4.394-7.994c-1.486,4.007-2.288,8.014-3.366,12.022" transform="translate(-8886.455 2466.91)" fill="#bab3ab" fill-rule="evenodd"/>
      <path id="Path_16601" data-name="Path 16601" d="M606.35,8.42a29.4,29.4,0,0,1,9.179,13.244.669.669,0,0,1-.442.685l-4.831.161-26.569.2H558l-8.333-.12a.6.6,0,0,1-.4-.523A21.472,21.472,0,0,1,552,16.028c7.89-12.359,22.343-17.834,37.037-15.5A35.489,35.489,0,0,1,606.35,8.42m8.938,29.749a.589.589,0,0,1,.4.766c-3.944,12.721-17.028,20.893-29.91,21.819-13.929.966-27.375-5.032-34.339-16.788a25.743,25.743,0,0,1-2.094-5.112.519.519,0,0,1,.362-.6l1.127-.161,20.129-.081h39.654Zm.926-3.864c.806.6.161,1.732.081,2.576-.161.161-.161.443-.483.443L610.7,37.2,593.186,36.2l-11.473-.442-18.357.846-11.151.725c-1.127-.081-2.255.241-3.3-.081a4.581,4.581,0,0,1-.523-2.455c.685-.6,1.65-.161,2.455-.4l25.685.683h13.042l16.989-.523c3.181-.16,6.562-.241,9.661-.241m.765-3.3a7.009,7.009,0,0,1-.08,2.254c-.484.6-1.208.242-1.812.322l-12.8-.6-12.56-.523-15.3.08-10.547.362-13.929.766a4.2,4.2,0,0,1-1.73-.081,4.291,4.291,0,0,1-.241-2.5l.4-.241h3.22l20.572.765,12.48.081,9.58-.161,21.015-.886c.563.081,1.328-.241,1.73.362m-.241-3.744c.161.725.6,2.094-.241,2.617h-4.509l-17.471-.765-15.66-.041-10.065.2-19.363.766c-.523-.081-1.208.2-1.49-.4a7.759,7.759,0,0,1,.041-2.174c.482-.725,1.288-.2,1.892-.362l21.618,1.128c5.958.161,12.279.08,18.075.08l12.48-.6,12.964-.766c.522,0,1.368-.281,1.731.322m-.765-3.864a3.561,3.561,0,0,1,.442,2.576l-.362.2-7.165-.04-17.673-.4-12.721-.081-12.359.322L551,26.334l-2.254-.08c-.967-.443-.2-1.57-.161-2.335.161-.2.322-.523.6-.523l5.073.161,15.056.846,13.687.6,24.114-1.369c2.859-.241,5.717-.442,8.575-.442Z" transform="translate(-8890.671 2457.998)" fill="#bab3ab" fill-rule="evenodd"/>
    </g>
    <rect id="Rectangle_2298" data-name="Rectangle 2298" width="195" height="195" transform="translate(-8414 2408)" fill="none"/>
  </g>
</svg>
