<svg xmlns="http://www.w3.org/2000/svg" width="195" height="195" viewBox="0 0 195 195">
  <g id="manya" transform="translate(8154 -3381)">
    <g id="Group_7029" data-name="Group 7029" transform="translate(-0.41 -9.887)">
      <path id="Path_16505" data-name="Path 16505" d="M839.87,864.85l-21.423,13.006c-.121-.1-.243-.2-.368-.3l21.812-13.24H844v2.991l-23.065,12.706q-.844-.792-1.73-1.536l23.5-13.631Z" transform="translate(-8852.041 2581.568)" fill="#bab3ab"/>
      <path id="Path_16506" data-name="Path 16506" d="M810,921.236l24.1-17.282-.006.64-23.965,17.188h0Z" transform="translate(-8853.195 2587.234)" fill="#bab3ab"/>
      <path id="Path_16507" data-name="Path 16507" d="M834.1,901.5l.016.306L809.59,919.392l-.1-.487c0-.022-.009-.047-.014-.069l24.6-17.641Z" transform="translate(-8853.271 2586.84)" fill="#bab3ab"/>
      <path id="Path_16508" data-name="Path 16508" d="M833.893,906.857l-.059.674-23.078,16.551-.15-.528Z" transform="translate(-8853.109 2587.649)" fill="#bab3ab"/>
      <path id="Path_16509" data-name="Path 16509" d="M809.019,916.363l24.832-17.809.072.583-24.807,17.791c-.034-.187-.066-.375-.1-.566" transform="translate(-8853.336 2586.462)" fill="#bab3ab"/>
      <path id="Path_16510" data-name="Path 16510" d="M833.409,909.919l-.11.715-21.815,15.641-.175-.509Z" transform="translate(-8853.009 2588.087)" fill="#bab3ab"/>
      <path id="Path_16511" data-name="Path 16511" d="M833.547,896.585,808.7,914.4c-.031-.191-.059-.381-.088-.571l24.826-17.806Z" transform="translate(-8853.395 2586.1)" fill="#bab3ab"/>
      <path id="Path_16512" data-name="Path 16512" d="M812.15,927.836l20.429-14.652-.013.062-.182.712-20.023,14.359Z" transform="translate(-8852.889 2588.554)" fill="#bab3ab"/>
      <path id="Path_16513" data-name="Path 16513" d="M832.993,894.137l-24.652,17.678c-.024-.194-.049-.391-.071-.584L832.856,893.6Z" transform="translate(-8853.443 2585.754)" fill="#bab3ab"/>
      <path id="Path_16514" data-name="Path 16514" d="M832.1,891.275l.166.519-24.226,17.372c-.022-.2-.041-.394-.059-.591Z" transform="translate(-8853.484 2585.421)" fill="#bab3ab"/>
      <path id="Path_16515" data-name="Path 16515" d="M831.186,889.051l.193.49-23.574,16.907c-.018-.2-.031-.4-.043-.6l23.42-16.795Z" transform="translate(-8853.516 2585.104)" fill="#bab3ab"/>
      <path id="Path_16516" data-name="Path 16516" d="M827.822,865.555l-12.932,9.275c-.134-.085-.272-.169-.409-.254l13.2-9.465h3.594v3.166l-13.449,8.579q-1.025-.773-2.092-1.478l14.277-9.824Z" transform="translate(-8852.556 2581.681)" fill="#bab3ab"/>
      <path id="Path_16517" data-name="Path 16517" d="M816.91,931.8l8.279-5.94-.1.138-.409.55-.411.527-.162.2,0,0L817.8,931.8l-.088.009-.094.007-.093.006-.094,0h-.185l-.094-.007-.09,0-.09-.01Z" transform="translate(-8852.208 2590.366)" fill="#bab3ab"/>
      <path id="Path_16518" data-name="Path 16518" d="M814.975,931.509l-.162-.137-.159-.144-.05-.047,14.377-10.311-.465.9-.066.115L815,931.531Z" transform="translate(-8852.538 2589.653)" fill="#bab3ab"/>
      <path id="Path_16519" data-name="Path 16519" d="M830.909,917.626l-17.435,12.5-.134-.2-.141-.231,0,0L831.23,916.76l-.146.416Z" transform="translate(-8852.739 2589.065)" fill="#bab3ab"/>
      <path id="Path_16520" data-name="Path 16520" d="M812.932,886.853l10.339-7.417c.1.1.2.209.306.315.018.022.038.041.056.063l-10.7,7.669h0c.006-.209,0-.418,0-.631" transform="translate(-8852.776 2583.729)" fill="#bab3ab"/>
      <path id="Path_16521" data-name="Path 16521" d="M820.569,872.474,758.8,916.767c-.035-.187-.066-.378-.1-.566l61.353-44c.173.085.339.175.51.269" transform="translate(-8860.529 2582.695)" fill="#bab3ab"/>
      <path id="Path_16522" data-name="Path 16522" d="M821.807,878.132l-9.119,6.539h0c-.037-.181-.081-.362-.128-.541l6.171-4.428h0l2.995-1.648c.029.025.053.049.081.078" transform="translate(-8852.83 2583.531)" fill="#bab3ab"/>
      <path id="Path_16523" data-name="Path 16523" d="M812.66,890.078l12.447-8.931h0l.328.4-12.988,9.316c.078-.26.146-.525.209-.788" transform="translate(-8852.846 2583.974)" fill="#bab3ab"/>
      <path id="Path_16524" data-name="Path 16524" d="M810.886,894.627l16.26-11.661.047.065.247.357-18,12.91.025-.025a13.1,13.1,0,0,0,1.421-1.646Z" transform="translate(-8853.276 2584.233)" fill="#bab3ab"/>
      <path id="Path_16525" data-name="Path 16525" d="M817.969,871.307,758.445,914c-.025-.2-.043-.4-.056-.6l59.039-42.339c.182.078.362.159.541.247" transform="translate(-8860.575 2582.531)" fill="#bab3ab"/>
      <path id="Path_16526" data-name="Path 16526" d="M829.107,885.339l-21.569,15.467c.013-.231.038-.458.072-.687h0l21.232-15.227.177.3Z" transform="translate(-8853.548 2584.509)" fill="#bab3ab"/>
      <path id="Path_16527" data-name="Path 16527" d="M830.329,887.394l-22.7,16.272c-.013-.2-.022-.406-.032-.609l22.5-16.138.053.1Z" transform="translate(-8853.539 2584.799)" fill="#bab3ab"/>
      <path id="Path_16528" data-name="Path 16528" d="M811.342,869.235c.217.053.438.11.655.169l-53.663,38.485c.013-.225.03-.447.048-.672l52.961-37.979Z" transform="translate(-8860.583 2582.271)" fill="#bab3ab"/>
      <path id="Path_16529" data-name="Path 16529" d="M804.393,885.307l-5.762,3.5,5.071-3.638,0,0,7.988-5.093-7.289,5.228Z" transform="translate(-8854.821 2583.82)" fill="#bab3ab"/>
      <path id="Path_16530" data-name="Path 16530" d="M807.781,868.615c.24.038.481.078.718.122v0L758.666,904.48a.621.621,0,0,1,.013-.09c.034-.213.069-.425.105-.634l49-35.135Z" transform="translate(-8860.535 2582.182)" fill="#bab3ab"/>
      <path id="Path_16531" data-name="Path 16531" d="M804.591,868.3l-45.265,32.462c.063-.26.131-.521.2-.781l0,0,44.259-31.74v-.009c.269.016.534.038.8.059Z" transform="translate(-8860.44 2582.127)" fill="#bab3ab"/>
      <path id="Path_16532" data-name="Path 16532" d="M800.157,868.155l-39.743,28.5c.1-.29.209-.577.315-.862l38.507-27.614c.306-.013.611-.019.921-.025" transform="translate(-8860.285 2582.116)" fill="#bab3ab"/>
      <path id="Path_16533" data-name="Path 16533" d="M794.887,868.489,762.13,891.976c.165-.335.334-.669.509-1l31.128-22.325c.371-.063.746-.119,1.121-.166" transform="translate(-8860.04 2582.164)" fill="#bab3ab"/>
      <path id="Path_16534" data-name="Path 16534" d="M790.368,902.832a.062.062,0,0,1-.025,0h-.034Z" transform="translate(-8856.011 2587.074)" fill="#bab3ab"/>
      <path id="Path_16535" data-name="Path 16535" d="M790.307,902.838l-.081,0h-.1c.059,0,.119,0,.178,0" transform="translate(-8856.037 2587.075)" fill="#bab3ab"/>
      <path id="Path_16536" data-name="Path 16536" d="M789.647,921.737,772.825,933.8c-.182-.078-.359-.159-.537-.247l17.188-12.328c.062.168.121.341.172.512" transform="translate(-8858.588 2589.704)" fill="#bab3ab"/>
      <path id="Path_16537" data-name="Path 16537" d="M786.531,902.672l0,0v-.031l0-.009v-.02l0-.022,0-.022.006-.025.013-.049.029-.1.04-.143.047-.15.054-.153.053-.15.059-.147.063-.15.065-.146.069-.144.072-.144.072-.134.072-.135.074-.128.078-.128.079-.125.081-.122.085-.118.083-.117.085-.112.088-.109.087-.1.09-.1.091-.1.093-.094.091-.094.1-.088.094-.083.1-.081.1-.079.1-.074.1-.069.1-.066.1-.065.1-.059.1-.056.1-.054.1-.049.106-.047.106-.045.106-.04.11-.038.106-.034.109-.034.113-.028.112-.025.11-.024.115-.023.112-.015.115-.019.119-.013.115-.011.119-.007.119-.006.121-.007h.243l.126,0,.125,0,.128.009.128.009.128.009.132.016.13.018.131.02.135.022.134.025.135.027.137.032.137.034.141.037.141.041.141.047.141.047.144.056.509.222.146.069.1.05.05.025.022.013.022.013.019.013.009.006.009.006.007.007.009.006.006,0,0,0,0,0,0,0,0,0,0,0v0h0l0,0v0l0,0,0,0v0h0v.007l0,0v.029l0,0v0l0,0v0l0,0,0,0,0,0v0l0,0,0,0h0l0,0,0,0,0,0,0,0-.007,0-.009.006-.006.007-.019.013-.018.012-.047.025-.11.065-.031.018-.032.022-.031.023-.034.024-.034.025-.034.029-.034.027-.034.032-.034.034-.034.034-.034.038-.034.037-.032.045-.034.043-.031.043-.031.05-.032.05-.031.052-.031.054-.029.056-.027.059-.025.062-.029.063-.025.063-.159.374-.162.429-.1.258-.059.138-.063.137-.069.141-.076.144-.04.069-.041.072-.04.068-.043.071-.047.07-.047.069-.05.065-.05.065-.053.066-.054.065-.056.063-.056.059-.059.059-.059.059-.063.052-.062.056-.066.05-.065.05-.069.049-.069.045-.069.043-.072.043-.072.038-.072.038-.074.034-.075.031-.072.031-.074.025-.075.025-.074.025-.075.018-.075.019-.071.015-.023.007a3.112,3.112,0,0,1-.386.052l-.059,0a.082.082,0,0,1-.029,0l-.178,0a4.279,4.279,0,0,1-1.823-.408l-.753-.3-.128-.043-.062-.018-.059-.02-.063-.015-.059-.016-.056-.013-.059-.013-.056-.009-.053-.007-.057-.006-.049-.007-.054,0h-.144l-.046,0-.045,0-.04.007-.041,0-.04.007-.034.006-.072.016-.166.038-.022.006-.022,0h-.016l-.009,0h-.034l0,0h-.006l0,0h-.007l0,0h0l0,0h0v0l0,0,0,0v0h0v0l0,0v0h0v-.01l0,0v-.016Zm4.047-1.83a.918.918,0,1,0-.918.918.917.917,0,0,0,.918-.918" transform="translate(-8856.552 2586.397)" fill="#bab3ab"/>
      <path id="Path_16538" data-name="Path 16538" d="M788.784,919.53l.05.078-18.259,13.1h0c-.153-.1-.306-.2-.46-.309l18.428-13.213c.087.112.166.227.243.346" transform="translate(-8858.898 2589.412)" fill="#bab3ab"/>
      <path id="Path_16539" data-name="Path 16539" d="M762.575,927.854q.463.955.99,1.88c.081.15.169.3.259.449.346.609.718,1.212,1.1,1.8h0c.094.143.187.287.287.427.387.581.793,1.156,1.218,1.718.1.137.209.274.312.409q.646.833,1.337,1.632h0c.041.05.081.1.126.148l.215.243a20.875,20.875,0,0,0,1.511,1.509c.131.115.266.234.4.346a19.021,19.021,0,0,0,1.752,1.334c.153.109.306.209.46.309h0a20.631,20.631,0,0,0,1.837,1.049c.062.031.125.063.187.09.177.088.355.169.537.247a13.525,13.525,0,0,0,2.5.8c.231.054.465.1.7.135a13.666,13.666,0,0,0,3.44.125c.362-.034.725-.081,1.085-.146a13.55,13.55,0,0,0,5.158-2.039,9.625,9.625,0,0,0,3.548-4.2,8.022,8.022,0,0,0,.334-.874h0a9.8,9.8,0,0,0,.483-2.939c0-.209,0-.415-.015-.624a9.45,9.45,0,0,0-.409-2.3c-.05-.173-.11-.344-.173-.512a9.726,9.726,0,0,0-.952-1.909l-.05-.078c-.078-.119-.155-.234-.243-.346a9.239,9.239,0,0,0-1.421-1.574c-.131-.119-.269-.234-.409-.344a9.729,9.729,0,0,0-1.938-1.2c-.023-.009-.047-.022-.069-.031-.16-.072-.319-.144-.478-.209a21.382,21.382,0,0,0-2.4-.869c-.194-.059-.387-.115-.581-.168l-.05-.013-2.14-.5c-.2-.041-.409-.081-.612-.126-.231-.043-.463-.087-.69-.137q-1.4-.281-2.8-.584l-.368-.078c-.1-.022-.2-.047-.3-.075a5,5,0,0,1-2.03-1.14,4.133,4.133,0,0,1-.362-.371,5.012,5.012,0,0,1-1-1.771.771.771,0,0,1-.024-.085c-.057-.171-.11-.344-.16-.519-.222-.711-.427-1.43-.612-2.151-.05-.178-.1-.359-.141-.537-.09-.362-.178-.728-.263-1.093l-.037-.172-.032-.166-.025-.153-.018-.15-.007-.068-.006-.072-.006-.066,0-.065v-.187l0-.059,0-.059.007-.056.009-.053.006-.057.01-.053.013-.05.011-.049.016-.05.016-.047.015-.047.019-.047.018-.047.022-.043.023-.045.024-.043.025-.04.025-.041.029-.04.031-.041.022-.031.007-.009.034-.041.031-.038.034-.04.038-.038.038-.038.037-.04.081-.075.085-.074.094-.079.094-.074.1-.079.207-.155.009-.007.493-.352L822.8,874.2c.138.085.275.168.409.253l-27.5,19.723a.144.144,0,1,0,.157.222L824.053,875q1.068.7,2.093,1.477h0l-8.394,5.352-7.988,5.093,0,0-17.691,11.28,0,.013h.013l12.6-7.651.006,0,5.762-3.5.013-.009,16.451-9.987,0,0c.125.1.246.2.368.3l-30.013,18.219a.112.112,0,0,0,.115.193l30.657-17.787q.885.744,1.73,1.536l-3,1.648h0l-6.434,3.544c.1.294.187.588.263.885.047.177.09.359.128.54a13.112,13.112,0,0,1,.3,2.38c.007.213.009.422,0,.631a13.073,13.073,0,0,1-.344,2.839c-.062.262-.13.527-.209.786a13.286,13.286,0,0,1-2,4.022,13.1,13.1,0,0,1-1.421,1.646c-.01.009-.016.016-.025.025l0,0a7.351,7.351,0,0,0-2.1,4.093c-.034.229-.059.456-.072.688a7.065,7.065,0,0,0,.013,1.089l0,.065q.022.694.056,1.386c.009.2.018.407.031.609.041.828.09,1.655.153,2.483.013.2.025.4.043.6.059.815.131,1.63.209,2.445.019.2.038.393.059.59.081.8.169,1.6.269,2.4.022.193.047.39.072.584q.149,1.185.321,2.36c.029.191.057.381.088.571q.173,1.166.375,2.324c.031.19.062.377.1.565.135.766.275,1.525.425,2.286,0,.022.009.047.013.068l.1.488.259,1.248.228.99.126.547h0l.032.141.409,1.608.121.437.15.528.16.565.456,1.446.037.113.175.509.025.069.241.662.249.64.253.613.019.043.213.481.027.059.265.559.272.53.278.5.141.237,0,0,.141.231.134.2.013.022.144.215.146.209.151.2.15.194.153.188.152.175.156.168.157.162.109.106.05.047.159.144.162.137.025.022.056.043.082.063.081.059.081.059.083.056.085.056.081.05.085.052.085.047.085.047.083.045.088.04.085.041.087.037.088.034.083.034.088.032.087.027.091.029.087.025.088.022.09.022.087.018.09.016.091.013.09.013.031,0,.059.006.09.009.091,0,.094.007h.184l.094,0,.094-.007.094-.006.087-.009h.007l.094-.013.094-.013.094-.016.1-.018.094-.022.1-.022.1-.025.1-.025.1-.029.1-.031.1-.031.1-.034.1-.038.1-.041.2-.084.2-.09.2-.1.2-.11.2-.115.2-.125.2-.131.2-.141.206-.146.2-.156.206-.162.207-.171.206-.178.206-.184.209-.191.416-.406.415-.431.415-.459.419-.48.249-.3,0,0,.162-.2.413-.528.409-.55.1-.137h0l.309-.431.4-.588.4-.6.39-.618.766-1.268.662-1.187.065-.115.465-.9.218-.422.631-1.318.35-.787.35-.842.178-.463.175-.449.147-.416.2-.571.344-1.068.33-1.152.131-.521.182-.712.013-.063h0l.279-1.258.262-1.4.056-.355.11-.716.062-.409.187-1.556.075-.862.059-.674.006-.083.05-.834.038-.846.022-.862v-.05l.006-.64v-.182l-.009-.88-.025-.89-.027-.593-.016-.306-.022-.3-.04-.6-.079-.909-.1-.912,0-.016-.072-.584-.041-.315-.134-.914-.153-.915-.034-.184-.106-.562-.031-.162L840.7,899l-.209-.9-.065-.262-.138-.537-.024-.094-.243-.883-.266-.874-.094-.288-.165-.518-.019-.056-.3-.847-.313-.831-.125-.318h0l-.193-.49,0-.007-.341-.8-.352-.778-.185-.381-.177-.372-.054-.1-.318-.628-.382-.71-.3-.534-.085-.146-.178-.3-.211-.352-.391-.625-.39-.6-.141-.206-.247-.356-.047-.066-.337-.469-.375-.5-.362-.465-.2-.247-.327-.4h0l-.115-.141.072.081a.3.3,0,0,1,.049.059c.209.243.413.487.616.734a43.339,43.339,0,0,1,3,4.143c.173.269.341.541.506.813.031.047.059.1.085.143.153.254.3.51.453.762l0,.009c.5.874.97,1.765,1.408,2.664q.435.9.831,1.814a43.793,43.793,0,0,1,3.148,11.376c.175,1.3.29,2.6.35,3.907.013.276.022.553.027.831,0,.05,0,.1,0,.146.009.328.013.653.013.981,0,.259,0,.519-.009.778,0,.1,0,.2-.007.305a.1.1,0,0,1,0,.045c-.013.552-.038,1.1-.072,1.655v.022c-.022.3-.043.6-.069.9a43.562,43.562,0,0,1-8.709,22.663c-.2.258-.4.518-.6.774s-.413.512-.622.766c-.181.222-.365.437-.556.655l-.462.516-.528.557-.269.265-.269.26-.272.249-.278.24-.274.232-.281.222-.281.209-.285.2-.284.184-.288.175-.143.081-.144.078-.144.075-.143.072-.144.068-.147.063-.143.062-.144.056-.144.057-.146.049-.144.047-.143.043-.144.038-.146.038-.144.031-.144.029-.141.025-.143.018-.144.019-.141.013-.144.009-.141,0-.141,0-.141,0-.141-.006-.137-.009-.137-.016-.137-.018-.137-.022-.138-.025-.134-.029-.135-.034-.134-.038-.131-.04-.134-.047-.131-.047-.128-.054-.128-.056-.128-.062-.128-.063-.125-.069-.126-.072-.121-.075-.122-.078-.121-.081-.119-.087-.119-.088-.115-.094-.115-.1-.115-.1-.113-.1-.109-.106-.113-.112-.105-.113-.11-.115-.1-.121-.106-.122-.1-.125-.1-.131-.1-.131-.2-.271-.187-.285-.184-.3-.178-.3-.169-.315-.166-.325-.162-.334-.152-.341-.151-.35-.143-.355-.272-.728-.259-.75-.478-1.533a123.219,123.219,0,0,1-5.075-31,8.69,8.69,0,0,1,2.577-6.957,11.962,11.962,0,0,0,3.025-12.129l-.031.016-3.391,1.9-.8.481-.387.243-.375.25-.365.253-.35.262-.341.266-.162.134-.16.137-.155.141-.153.144-.15.144-.144.146-.141.15-.134.153-.131.153-.128.159-.122.16-.115.166-.112.165-.106.173-.1.172-.1.178-.094.177-.087.185-.081.184-.079.19-.072.194-.065.2-.063.2-.056.2-.05.209-.047.209-.04.213-.038.219-.031.218-.025.222-.022.227-.016.229-.009.231-.009.234,0,.546v.094l0,.074V896l0,.027v.009l0,.013v.01l0,0v.013l0,0v.006h0v0l0,0,0,0h0l0,0,0,0h0v0h0v0h0l0,0v0l0,0v0l0,0,0,0v0l-.007-.006,0-.01-.007-.013,0-.009-.007-.013-.009-.024-.013-.032-.022-.069-.029-.085-.056-.2-.065-.24-.135-.568-.131-.64-.125-.662-.128-.665-.031-.147-.031-.137-.035-.128-.034-.122-.015-.056-.019-.053-.022-.054-.018-.049-.022-.05-.019-.047-.013-.022-.013-.019-.009-.022-.013-.022-.013-.018-.013-.019-.011-.018-.013-.018-.013-.019-.013-.016-.013-.015-.016-.019-.013-.011-.015-.016-.013-.016-.016-.013-.016-.013-.015-.013-.016-.013-.016-.011-.018-.01-.016-.009-.018-.009-.016-.009-.018-.009-.019-.007-.018-.009-.018-.007-.019-.006-.022,0-.018-.006-.022,0-.022-.006h-.023l-.022,0-.022,0h-.119l-.025,0h-.024l-.029,0-.025.006-.027,0-.029.006-.029,0-.059.013-.058.016-.063.018-.066.018-.069.025-.069.025-.072.029-.074.027-.157.069-.168.079-.182.09-.39.209L776.9,908.648a2.57,2.57,0,0,0-1.015,1.271l-1.558,3.413-.1.232-.094.215-.078.2-.034.094-.032.09-.027.088-.029.085-.022.084-.018.078-.016.078-.016.078-.006.038,0,.034-.006.038,0,.038,0,.038,0,.034v.072l0,.036,0,.034v.034l0,.038v.034l0,.034.006.038,0,.034.007.038.006.034.013.072.018.074.019.075.022.075.025.078.025.081.031.081.065.175.288.712a4.617,4.617,0,0,0,3.662,2.767,36.808,36.808,0,0,1,13.254,4.315,14.2,14.2,0,0,1,4.834,17.847c-3.057,6.157-9.914,8.793-16.712,6.748a25.791,25.791,0,0,1-10.112-6.005c-.128-.119-.256-.24-.381-.359q-.77-.746-1.481-1.531c-.121-.128-.233-.256-.349-.384l-.341-.387c-.119-.141-.241-.283-.359-.427-.157-.187-.31-.371-.46-.562-.056-.065-.112-.134-.166-.206-.2-.247-.39-.5-.581-.746s-.357-.475-.531-.712a.606.606,0,0,1-.043-.063,43.666,43.666,0,0,1-8.275-23.752c-.009-.249-.018-.5-.025-.749V912.5c0-.112-.006-.225-.009-.337,0-.256-.007-.516-.007-.775v-.015c0-.247,0-.494.007-.741,0-.121.006-.247.009-.371,0-.05,0-.1,0-.146.006-.194.013-.387.018-.582,0-.04,0-.081.007-.118q.041-.919.121-1.843c.029-.315.059-.634.094-.95a43.621,43.621,0,0,1,2.436-10.334,44.212,44.212,0,0,1,2.486-5.542c.137-.25.272-.5.413-.75.13-.234.265-.469.4-.7q.305-.514.618-1.021a43.979,43.979,0,0,1,10.087-11.226c.274-.216.553-.429.831-.638.141-.1.281-.209.424-.312s.281-.206.425-.306c.191-.134.381-.269.575-.4.224-.153.449-.3.674-.453.018-.013.034-.022.049-.034q.662-.432,1.334-.84l0,0a44.1,44.1,0,0,1,13.619-5.387q.4-.084.806-.162l.456-.085.262-.047c.1-.018.2-.034.3-.049a44.087,44.087,0,0,1,13.834-.088c.327.05.658.106.983.162.294.054.587.106.881.166q.473.1.946.2a44.314,44.314,0,0,1,5.465,1.6l-.007,0c-.853-.281-1.7-.534-2.56-.755-.218-.059-.438-.115-.656-.169q-1.4-.341-2.795-.586c-.238-.043-.478-.085-.718-.122q-1.546-.249-3.1-.377c-.269-.022-.534-.045-.8-.059-1.162-.079-2.324-.106-3.476-.088-.31.007-.615.013-.921.025q-2.071.081-4.1.357c-.375.047-.75.1-1.121.165a42.693,42.693,0,0,0-5.3,1.206c-.53.157-1.058.321-1.583.5a43,43,0,0,0-20.448,14.664c-.334.434-.66.881-.972,1.33a41.935,41.935,0,0,0-2.829,4.626c-.175.327-.344.662-.51,1q-.9,1.828-1.645,3.773c-.106.283-.213.572-.315.862s-.2.555-.29.837c-.275.824-.528,1.659-.75,2.5l0,0c-.069.259-.137.522-.2.781q-.374,1.509-.637,3.045c-.038.209-.072.422-.106.634-.006.031-.009.059-.013.09q-.219,1.414-.33,2.827c-.019.224-.038.446-.05.671-.056.881-.081,1.765-.075,2.645,0,.209,0,.422.007.631.015.834.059,1.667.134,2.495.013.2.031.4.056.6q.113,1.19.306,2.37c.031.188.063.377.1.565q.2,1.133.471,2.252c.041.182.085.362.131.543.184.722.387,1.44.615,2.149.05.171.106.344.166.516.229.694.474,1.381.746,2.061.063.162.128.328.2.49.269.662.559,1.321.872,1.967.071.16.15.316.228.472" transform="translate(-8860.875 2582.056)" fill="#bab3ab"/>
      <path id="Path_16540" data-name="Path 16540" d="M788.053,869.688l-23,16.494c.312-.449.637-.9.971-1.33l20.448-14.664c.525-.178,1.053-.343,1.583-.5" transform="translate(-8859.622 2582.335)" fill="#bab3ab"/>
      <path id="Path_16541" data-name="Path 16541" d="M785.272,916.487l-18.322,13.141-.215-.243c-.043-.05-.085-.1-.125-.148l18.115-12.99c.159.065.319.137.478.209l.069.031" transform="translate(-8859.399 2588.992)" fill="#bab3ab"/>
      <path id="Path_16542" data-name="Path 16542" d="M781.947,915.342c.193.052.387.11.581.169l-17.05,12.225c-.1-.135-.209-.272-.313-.409l16.732-12Z" transform="translate(-8859.605 2588.86)" fill="#bab3ab"/>
      <path id="Path_16543" data-name="Path 16543" d="M779.648,933.918c-.359.065-.721.112-1.083.146v0l10.124-7.261a7.921,7.921,0,0,1-.335.874Z" transform="translate(-8857.69 2590.5)" fill="#bab3ab"/>
      <path id="Path_16544" data-name="Path 16544" d="M779.334,914.8l-15.2,10.9c-.1-.141-.194-.285-.288-.427l14.8-10.611v0c.229.05.459.094.69.137Z" transform="translate(-8859.794 2588.765)" fill="#bab3ab"/>
      <path id="Path_16545" data-name="Path 16545" d="M789.69,924.308l-14.049,10.078c-.234-.038-.469-.081-.7-.135l14.736-10.567c.013.209.016.415.016.624Z" transform="translate(-8858.208 2590.055)" fill="#bab3ab"/>
      <path id="Path_16546" data-name="Path 16546" d="M776.016,914.17l-13.1,9.4c-.09-.15-.178-.3-.259-.449l12.694-9.1c.1.029.2.054.3.075l.368.078" transform="translate(-8859.965 2588.673)" fill="#bab3ab"/>
      <path id="Path_16547" data-name="Path 16547" d="M773.471,913.067l-11.654,8.36c-.079-.156-.157-.312-.229-.472l11.52-8.259a3.988,3.988,0,0,0,.362.371" transform="translate(-8860.117 2588.484)" fill="#bab3ab"/>
      <path id="Path_16548" data-name="Path 16548" d="M772.212,911.137l-11.361,8.147c-.069-.162-.134-.328-.2-.49l11.4-8.176h0c.05.175.1.348.16.519Z" transform="translate(-8860.251 2588.187)" fill="#bab3ab"/>
      <path id="Path_16549" data-name="Path 16549" d="M771.554,908.8l-11.533,8.266c-.059-.172-.115-.344-.166-.516l11.561-8.288c.043.178.09.359.141.537Z" transform="translate(-8860.365 2587.851)" fill="#bab3ab"/>
      <path id="Path_16550" data-name="Path 16550" d="M759.2,914.261l12.257-8.787-.022.031-.032.041-.027.04-.025.041-.025.04-.025.043-.022.045-.022.043-.019.047-.018.047-.016.047-.015.047-.016.049-.013.05-.013.05-.009.053-.006.057-.01.053-.006.056-11.785,8.45c-.047-.181-.09-.362-.131-.543" transform="translate(-8860.458 2587.452)" fill="#bab3ab"/>
      <path id="Path_16551" data-name="Path 16551" d="M768.231,930.956l18.749-13.449c.141.109.278.224.409.343L768.631,931.3c-.135-.112-.269-.231-.4-.346" transform="translate(-8859.168 2589.172)" fill="#bab3ab"/>
      <path id="Path_16552" data-name="Path 16552" d="M814.748,870.1c.134.05.269.1.4.157l-56.878,40.789c-.007-.209-.009-.422-.007-.631l56.3-40.374c.058.018.121.041.181.059" transform="translate(-8860.593 2582.386)" fill="#bab3ab"/>
      <rect id="Rectangle_2264" data-name="Rectangle 2264" width="96.55" height="85.252" transform="translate(-8104.589 3445.887)" fill="none"/>
      <rect id="Rectangle_2265" data-name="Rectangle 2265" width="96.55" height="85.252" transform="translate(-8104.589 3445.887)" fill="none"/>
    </g>
    <rect id="Rectangle_2316" data-name="Rectangle 2316" width="195" height="195" transform="translate(-8154 3381)" fill="none"/>
  </g>
</svg>
