<svg xmlns="http://www.w3.org/2000/svg" xmlns:xlink="http://www.w3.org/1999/xlink" width="195" height="195" viewBox="0 0 195 195">
  <defs>
    <path id="a" fill="none" d="M0 0h96.55v85.252H0z" data-name="Rectangle 2264"/>
  </defs>
  <g data-name="Group 7029" transform="translate(8153.59 -3390.887)">
    <path fill="#bab3ab" d="m-8012.171 3446.418-21.423 13.006c-.121-.1-.243-.2-.368-.3l21.812-13.24h4.109v2.991l-23.065 12.706q-.844-.792-1.73-1.536l23.5-13.631Z" data-name="Path 16505"/>
    <path fill="#bab3ab" d="m-8043.195 3508.47 24.1-17.282-.006.64-23.965 17.188Z" data-name="Path 16506"/>
    <path fill="#bab3ab" d="m-8019.171 3488.34.016.306-24.526 17.586-.1-.487c0-.022-.009-.047-.014-.069l24.6-17.641Z" data-name="Path 16507"/>
    <path fill="#bab3ab" d="m-8019.216 3494.506-.059.674-23.078 16.551-.15-.528Z" data-name="Path 16508"/>
    <path fill="#bab3ab" d="m-8044.317 3502.825 24.832-17.809.072.583-24.807 17.791-.1-.566" data-name="Path 16509"/>
    <path fill="#bab3ab" d="m-8019.6 3498.006-.11.715-21.815 15.641-.175-.509Z" data-name="Path 16510"/>
    <path fill="#bab3ab" d="m-8019.848 3482.685-24.847 17.815c-.031-.191-.059-.381-.088-.571l24.826-17.806Z" data-name="Path 16511"/>
    <path fill="#bab3ab" d="m-8040.739 3516.39 20.429-14.652-.013.062-.182.712-20.023 14.359Z" data-name="Path 16512"/>
    <path fill="#bab3ab" d="m-8020.45 3479.891-24.652 17.678c-.024-.194-.049-.391-.071-.584l24.586-17.631Z" data-name="Path 16513"/>
    <path fill="#bab3ab" d="m-8021.384 3476.696.166.519-24.226 17.372c-.022-.2-.041-.394-.059-.591Z" data-name="Path 16514"/>
    <path fill="#bab3ab" d="m-8022.33 3474.155.193.49-23.574 16.907c-.018-.2-.031-.4-.043-.6l23.42-16.795Z" data-name="Path 16515"/>
    <path fill="#bab3ab" d="m-8024.734 3447.236-12.932 9.275c-.134-.085-.272-.169-.409-.254l13.2-9.465h3.594v3.166l-13.449 8.579q-1.025-.773-2.092-1.478l14.277-9.824Z" data-name="Path 16516"/>
    <path fill="#bab3ab" d="m-8035.298 3522.166 8.279-5.94-.1.138-.409.55-.411.527-.162.2-6.307 4.525-.088.009-.094.007-.093.006h-.279l-.094-.007h-.09l-.09-.01Z" data-name="Path 16517"/>
    <path fill="#bab3ab" d="m-8037.563 3521.162-.162-.137-.159-.144-.05-.047 14.377-10.311-.465.9-.066.115-13.45 9.646Z" data-name="Path 16518"/>
    <path fill="#bab3ab" d="m-8021.83 3506.691-17.435 12.5-.134-.2-.141-.231 18.031-12.935-.146.416Z" data-name="Path 16519"/>
    <path fill="#bab3ab" d="m-8039.844 3470.582 10.339-7.417c.1.1.2.209.306.315.018.022.038.041.056.063l-10.7 7.669c.006-.209 0-.418 0-.631" data-name="Path 16520"/>
    <path fill="#bab3ab" d="m-8039.96 3455.169-61.769 44.293c-.035-.187-.066-.378-.1-.566l61.353-44c.173.085.339.175.51.269" data-name="Path 16521"/>
    <path fill="#bab3ab" d="m-8031.023 3461.663-9.119 6.539a10.11 10.11 0 0 0-.128-.541l6.171-4.428 2.995-1.648c.029.025.053.049.081.078" data-name="Path 16522"/>
    <path fill="#bab3ab" d="m-8040.186 3474.052 12.447-8.931.328.4-12.988 9.316c.078-.26.146-.525.209-.788" data-name="Path 16523"/>
    <path fill="#bab3ab" d="m-8042.39 3478.86 16.26-11.661.047.065.247.357-18 12.91.025-.025a13.1 13.1 0 0 0 1.421-1.646Z" data-name="Path 16524"/>
    <path fill="#bab3ab" d="m-8042.606 3453.838-59.524 42.693c-.025-.2-.043-.4-.056-.6l59.039-42.339c.182.078.362.159.541.247" data-name="Path 16525"/>
    <path fill="#bab3ab" d="m-8024.441 3469.848-21.569 15.467c.013-.231.038-.458.072-.687l21.232-15.227.177.3Z" data-name="Path 16526"/>
    <path fill="#bab3ab" d="m-8023.21 3472.193-22.7 16.272c-.013-.2-.022-.406-.032-.609l22.5-16.138.053.1Z" data-name="Path 16527"/>
    <path fill="#bab3ab" d="M-8049.241 3451.506c.217.053.438.11.655.169l-53.663 38.485c.013-.225.03-.447.048-.672l52.961-37.979Z" data-name="Path 16528"/>
    <path fill="#bab3ab" d="m-8050.428 3469.127-5.762 3.5 5.071-3.638 7.988-5.093-7.289 5.228Z" data-name="Path 16529"/>
    <path fill="#bab3ab" d="M-8052.754 3450.797c.24.038.481.078.718.122l-49.833 35.743a.621.621 0 0 1 .013-.09c.034-.213.069-.425.105-.634l49-35.135Z" data-name="Path 16530"/>
    <path fill="#bab3ab" d="m-8055.849 3450.427-45.265 32.462c.063-.26.131-.521.2-.781l44.259-31.74v-.009c.269.016.534.038.8.059Z" data-name="Path 16531"/>
    <path fill="#bab3ab" d="m-8060.128 3450.271-39.743 28.5c.1-.29.209-.577.315-.862l38.507-27.614c.306-.013.611-.019.921-.025" data-name="Path 16532"/>
    <path fill="#bab3ab" d="m-8065.153 3450.653-32.757 23.487c.165-.335.334-.669.509-1l31.128-22.325c.371-.063.746-.119 1.121-.166" data-name="Path 16533"/>
    <path fill="#bab3ab" d="M-8065.643 3489.906a.062.062 0 0 1-.025 0h-.034Z" data-name="Path 16534"/>
    <path fill="#bab3ab" d="M-8065.73 3489.913h-.181.178" data-name="Path 16535"/>
    <path fill="#bab3ab" d="m-8068.941 3511.441-16.822 12.063a10.829 10.829 0 0 1-.537-.247l17.188-12.328c.062.168.121.341.172.512" data-name="Path 16536"/>
    <path fill="#bab3ab" d="M-8070.021 3489.069v-.104l.006-.025.013-.049.029-.1.04-.143.047-.15.054-.153.053-.15.059-.147.063-.15.065-.146.069-.144.072-.144.072-.134.072-.135.074-.128.078-.128.079-.125.081-.122.085-.118.083-.117.085-.112.088-.109.087-.1.09-.1.091-.1.093-.094.091-.094.1-.088.094-.083.1-.081.1-.079.1-.074.1-.069.1-.066.1-.065.1-.059.1-.056.1-.054.1-.049.106-.047.106-.045.106-.04.11-.038.106-.034.109-.034.113-.028.112-.025.11-.024.115-.023.112-.015.115-.019.119-.013.115-.011.119-.007.119-.006.121-.007h.494l.128.009.128.009.128.009.132.016.13.018.131.02.135.022.134.025.135.027.137.032.137.034.141.037.141.041.141.047.141.047.144.056.509.222.146.069.1.05.05.025.022.013.022.013.019.013.009.006.009.006.007.007.009.006h.006v.036h-.007l-.009.006-.006.007-.019.013-.018.012-.047.025-.11.065-.031.018-.032.022-.031.023-.034.024-.034.025-.034.029-.034.027-.034.032-.034.034-.034.034-.034.038-.034.037-.032.045-.034.043-.031.043-.031.05-.032.05-.031.052-.031.054-.029.056-.027.059-.025.062-.029.063-.025.063-.159.374-.162.429-.1.258-.059.138-.063.137-.069.141-.076.144-.04.069-.041.072-.04.068-.043.071-.047.07-.047.069-.05.065-.05.065-.053.066-.054.065-.056.063-.056.059-.059.059-.059.059-.063.052-.062.056-.066.05-.065.05-.069.049-.069.045-.069.043-.072.043-.072.038-.072.038-.074.034-.075.031-.072.031-.074.025-.075.025-.074.025-.075.018-.075.019-.071.015-.023.007a3.112 3.112 0 0 1-.386.052h-.059a.082.082 0 0 1-.029 0h-.178a4.279 4.279 0 0 1-1.823-.408l-.753-.3-.128-.043-.062-.018-.059-.02-.063-.015-.059-.016-.056-.013-.059-.013-.056-.009-.053-.007-.057-.006-.049-.007h-.289l-.04.007h-.041l-.04.007-.034.006-.072.016-.166.038-.022.006h-.094v-.026Zm4.047-1.83a.918.918 0 1 0-.918.918.917.917 0 0 0 .918-.918" data-name="Path 16537"/>
    <path fill="#bab3ab" d="m-8070.114 3508.942.05.078-18.259 13.1c-.153-.1-.306-.2-.46-.309l18.428-13.213c.087.112.166.227.243.346" data-name="Path 16538"/>
    <path fill="#bab3ab" d="M-8098.3 3509.91q.463.955.99 1.88c.081.15.169.3.259.449.346.609.718 1.212 1.1 1.8.094.143.187.287.287.427.387.581.793 1.156 1.218 1.718.1.137.209.274.312.409q.646.833 1.337 1.632c.041.05.081.1.126.148l.215.243a20.875 20.875 0 0 0 1.511 1.509c.131.115.266.234.4.346a19.021 19.021 0 0 0 1.752 1.334c.153.109.306.209.46.309a20.631 20.631 0 0 0 1.837 1.049c.062.031.125.063.187.09.177.088.355.169.537.247a13.525 13.525 0 0 0 2.5.8c.231.054.465.1.7.135a13.666 13.666 0 0 0 3.44.125c.362-.034.725-.081 1.085-.146a13.55 13.55 0 0 0 5.158-2.039 9.625 9.625 0 0 0 3.548-4.2 8.022 8.022 0 0 0 .334-.874 9.8 9.8 0 0 0 .483-2.939c0-.209 0-.415-.015-.624a9.45 9.45 0 0 0-.409-2.3 6.998 6.998 0 0 0-.173-.512 9.726 9.726 0 0 0-.952-1.909l-.05-.078a4.884 4.884 0 0 0-.243-.346 9.239 9.239 0 0 0-1.421-1.574 7.51 7.51 0 0 0-.409-.344 9.729 9.729 0 0 0-1.938-1.2c-.023-.009-.047-.022-.069-.031-.16-.072-.319-.144-.478-.209a21.382 21.382 0 0 0-2.4-.869 21.155 21.155 0 0 0-.581-.168l-.05-.013-2.14-.5c-.2-.041-.409-.081-.612-.126a21.578 21.578 0 0 1-.69-.137q-1.4-.281-2.8-.584l-.368-.078c-.1-.022-.2-.047-.3-.075a5 5 0 0 1-2.03-1.14 4.133 4.133 0 0 1-.362-.371 5.012 5.012 0 0 1-1-1.771.771.771 0 0 1-.024-.085c-.057-.171-.11-.344-.16-.519a43.508 43.508 0 0 1-.612-2.151c-.05-.178-.1-.359-.141-.537-.09-.362-.178-.728-.263-1.093l-.037-.172-.032-.166-.025-.153-.018-.15-.007-.068-.006-.072-.006-.066v-.37l.007-.056.009-.053.006-.057.01-.053.013-.05.011-.049.016-.05.016-.047.015-.047.019-.047.018-.047.022-.043.023-.045.024-.043.025-.04.025-.041.029-.04.031-.041.022-.031.007-.009.034-.041.031-.038.034-.04.038-.038.038-.038.037-.04.081-.075.085-.074.094-.079.094-.074.1-.079.207-.155.009-.007.493-.352 49.547-35.526c.138.085.275.168.409.253l-27.5 19.723a.144.144 0 1 0 .157.222l28.187-19.398q1.068.7 2.093 1.477l-8.394 5.352-7.988 5.093-17.691 11.28v.013h.013l12.6-7.651h.006l5.762-3.5.013-.009 16.451-9.987c.125.1.246.2.368.3l-30.013 18.219a.112.112 0 0 0 .115.193l30.657-17.787q.885.744 1.73 1.536l-3 1.648-6.434 3.544c.1.294.187.588.263.885.047.177.09.359.128.54a13.112 13.112 0 0 1 .3 2.38c.007.213.009.422 0 .631a13.073 13.073 0 0 1-.344 2.839c-.062.262-.13.527-.209.786a13.286 13.286 0 0 1-2 4.022 13.1 13.1 0 0 1-1.421 1.646l-.025.025a7.351 7.351 0 0 0-2.1 4.093 7.529 7.529 0 0 0-.072.688 7.065 7.065 0 0 0 .013 1.089v.065q.022.694.056 1.386c.009.2.018.407.031.609.041.828.09 1.655.153 2.483.013.2.025.4.043.6a106.033 106.033 0 0 0 .268 3.035 102.966 102.966 0 0 0 .341 2.984q.149 1.185.321 2.36c.029.191.057.381.088.571q.173 1.166.375 2.324c.031.19.062.377.1.565.135.766.275 1.525.425 2.286 0 .022.009.047.013.068l.1.488.259 1.248.228.99.126.547.032.141.409 1.608.121.437.15.528.16.565.456 1.446.037.113.175.509.025.069.241.662.249.64.253.613.019.043.213.481.027.059.265.559.272.53.278.5.141.237.141.231.134.2.013.022.144.215.146.209.151.2.15.194.153.188.152.175.156.168.157.162.109.106.05.047.159.144.162.137.025.022.056.043.082.063.081.059.081.059.083.056.085.056.081.05.085.052.085.047.085.047.083.045.088.04.085.041.087.037.088.034.083.034.088.032.087.027.091.029.087.025.088.022.09.022.087.018.09.016.091.013.09.013h.031l.059.006.09.009h.091l.094.007h.278l.094-.007.094-.006.087-.009h.007l.094-.013.094-.013.094-.016.1-.018.094-.022.1-.022.1-.025.1-.025.1-.029.1-.031.1-.031.1-.034.1-.038.1-.041.2-.084.2-.09.2-.1.2-.11.2-.115.2-.125.2-.131.2-.141.206-.146.2-.156.206-.162.207-.171.206-.178.206-.184.209-.191.416-.406.415-.431.415-.459.419-.48.249-.3.162-.2.413-.528.409-.55.1-.137.309-.431.4-.588.4-.6.39-.618.766-1.268.662-1.187.065-.115.465-.9.218-.422.631-1.318.35-.787.35-.842.178-.463.175-.449.147-.416.2-.571.344-1.068.33-1.152.131-.521.182-.712.013-.063.279-1.258.262-1.4.056-.355.11-.716.062-.409.187-1.556.075-.862.059-.674.006-.083.05-.834.038-.846.022-.862v-.05l.006-.64v-.182l-.009-.88-.025-.89-.027-.593-.016-.306-.022-.3-.04-.6-.079-.909-.1-.912v-.016l-.072-.584-.041-.315-.134-.914-.153-.915-.034-.184-.106-.562-.031-.162-.201-.901-.209-.9-.065-.262-.138-.537-.024-.094-.243-.883-.266-.874-.094-.288-.165-.518-.019-.056-.3-.847-.313-.831-.125-.318-.193-.49v-.007l-.341-.8-.352-.778-.185-.381-.177-.372-.054-.1-.318-.628-.382-.71-.3-.534-.085-.146-.178-.3-.211-.352-.391-.625-.39-.6-.141-.206-.247-.356-.047-.066-.337-.469-.375-.5-.362-.465-.2-.247-.327-.4-.115-.141.072.081a.3.3 0 0 1 .049.059c.209.243.413.487.616.734a43.339 43.339 0 0 1 3 4.143c.173.269.341.541.506.813.031.047.059.1.085.143.153.254.3.51.453.762v.009c.5.874.97 1.765 1.408 2.664q.435.9.831 1.814a43.793 43.793 0 0 1 3.148 11.376c.175 1.3.29 2.6.35 3.907.013.276.022.553.027.831v.146c.009.328.013.653.013.981 0 .259 0 .519-.009.778 0 .1 0 .2-.007.305a.1.1 0 0 1 0 .045c-.013.552-.038 1.1-.072 1.655v.022c-.022.3-.043.6-.069.9a43.562 43.562 0 0 1-8.709 22.663c-.2.258-.4.518-.6.774s-.413.512-.622.766c-.181.222-.365.437-.556.655l-.462.516-.528.557-.269.265-.269.26-.272.249-.278.24-.274.232-.281.222-.281.209-.285.2-.284.184-.288.175-.143.081-.144.078-.144.075-.143.072-.144.068-.147.063-.143.062-.144.056-.144.057-.146.049-.144.047-.143.043-.144.038-.146.038-.144.031-.144.029-.141.025-.143.018-.144.019-.141.013-.144.009h-.423l-.141-.006-.137-.009-.137-.016-.137-.018-.137-.022-.138-.025-.134-.029-.135-.034-.134-.038-.131-.04-.134-.047-.131-.047-.128-.054-.128-.056-.128-.062-.128-.063-.125-.069-.126-.072-.121-.075-.122-.078-.121-.081-.119-.087-.119-.088-.115-.094-.115-.1-.115-.1-.113-.1-.109-.106-.113-.112-.105-.113-.11-.115-.1-.121-.106-.122-.1-.125-.1-.131-.1-.131-.2-.271-.187-.285-.184-.3-.178-.3-.169-.315-.166-.325-.162-.334-.152-.341-.151-.35-.143-.355-.272-.728-.259-.75-.478-1.533a123.219 123.219 0 0 1-5.075-31 8.69 8.69 0 0 1 2.577-6.957 11.962 11.962 0 0 0 3.025-12.129l-.031.016-3.391 1.9-.8.481-.387.243-.375.25-.365.253-.35.262-.341.266-.162.134-.16.137-.155.141-.153.144-.15.144-.144.146-.141.15-.134.153-.131.153-.128.159-.122.16-.115.166-.112.165-.106.173-.1.172-.1.178-.094.177-.087.185-.081.184-.079.19-.072.194-.065.2-.063.2-.056.2-.05.209-.047.209-.04.213-.038.219-.031.218-.025.222-.022.227-.016.229-.009.231-.009.234v.825l-.007-.006v-.01l-.007-.013v-.009l-.007-.013-.009-.024-.013-.032-.022-.069-.029-.085-.056-.2-.065-.24-.135-.568-.131-.64-.125-.662-.128-.665-.031-.147-.031-.137-.035-.128-.034-.122-.015-.056-.019-.053-.022-.054-.018-.049-.022-.05-.019-.047-.013-.022-.013-.019-.009-.022-.013-.022-.013-.018-.013-.019-.011-.018-.013-.018-.013-.019-.013-.016-.013-.015-.016-.019-.013-.011-.015-.016-.013-.016-.016-.013-.016-.013-.015-.013-.016-.013-.016-.011-.018-.01-.016-.009-.018-.009-.016-.009-.018-.009-.019-.007-.018-.009-.018-.007-.019-.006h-.022l-.018-.006h-.022l-.022-.006h-.264l-.025.006h-.027l-.029.006h-.029l-.059.013-.058.016-.063.018-.066.018-.069.025-.069.025-.072.029-.074.027-.157.069-.168.079-.182.09-.39.209-29.93 16.439a2.57 2.57 0 0 0-1.015 1.271l-1.558 3.413-.1.232-.094.215-.078.2-.034.094-.032.09-.027.088-.029.085-.022.084-.018.078-.016.078-.016.078-.006.038v.034l-.006.038v.392l.006.038v.034l.007.038.006.034.013.072.018.074.019.075.022.075.025.078.025.081.031.081.065.175.288.712a4.617 4.617 0 0 0 3.662 2.767 36.808 36.808 0 0 1 13.254 4.315 14.2 14.2 0 0 1 4.834 17.847c-3.057 6.157-9.914 8.793-16.712 6.748a25.791 25.791 0 0 1-10.112-6.005 44.4 44.4 0 0 1-.381-.359q-.77-.746-1.481-1.531c-.121-.128-.233-.256-.349-.384l-.341-.387c-.119-.141-.241-.283-.359-.427-.157-.187-.31-.371-.46-.562a3.922 3.922 0 0 1-.166-.206c-.2-.247-.39-.5-.581-.746s-.357-.475-.531-.712a.606.606 0 0 1-.043-.063 43.666 43.666 0 0 1-8.275-23.752c-.009-.249-.018-.5-.025-.749v-.017c0-.112-.006-.225-.009-.337 0-.256-.007-.516-.007-.775v-.015c0-.247 0-.494.007-.741 0-.121.006-.247.009-.371v-.146c.006-.194.013-.387.018-.582 0-.04 0-.081.007-.118q.041-.919.121-1.843c.029-.315.059-.634.094-.95a43.621 43.621 0 0 1 2.436-10.334 44.212 44.212 0 0 1 2.486-5.542c.137-.25.272-.5.413-.75.13-.234.265-.469.4-.7q.305-.514.618-1.021a43.979 43.979 0 0 1 10.087-11.226c.274-.216.553-.429.831-.638.141-.1.281-.209.424-.312s.281-.206.425-.306c.191-.134.381-.269.575-.4.224-.153.449-.3.674-.453.018-.013.034-.022.049-.034q.662-.432 1.334-.84a44.1 44.1 0 0 1 13.619-5.387q.4-.084.806-.162l.456-.085.262-.047c.1-.018.2-.034.3-.049a44.087 44.087 0 0 1 13.834-.088c.327.05.658.106.983.162.294.054.587.106.881.166l.946.2a44.314 44.314 0 0 1 5.465 1.6h-.007a39.9 39.9 0 0 0-2.56-.755 31.593 31.593 0 0 0-.656-.169q-1.4-.341-2.795-.586a28.288 28.288 0 0 0-.718-.122q-1.546-.249-3.1-.377c-.269-.022-.534-.045-.8-.059a41.687 41.687 0 0 0-3.476-.088c-.31.007-.615.013-.921.025q-2.071.081-4.1.357c-.375.047-.75.1-1.121.165a42.693 42.693 0 0 0-5.3 1.206 40.86 40.86 0 0 0-1.583.5 43 43 0 0 0-20.448 14.664c-.334.434-.66.881-.972 1.33a41.935 41.935 0 0 0-2.829 4.626c-.175.327-.344.662-.51 1q-.9 1.828-1.645 3.773c-.106.283-.213.572-.315.862s-.2.555-.29.837a40.816 40.816 0 0 0-.75 2.5c-.069.259-.137.522-.2.781q-.374 1.509-.637 3.045c-.038.209-.072.422-.106.634-.006.031-.009.059-.013.09q-.219 1.414-.33 2.827c-.019.224-.038.446-.05.671a37.687 37.687 0 0 0-.075 2.645c0 .209 0 .422.007.631.015.834.059 1.667.134 2.495.013.2.031.4.056.6q.113 1.19.306 2.37c.031.188.063.377.1.565q.2 1.133.471 2.252a36.31 36.31 0 0 0 .746 2.692c.05.171.106.344.166.516a35.44 35.44 0 0 0 .946 2.551c.269.662.559 1.321.872 1.967.071.16.15.316.228.472" data-name="Path 16539"/>
    <path fill="#bab3ab" d="m-8071.569 3452.023-23 16.494c.312-.449.637-.9.971-1.33l20.448-14.664a42.67 42.67 0 0 1 1.583-.5" data-name="Path 16540"/>
    <path fill="#bab3ab" d="m-8074.127 3505.479-18.322 13.141-.215-.243-.125-.148 18.115-12.99c.159.065.319.137.478.209l.069.031" data-name="Path 16541"/>
    <path fill="#bab3ab" d="M-8077.658 3504.202c.193.052.387.11.581.169l-17.05 12.225c-.1-.135-.209-.272-.313-.409l16.732-12Z" data-name="Path 16542"/>
    <path fill="#bab3ab" d="M-8078.042 3524.418c-.359.065-.721.112-1.083.146l10.124-7.261a7.921 7.921 0 0 1-.335.874Z" data-name="Path 16543"/>
    <path fill="#bab3ab" d="m-8080.46 3503.565-15.2 10.9c-.1-.141-.194-.285-.288-.427l14.8-10.611c.229.05.459.094.69.137Z" data-name="Path 16544"/>
    <path fill="#bab3ab" d="m-8068.518 3514.363-14.049 10.078a10.41 10.41 0 0 1-.7-.135l14.736-10.567c.013.209.016.415.016.624Z" data-name="Path 16545"/>
    <path fill="#bab3ab" d="m-8083.949 3502.843-13.1 9.4c-.09-.15-.178-.3-.259-.449l12.694-9.1c.1.029.2.054.3.075l.368.078" data-name="Path 16546"/>
    <path fill="#bab3ab" d="m-8086.646 3501.551-11.654 8.36a11.407 11.407 0 0 1-.229-.472l11.52-8.259a3.988 3.988 0 0 0 .362.371" data-name="Path 16547"/>
    <path fill="#bab3ab" d="m-8088.039 3499.324-11.361 8.147c-.069-.162-.134-.328-.2-.49l11.4-8.176c.05.175.1.348.16.519Z" data-name="Path 16548"/>
    <path fill="#bab3ab" d="m-8088.811 3496.651-11.533 8.266a12.861 12.861 0 0 1-.166-.516l11.561-8.288c.043.178.09.359.141.537Z" data-name="Path 16549"/>
    <path fill="#bab3ab" d="m-8101.258 3501.713 12.257-8.787-.022.031-.032.041-.027.04-.025.041-.025.04-.025.043-.022.045-.022.043-.019.047-.018.047-.016.047-.015.047-.016.049-.013.05-.013.05-.009.053-.006.057-.01.053-.006.056-11.785 8.45c-.047-.181-.09-.362-.131-.543" data-name="Path 16550"/>
    <path fill="#bab3ab" d="m-8090.937 3520.128 18.749-13.449c.141.109.278.224.409.343l-18.758 13.45c-.135-.112-.269-.231-.4-.346" data-name="Path 16551"/>
    <path fill="#bab3ab" d="M-8045.845 3452.486c.134.05.269.1.4.157l-56.878 40.789c-.007-.209-.009-.422-.007-.631l56.3-40.374c.058.018.121.041.181.059" data-name="Path 16552"/>
    <use xlink:href="#a" data-name="Rectangle 2264" transform="translate(-8104.589 3445.887)"/>
    <use xlink:href="#a" data-name="Rectangle 2265" transform="translate(-8104.589 3445.887)"/>
  </g>
  <path fill="none" d="M0 0h195v195H0z" data-name="Rectangle 2316"/>
</svg>
