<svg xmlns="http://www.w3.org/2000/svg" width="195" height="195" viewBox="0 0 195 195">
  <path fill="#bab3ab" d="M112.111 72.19c5.778 0 10.46 24.347 10.46 54.38h8.367c0-32.348-8.432-58.569-18.827-58.569-5.915 0-11.19 7.883-14.641 20.205-3.451-12.322-8.73-20.205-14.643-20.205C72.427 68.001 64 94.224 64 126.57h8.365c0-30.035 4.686-54.38 10.458-54.38s10.458 22.472 10.458 50.2h8.367c0-27.728 4.688-50.2 10.463-50.2" data-name="Path 16392"/>
  <path fill="#bab3ab" d="M96.687 96.957h.4c.335 0 .647-.016.647-.406 0-.325-.282-.373-.543-.373h-.509Zm-.383-1.087h.953c.585 0 .863.23.863.7a.63.63 0 0 1-.592.665h-.055l.7 1.079h-.41l-.669-1.049h-.41v1.049h-.385Zm.824 3.008a1.785 1.785 0 1 0-1.74-1.852v.057a1.727 1.727 0 0 0 1.671 1.791Zm0-3.878A2.092 2.092 0 1 1 95 97.086v-.006A2.087 2.087 0 0 1 97.1 95Z" data-name="Path 16393"/>
  <path fill="none" d="M0 0h195v195H0z" data-name="Rectangle 2306"/>
</svg>
