<svg xmlns="http://www.w3.org/2000/svg" width="195" height="195" viewBox="0 0 195 195">
  <g id="mcdonalds" transform="translate(8688 -2814)">
    <path id="Path_16392" data-name="Path 16392" d="M355.085,342.2c5.778,0,10.46,24.347,10.46,54.38h8.367c0-32.348-8.432-58.569-18.827-58.569-5.915,0-11.19,7.883-14.641,20.205-3.451-12.322-8.73-20.205-14.643-20.205-10.4,0-18.827,26.223-18.827,58.569h8.365c0-30.035,4.686-54.38,10.458-54.38s10.458,22.472,10.458,50.2h8.367c0-27.728,4.688-50.2,10.463-50.2" transform="translate(-8930.974 2543.99)" fill="#bab3ab"/>
    <path id="Path_16393" data-name="Path 16393" d="M336.088,389.037h.4c.335,0,.647-.016.647-.406,0-.325-.282-.373-.543-.373h-.509Zm-.383-1.087h.953c.585,0,.863.23.863.7a.63.63,0,0,1-.592.665l-.055,0,.7,1.079h-.41l-.669-1.049h-.41v1.049H335.7Zm.824,3.008a1.785,1.785,0,1,0-1.74-1.852v.057a1.727,1.727,0,0,0,1.671,1.791Zm0-3.878a2.092,2.092,0,1,1-2.128,2.086v-.006a2.087,2.087,0,0,1,2.1-2.08Z" transform="translate(-8927.401 2521.92)" fill="#bab3ab"/>
    <rect id="Rectangle_2306" data-name="Rectangle 2306" width="195" height="195" transform="translate(-8688 2814)" fill="none"/>
  </g>
</svg>
