<svg xmlns="http://www.w3.org/2000/svg" width="195" height="195" viewBox="0 0 195 195">
  <g id="new-era" transform="translate(8688 -3381)">
    <g id="Group_7031" data-name="Group 7031" transform="translate(-5.632 -12.641)">
      <path id="Path_16492" data-name="Path 16492" d="M344.894,905.357h3.067v-9.394L353.994,905s.162.588,1.794.392a1.361,1.361,0,0,0,1.109-1.339V889.7h-2.968v9.556l-6.262-9.394s-2.121-.912-2.741.621Z" transform="translate(-8919.691 2585.181)" fill="#bab3ab"/>
      <path id="Path_16493" data-name="Path 16493" d="M359.876,896.087h7.992v2.708h-7.926v3.816h8.643v2.707h-8.97a2.847,2.847,0,0,1-2.707-2.87V892.14a3.03,3.03,0,0,1,2.87-2.511h8.807v2.707h-8.741Z" transform="translate(-8917.974 2585.186)" fill="#bab3ab"/>
      <path id="Path_16494" data-name="Path 16494" d="M347.886,911.607h7.992v2.707h-7.926v3.816H356.6v2.708h-8.97a2.848,2.848,0,0,1-2.708-2.87V907.66a3.032,3.032,0,0,1,2.871-2.512H356.6v2.708h-8.743Z" transform="translate(-8919.688 2587.405)" fill="#bab3ab"/>
      <path id="Path_16495" data-name="Path 16495" d="M368.551,889.6h3.132v13.144h2.967V889.73h3v12.949h2.9V889.6h3.131v12.818a2.787,2.787,0,0,1-2.837,2.9h-9.362s-2.657.342-2.918-2.887Z" transform="translate(-8916.309 2585.182)" fill="#bab3ab"/>
      <path id="Path_16496" data-name="Path 16496" d="M356.835,920.836h3.124V907.978l.251-.362h6.609l.392.334v3.375l-.392.307h-5.271l-1.143,2.51H364.2l3.32,6.694h3.513l-3.542-6.667s2.428-.39,2.651-2.593v-4.239a3.244,3.244,0,0,0-2.483-2.2H359.4a2.944,2.944,0,0,0-2.481,2.733Z" transform="translate(-8917.984 2587.403)" fill="#bab3ab"/>
      <path id="Path_16497" data-name="Path 16497" d="M370.233,920.842h3.179v-12.8l.139-.363H380l.279.224v3.625h-5.1l-1.311,2.539h6.415v6.75h3.263V907.788s-.362-2.622-3.654-2.705h-7.057a3.123,3.123,0,0,0-2.593,2.957Z" transform="translate(-8916.068 2587.396)" fill="#bab3ab"/>
      <path id="Path_16498" data-name="Path 16498" d="M378.341,922.411v-1.757h-.721V920.3h1.933v.357h-.721v1.757Z" transform="translate(-8915.013 2589.571)" fill="#bab3ab"/>
      <path id="Path_16499" data-name="Path 16499" d="M379.58,922.411V920.3h.736l.439,1.441.435-1.441h.737v2.113h-.456v-1.664l-.483,1.664h-.471l-.48-1.664v1.664Z" transform="translate(-8914.732 2589.571)" fill="#bab3ab"/>
      <path id="Path_16500" data-name="Path 16500" d="M317.708,906.422l10.481-2.06-1.015-1.553-10.87.626Z" transform="translate(-8923.778 2587.071)" fill="#bab3ab"/>
      <path id="Path_16501" data-name="Path 16501" d="M326.267,901.262c-1.165-1.852-1.672-1.7-1.672-1.7l-10.72-1.166,1.313,2.659Z" transform="translate(-8924.126 2586.439)" fill="#bab3ab"/>
      <path id="Path_16502" data-name="Path 16502" d="M300.087,896.69l5.225.717s1.553.149,2.478,2.657l2.777,7.554s5.106-.478,5.762.478l-5.015-11.137a5.88,5.88,0,0,0-3.941-2.329l-5.913-1.224a1.476,1.476,0,0,0-1.672,1.4s-.239.269-.328-.089l-.3-1.7-6.628-1.493,3.644,18.1,7.405-1.046Z" transform="translate(-8927.178 2585.457)" fill="#bab3ab"/>
      <path id="Path_16503" data-name="Path 16503" d="M332.169,905.683l-14.213,4.15s-.6.359-.834-.656c0,0-.3-2.717-7.168-1.194l-13.765,2.508,1.135,5.374,16.75-4.956a18.508,18.508,0,0,1,3.017-.389s.478-.119,1.1.837a2.767,2.767,0,0,0,2.956,1.343,59.513,59.513,0,0,0,11.736-4.987s.478-.119.178-.656Z" transform="translate(-8926.654 2587.481)" fill="#bab3ab"/>
      <path id="Path_16504" data-name="Path 16504" d="M404.194,937.448h-58.63V878.592l58.63.063ZM337.472,912.29,325.111,919.4c-3.136,2.24-4.688,1.97-4.688,1.97a2.515,2.515,0,0,1-2.776-1.911c-.537-.954-2.15-.686-2.15-.686l-18.3,7.017c-4.479,1.821-4.479-2.389-4.479-2.389l-4.119-30.932a2.2,2.2,0,0,1,2.3-2.448l18.482,4.567c4.15,1.135,5.225,4.031,5.225,4.031l13.557,2.269a4.291,4.291,0,0,1,3.343,1.97l5.763,8.9c.3.358.209.537.209.537m-55.2,26.636H405.67v-61.7H282.276Z" transform="translate(-8928.644 2583.413)" fill="#bab3ab"/>
    </g>
    <rect id="Rectangle_2318" data-name="Rectangle 2318" width="195" height="195" transform="translate(-8688 3381)" fill="none"/>
  </g>
</svg>
