<svg xmlns="http://www.w3.org/2000/svg" width="195" height="195" viewBox="0 0 195 195">
  <g fill="#bab3ab" data-name="Group 7031">
    <path d="M107.571 96.897h3.067v-9.394l6.033 9.037s.162.588 1.794.392a1.361 1.361 0 0 0 1.109-1.339V81.24h-2.968v9.556l-6.262-9.394s-2.121-.912-2.741.621Z" data-name="Path 16492"/>
    <path d="M124.27 87.632h7.992v2.708h-7.926v3.816h8.643v2.707h-8.97a2.847 2.847 0 0 1-2.707-2.87V83.685a3.03 3.03 0 0 1 2.87-2.511h8.807v2.707h-8.741Z" data-name="Path 16493"/>
    <path d="M110.566 105.371h7.992v2.707h-7.926v3.816h8.648v2.708h-8.97a2.848 2.848 0 0 1-2.708-2.87v-10.308a3.032 3.032 0 0 1 2.871-2.512h8.807v2.708h-8.743Z" data-name="Path 16494"/>
    <path d="M134.61 81.141h3.132v13.144h2.967V81.271h3V94.22h2.9V81.141h3.131v12.818a2.787 2.787 0 0 1-2.837 2.9h-9.362s-2.657.342-2.918-2.887Z" data-name="Path 16495"/>
    <path d="M121.219 114.598h3.124V101.74l.251-.362h6.609l.392.334v3.375l-.392.307h-5.271l-1.143 2.51h3.795l3.32 6.694h3.513l-3.542-6.667s2.428-.39 2.651-2.593v-4.239a3.244 3.244 0 0 0-2.483-2.2h-8.259a2.944 2.944 0 0 0-2.481 2.733Z" data-name="Path 16496"/>
    <path d="M136.533 114.597h3.179v-12.8l.139-.363h6.449l.279.224v3.625h-5.1l-1.311 2.539h6.415v6.75h3.263v-13.029s-.362-2.622-3.654-2.705h-7.057a3.123 3.123 0 0 0-2.593 2.957Z" data-name="Path 16497"/>
    <path d="M145.696 118.341v-1.757h-.721v-.354h1.933v.357h-.721v1.757Z" data-name="Path 16498"/>
    <path d="M147.216 118.341v-2.111h.736l.439 1.441.435-1.441h.737v2.113h-.456v-1.664l-.483 1.664h-.471l-.48-1.664v1.664Z" data-name="Path 16499"/>
    <path d="m76.298 99.852 10.481-2.06-1.015-1.553-10.87.626Z" data-name="Path 16500"/>
    <path d="M84.509 94.06c-1.165-1.852-1.672-1.7-1.672-1.7l-10.72-1.166 1.313 2.659Z" data-name="Path 16501"/>
    <path d="m55.277 88.506 5.225.717s1.553.149 2.478 2.657l2.777 7.554s5.106-.478 5.762.478l-5.015-11.137a5.88 5.88 0 0 0-3.941-2.329l-5.913-1.224a1.476 1.476 0 0 0-1.672 1.4s-.239.269-.328-.089l-.3-1.7-6.628-1.493 3.644 18.1 7.405-1.046Z" data-name="Path 16502"/>
    <path d="m87.883 99.523-14.213 4.15s-.6.359-.834-.656c0 0-.3-2.717-7.168-1.194l-13.765 2.508 1.135 5.374 16.75-4.956a18.508 18.508 0 0 1 3.017-.389s.478-.119 1.1.837a2.767 2.767 0 0 0 2.956 1.343 59.513 59.513 0 0 0 11.736-4.987s.478-.119.178-.656Z" data-name="Path 16503"/>
    <path d="M157.918 127.22h-58.63V68.364l58.63.063Zm-66.722-25.158-12.361 7.11c-3.136 2.24-4.688 1.97-4.688 1.97a2.515 2.515 0 0 1-2.776-1.911c-.537-.954-2.15-.686-2.15-.686l-18.3 7.017c-4.479 1.821-4.479-2.389-4.479-2.389l-4.119-30.932a2.2 2.2 0 0 1 2.3-2.448l18.482 4.567c4.15 1.135 5.225 4.031 5.225 4.031l13.557 2.269a4.291 4.291 0 0 1 3.343 1.97l5.763 8.9c.3.358.209.537.209.537m-55.2 26.636h123.392v-61.7H36Z" data-name="Path 16504"/>
  </g>
  <path fill="none" d="M0 0h195v195H0z" data-name="Rectangle 2318"/>
</svg>
