<svg xmlns="http://www.w3.org/2000/svg" width="195" height="195" viewBox="0 0 195 195">
  <g id="nike" transform="translate(8414 -2814)">
    <path id="Path_16390" data-name="Path 16390" d="M541.649,387.145a10.8,10.8,0,0,1-6.474-2.164,13.214,13.214,0,0,1-1.344-1.345,8.4,8.4,0,0,1-1.457-2.623c-.952-2.855-.462-6.6,1.4-10.715,1.6-3.519,4.064-7.011,8.364-11.846.634-.712,2.521-2.793,2.532-2.793s-.1.178-.225.4a25.237,25.237,0,0,0-2.6,5.989c-.838,3.064-.738,5.693.295,7.734a7.56,7.56,0,0,0,3.307,3.294c2.4,1.177,5.921,1.274,10.217.285.3-.067,14.955-3.958,32.572-8.645s32.04-8.521,32.04-8.52-40.933,17.525-62.187,26.614c-3.367,1.437-4.266,1.8-5.847,2.357a29.676,29.676,0,0,1-10.6,1.982" transform="translate(-8892.9 2540.341)" fill="#bab3ab"/>
    <rect id="Rectangle_2305" data-name="Rectangle 2305" width="195" height="195" transform="translate(-8414 2814)" fill="none"/>
  </g>
</svg>
