<svg xmlns="http://www.w3.org/2000/svg" width="195" height="195" viewBox="0 0 195 195">
  <g id="sap" transform="translate(8967 -3603)">
    <g id="Group_7033" data-name="Group 7033" transform="translate(-0.313 5.838)">
      <path id="Path_16553" data-name="Path 16553" d="M98.623,1102.718a2.8,2.8,0,1,1,2.808,2.881,2.793,2.793,0,0,1-2.808-2.881m2.808,3.456a3.448,3.448,0,1,0-3.5-3.456,3.445,3.445,0,0,0,3.5,3.456m-.731-3.184h.693l1.047,1.721h.678l-1.134-1.749a1.032,1.032,0,0,0,1.031-1.094c0-.783-.463-1.13-1.4-1.13H100.1v3.973h.6Zm0-.512v-1.228h.824c.411,0,.856.087.856.582,0,.614-.453.646-.958.646Z" transform="translate(-8954.999 2615.159)" fill="#bab3ab"/>
      <path id="Path_16554" data-name="Path 16554" d="M96.283,1073.588H93.95v8.528h2.333c3.109,0,5.582-1.032,5.582-4.312,0-3.183-2.473-4.215-5.582-4.215" transform="translate(-8955.568 2611.486)" fill="#bab3ab" fill-rule="evenodd"/>
      <path id="Path_16555" data-name="Path 16555" d="M74.445,1076.591l-3.355,10.577a9.6,9.6,0,0,0,3.39.6,9.773,9.773,0,0,0,3.319-.568l-3.286-10.608Z" transform="translate(-8958.836 2611.916)" fill="#bab3ab" fill-rule="evenodd"/>
      <path id="Path_16556" data-name="Path 16556" d="M39.645,1058.791v53.172l54.313-.009,53.159-53.163Zm65.487,32.711h-3.417v10.159H86.045l-1.553-4.86a18.355,18.355,0,0,1-11.162-.045l-1.614,4.9H62.109l1.058-2.837c-.126.113-.254.227-.385.334a14.478,14.478,0,0,1-9.107,3.054l-.55,0a24.44,24.44,0,0,1-11.975-3.187l3.269-6.489c3.539,2.092,5.759,2.56,8.76,2.5a4.656,4.656,0,0,0,3.411-1.072,2.435,2.435,0,0,0,.69-1.65c.031-1.686-2.367-2.476-5.3-3.382a24.854,24.854,0,0,1-7.19-3.293,8.286,8.286,0,0,1-3.637-7.388,8.939,8.939,0,0,1,2.534-6.17c2.324-2.4,6.077-3.864,10.579-3.864h.025a28.644,28.644,0,0,1,11.984,2.836l-3.683,6.4a17.293,17.293,0,0,0-7.738-2.087c-3.164-.172-4.767.964-4.787,2.183-.027,1.488,2.989,2.837,5.844,3.75,4.317,1.373,9.8,3.208,10.64,8.508l7.892-21.032H83.6l9.242,25.151v-25.151l10.578,0c10.111,0,14.861,3.6,14.861,11.458,0,7.052-4.892,11.258-13.153,11.258" transform="translate(-8963.332 2609.371)" fill="#bab3ab" fill-rule="evenodd"/>
    </g>
    <rect id="Rectangle_2323" data-name="Rectangle 2323" width="195" height="195" transform="translate(-8967 3603)" fill="none"/>
  </g>
</svg>
