<svg xmlns="http://www.w3.org/2000/svg" width="195" height="195" viewBox="0 0 195 195">
  <g fill="#bab3ab" data-name="Group 7034">
    <path d="M-8502.722 3731.981a4.4 4.4 0 0 0 1.954.471 2.118 2.118 0 0 0 2.4-2.049c0-.97-.4-1.4-1.86-1.995-1.132-.458-1.389-.687-1.389-1.226 0-.633.472-1.01 1.254-1.01a2.714 2.714 0 0 1 1.55.5l.311-.808a3.973 3.973 0 0 0-1.956-.512 1.984 1.984 0 0 0-2.237 1.914c0 .93.472 1.441 1.887 1.981 1.159.459 1.361.634 1.361 1.228a1.178 1.178 0 0 1-1.308 1.159 3.688 3.688 0 0 1-1.658-.459Zm-5.471 0a4.4 4.4 0 0 0 1.954.471 2.119 2.119 0 0 0 2.4-2.049c0-.97-.4-1.4-1.86-1.995-1.133-.458-1.389-.687-1.389-1.226 0-.633.472-1.01 1.253-1.01a2.714 2.714 0 0 1 1.55.5l.311-.808a3.972 3.972 0 0 0-1.954-.512 1.984 1.984 0 0 0-2.237 1.914c0 .93.471 1.441 1.887 1.981 1.159.459 1.36.634 1.36 1.228a1.178 1.178 0 0 1-1.308 1.159 3.684 3.684 0 0 1-1.657-.459Zm-5.985-3.628c.054-1.36.742-2.182 1.833-2.182s1.725.768 1.766 2.182Zm4.691.824a5.609 5.609 0 0 0-.377-2.333 2.438 2.438 0 0 0-2.44-1.5c-1.845 0-2.979 1.349-2.979 3.558s1.228 3.546 3.263 3.546a4.09 4.09 0 0 0 2.277-.675l-.39-.8a3.163 3.163 0 0 1-1.875.648c-1.348 0-2.036-.768-2.2-2.453Zm-13.113 3.139h1.023v-4.864a2.9 2.9 0 0 1 2.172-1.28 1.122 1.122 0 0 1 1.172.728 4.537 4.537 0 0 1 .149 1.454v3.963h1.024v-3.948a4.82 4.82 0 0 0-.282-2.076 1.87 1.87 0 0 0-1.78-.944 3.2 3.2 0 0 0-2.48 1.226l-.04-1.091h-1.01c.04.459.054 1.079.054 2.224Zm-2.857-9.987a.728.728 0 1 0 .728.728.7.7 0 0 0-.728-.728m-.513 9.987h1.024v-6.833h-1.024Zm-6.186-.335a4.395 4.395 0 0 0 1.954.471 2.118 2.118 0 0 0 2.4-2.049c0-.97-.4-1.4-1.858-1.995-1.132-.458-1.389-.687-1.389-1.226 0-.633.472-1.01 1.254-1.01a2.719 2.719 0 0 1 1.55.5l.31-.808a3.966 3.966 0 0 0-1.954-.512 1.983 1.983 0 0 0-2.237 1.914c0 .93.471 1.441 1.887 1.981 1.159.459 1.361.634 1.361 1.228a1.178 1.178 0 0 1-1.308 1.159 3.688 3.688 0 0 1-1.658-.459Zm-1.832-6.5h-1.024v4.865a2.878 2.878 0 0 1-2.13 1.281 1.087 1.087 0 0 1-1.133-.728 4.589 4.589 0 0 1-.149-1.456v-3.963h-1.023v3.949a4.831 4.831 0 0 0 .282 2.076 1.806 1.806 0 0 0 1.74.944 3.213 3.213 0 0 0 2.438-1.226l.041 1.09h1.01c-.04-.457-.053-1.077-.053-2.224Zm-11.7 5.958v-3.438h.486a4.865 4.865 0 0 1 1.818.216 1.438 1.438 0 0 1 .944 1.5 1.505 1.505 0 0 1-.716 1.455 4.119 4.119 0 0 1-2.047.271Zm0-4.274v-3.3h.486a3.613 3.613 0 0 1 1.86.282 1.756 1.756 0 0 1 0 2.723 3.878 3.878 0 0 1-1.86.3Zm-1.079 5.148h1.847a4.581 4.581 0 0 0 2.44-.349 2.231 2.231 0 0 0 1.185-2.13 2.113 2.113 0 0 0-2.143-2.278 1.952 1.952 0 0 0 1.887-2.156 2.1 2.1 0 0 0-1.239-2.1 6.142 6.142 0 0 0-2.521-.31h-1.456Zm-9.6-.335a4.4 4.4 0 0 0 1.954.471 2.119 2.119 0 0 0 2.4-2.049c0-.97-.4-1.4-1.861-1.995-1.132-.458-1.388-.687-1.388-1.226 0-.633.471-1.01 1.253-1.01a2.72 2.72 0 0 1 1.551.5l.31-.808a3.972 3.972 0 0 0-1.954-.512 1.984 1.984 0 0 0-2.237 1.914c0 .93.472 1.441 1.886 1.981 1.159.459 1.361.634 1.361 1.228a1.177 1.177 0 0 1-1.308 1.159 3.68 3.68 0 0 1-1.656-.459Zm-7.318.335h1.025v-4.864a2.9 2.9 0 0 1 2.168-1.28 1.122 1.122 0 0 1 1.173.728 4.5 4.5 0 0 1 .149 1.454v3.963h1.025v-3.948a4.815 4.815 0 0 0-.283-2.076 1.869 1.869 0 0 0-1.778-.944 3.2 3.2 0 0 0-2.481 1.226l-.04-1.091h-1.007c.04.459.054 1.079.054 2.224Zm-6.5-3.963c.055-1.36.742-2.182 1.833-2.182s1.726.768 1.766 2.182Zm4.691.824a5.609 5.609 0 0 0-.377-2.333 2.438 2.438 0 0 0-2.44-1.5c-1.846 0-2.979 1.349-2.979 3.558s1.228 3.546 3.263 3.546a4.081 4.081 0 0 0 2.276-.675l-.389-.8a3.163 3.163 0 0 1-1.876.648c-1.348 0-2.035-.768-2.2-2.453Zm-17.01 3.139h1.025v-4.864a2.682 2.682 0 0 1 2.008-1.28 1.008 1.008 0 0 1 1.01.673 4 4 0 0 1 .161 1.375v4.1h1.025v-4.864a2.581 2.581 0 0 1 1.967-1.28 1.028 1.028 0 0 1 1.079.728 5.131 5.131 0 0 1 .135 1.454v3.963h1.024v-3.948a4.934 4.934 0 0 0-.269-2.076 1.738 1.738 0 0 0-1.685-.944 3 3 0 0 0-2.387 1.349 1.7 1.7 0 0 0-1.793-1.349 3.022 3.022 0 0 0-2.3 1.214l-.041-1.079h-1.01c.04.459.053 1.079.053 2.224Zm-6.5-3.963c.054-1.36.742-2.182 1.833-2.182s1.725.768 1.765 2.182Zm4.691.824a5.61 5.61 0 0 0-.377-2.333 2.438 2.438 0 0 0-2.44-1.5c-1.847 0-2.979 1.349-2.979 3.558s1.228 3.546 3.261 3.546a4.085 4.085 0 0 0 2.278-.675l-.391-.8a3.153 3.153 0 0 1-1.872.648c-1.349 0-2.036-.768-2.2-2.453Zm-8.14-6.849a.728.728 0 1 0 .727.728.7.7 0 0 0-.727-.728m-.513 9.987h1.032v-6.833h-1.024Zm-7.36-.282a7.765 7.765 0 0 0 2.373.418c1.887 0 3.086-1.025 3.086-2.643a2.4 2.4 0 0 0-.741-1.806 5.685 5.685 0 0 0-1.873-1.05c-1.361-.567-1.792-1-1.792-1.78 0-.835.728-1.429 1.765-1.429a4.5 4.5 0 0 1 2 .5l.215-.97a6.818 6.818 0 0 0-2.21-.42c-1.778 0-2.91.985-2.91 2.521a2.031 2.031 0 0 0 .714 1.63 6.2 6.2 0 0 0 1.792.984 5.165 5.165 0 0 1 1.482.837 1.452 1.452 0 0 1 .417 1.078 1.672 1.672 0 0 1-1.9 1.657 6.567 6.567 0 0 1-2.278-.471Zm-7.006-3.869h-2.831l.849-2.453.323-.97c.08-.229.094-.309.256-.834.189.659.323 1.092.566 1.8Zm.322.891 1.145 3.261h1.159l-3.341-9.326h-1.362l-3.316 9.326h1.093l1.145-3.261Z" data-name="Path 16559" transform="translate(8688 -3603) translate(-6.027 5.957)"/>
    <path d="M-8537.925 3708.565a8.641 8.641 0 0 1-4.466-1.2 8.961 8.961 0 0 1-3.239-3.252 8.955 8.955 0 0 1 0-8.956 9.086 9.086 0 0 1 3.239-3.264 8.576 8.576 0 0 1 4.466-1.211 8.219 8.219 0 0 1 4.79 1.462 9.162 9.162 0 0 1 3.189 3.866l-3.2.926a5.852 5.852 0 0 0-1.926-2.215 4.931 4.931 0 0 0-2.851-.838 5.372 5.372 0 0 0-2.838.764 5.43 5.43 0 0 0-1.99 2.088 5.949 5.949 0 0 0-.725 2.9 5.878 5.878 0 0 0 .725 2.889 5.461 5.461 0 0 0 1.99 2.076 5.363 5.363 0 0 0 2.838.762 5.091 5.091 0 0 0 2.825-.775 5.2 5.2 0 0 0 1.877-2.176l3.252.875a8.821 8.821 0 0 1-3.164 3.839 8.308 8.308 0 0 1-4.79 1.439" data-name="Path 16560" transform="translate(8688 -3603) translate(-6.027 5.957)"/>
    <path d="M-8591.674 3657.044v19.793l-16.1-19.793h-.727v2.293l17.921 21.635h.72v-23.928Zm-16.826 6.43 1.815 2.191v15.307h-1.815Z" data-name="Path 16561" transform="translate(8688 -3603) translate(-6.027 5.957)"/>
    <path d="M-8623.397 3657.043v14.856c0 10.3-14.758 10.331-14.758 0v-14.856h-1.82v14.856c0 12.6 18.4 12.563 18.4 0v-14.856Z" data-name="Path 16562" transform="translate(8688 -3603) translate(-6.027 5.957)"/>
    <path d="M-8576.78 3680.972h16.913v-1.777h-16.913Zm0-11.075h16.913v-1.777h-16.913Zm0-12.853h16.913v1.777h-16.913Z" data-name="Path 16563" transform="translate(8688 -3603) translate(-6.027 5.957)"/>
    <path d="m-8652.603 3657.043-6.452 10 1.044 1.619 7.572-11.585v-.033Zm-16.206 0 9.013 14v9.933h-1.852v-9.596l-9.325-14.308v-.033Z" data-name="Path 16564" transform="translate(8688 -3603) translate(-6.027 5.957)"/>
    <path d="m-8536.651 3671.425-1.095 1.555 5.631 7.99h2.168v-.033Zm4.536-14.381h2.168v.033l-16.839 23.895h-2.168v-.033l8.409-11.93-8.409-11.931v-.033h2.168l7.334 10.409Z" data-name="Path 16565" transform="translate(8688 -3603) translate(-6.027 5.957)"/>
    <path d="M-8663.171 3694.006h-5.5v-3.126h14.158v3.126h-5.3v14.383h-3.352Z" data-name="Path 16566" transform="translate(8688 -3603) translate(-6.027 5.957)"/>
    <path d="M-8638.754 3699.513a2.8 2.8 0 0 0 2.025-.8 2.674 2.674 0 0 0 .826-2 2.744 2.744 0 0 0-.789-2 2.71 2.71 0 0 0-2.014-.8h-4.5v5.6Zm-7.83-8.629h7.88a5.944 5.944 0 0 1 3.077.813 6.054 6.054 0 0 1 2.176 2.176 5.708 5.708 0 0 1 .8 2.94 5.4 5.4 0 0 1-.463 2.214 5.733 5.733 0 0 1-1.289 1.825 5.183 5.183 0 0 1-1.9 1.163l3.9 6.38h-3.827l-3.628-5.955h-3.351v5.955h-3.377Z" data-name="Path 16567" transform="translate(8688 -3603) translate(-6.027 5.957)"/>
    <path d="m-8613.491 3701.686-2.876-8.655-2.952 8.655Zm-5.477-10.806h5.2l5.979 17.51h-3.477l-1.226-3.653h-7.8l-1.276 3.653h-3.5Z" data-name="Path 16568" transform="translate(8688 -3603) translate(-6.027 5.957)"/>
    <path d="M-8600.091 3690.88h12.783v3.126h-9.407v4.736h9.407v3.027h-9.407v6.621h-3.376Z" data-name="Path 16569" transform="translate(8688 -3603) translate(-6.027 5.957)"/>
    <path d="M-8579.348 3690.88h12.782v3.126h-9.405v4.736h9.405v3.027h-9.405v6.621h-3.376Z" data-name="Path 16570" transform="translate(8688 -3603) translate(-6.027 5.957)"/>
    <path d="M-8558.386 3690.879h3.376v17.51h-3.376z" data-name="Rectangle 2266" transform="translate(8688 -3603) translate(-6.027 5.957)"/>
  </g>
  <path fill="none" d="M-8688 3603h195v195h-195z" data-name="Rectangle 2322" transform="translate(8688 -3603)"/>
</svg>
