<svg xmlns="http://www.w3.org/2000/svg" width="195" height="195" viewBox="0 0 195 195">
  <g id="skoda" transform="translate(8967 -2814)">
    <g id="Group_7019" data-name="Group 7019" transform="translate(0.225 37.786)">
      <path id="Path_16366" data-name="Path 16366" d="M31.019,352.434l2.625,3.013a.6.6,0,0,0,.521.233l5.529.016a.589.589,0,0,0,.52-.231l2.643-3c.231-.264.147-.52-.231-.521l-3.734-.011a.618.618,0,0,0-.525.256l-1.129,1.615h-.61L35.5,352.177a.648.648,0,0,0-.551-.262l-3.7-.01c-.381,0-.459.258-.233.523m48.727,15.244v.289c-.029,10.1,1.621,10.714,13.746,10.748s13.777-.571,13.806-10.7v-.259c.029-10.1-1.621-10.711-13.745-10.745s-13.778.571-13.807,10.666m-1.258,10.036L67,366.418l10.847-8.506c.319-.229.2-.521-.2-.522l-7.061-.021a.747.747,0,0,0-.522.2l-11.074,8.8.024-8.6a.384.384,0,0,0-.326-.435h-.109L53.2,357.32a.386.386,0,0,0-.437.326v.109l-.056,19.97a.384.384,0,0,0,.326.435l.107,0,5.383.015a.381.381,0,0,0,.435-.322v-.109l.015-5.034,3.277-2.569,7.9,7.837a.685.685,0,0,0,.547.232l7.586.021c.375,0,.495-.257.207-.518m44.753-20.192-11.544-.032a.387.387,0,0,0-.439.328v.105l-.057,19.97a.388.388,0,0,0,.329.435l.107,0,11.544.033c12.36.035,13.981-.568,14.008-10.291v-.173c.027-9.723-1.59-10.336-13.95-10.37m44.671,20.442-9.929-20.022a.472.472,0,0,0-.494-.32l-8.85-.025a.47.47,0,0,0-.5.318L138.106,377.88c-.15.319-.029.521.314.522l5.758.016a.467.467,0,0,0,.493-.317l1.517-2.952,13.66.039,1.494,2.955a.476.476,0,0,0,.494.323l5.756.016c.349,0,.465-.2.323-.52M100.58,367.732v.293c-.017,5.844-.247,5.93-7.078,5.911s-7.06-.1-7.044-5.951v-.293c.016-5.845.249-5.927,7.077-5.908s7.061.1,7.044,5.948m30.047.086v.291c-.015,5.35-.454,5.527-7.4,5.508L117.5,373.6l.032-11.35,5.73.016c6.941.019,7.379.2,7.364,5.55m27.028,3-9.256-.026,4.277-8.415.754,0Zm-133.571,7.29c3.067.15,8.07.306,10.96.314,12.622.037,14.127.016,14.147-6.842.016-5.413-1.575-5.85-8.26-6.071l-7.757-.255c-3.556-.126-3.614-.5-3.609-2.091,0-1.652.44-1.649,8.976-1.625,1.616,0,6.764.1,9.488.17a.385.385,0,0,0,.435-.326v-.106l.009-3.532a.409.409,0,0,0-.36-.457l-.046,0c-2.692-.155-7.088-.314-10.244-.323-12.382-.035-14.379.194-14.4,6.586-.016,5.471,1.2,6.2,9.123,6.484l7.117.247c3.328.126,3.387.531,3.383,1.774,0,1.711-.151,1.8-8.022,1.775-3.675-.01-7.466-.165-10.905-.294-.289-.03-.435.118-.437.4l-.01,3.7a.411.411,0,0,0,.355.463l.048,0" transform="translate(-8965.65 2508.309)" fill="#bab3ab"/>
    </g>
    <rect id="Rectangle_2307" data-name="Rectangle 2307" width="195" height="195" transform="translate(-8967 2814)" fill="none"/>
  </g>
</svg>
