<svg xmlns="http://www.w3.org/2000/svg" width="195" height="195" viewBox="0 0 195 195">
  <g id="sparco" transform="translate(8688 -2631)">
    <g id="Group_7017" data-name="Group 7017" transform="translate(-6.001 27.67)">
      <path id="Path_16358" data-name="Path 16358" d="M391.278,197.15a12.181,12.181,0,1,0,12.179,12.182,12.182,12.182,0,0,0-12.179-12.182m0,19.489a7.308,7.308,0,1,1,7.307-7.307,7.307,7.307,0,0,1-7.307,7.307" transform="translate(-8914.801 2486.184)" fill="#bab3ab"/>
      <path id="Path_16359" data-name="Path 16359" d="M308.321,197.161a12.165,12.165,0,0,0-6.993,1.8.6.6,0,0,1-.913-.5v-.719a.593.593,0,0,0-.592-.594h-3.686a.594.594,0,0,0-.592.594v32.912a.594.594,0,0,0,.592.594h3.686a.593.593,0,0,0,.592-.594V220.195a.6.6,0,0,1,.913-.5,12.18,12.18,0,1,0,6.993-22.531M308.2,216.62a7.309,7.309,0,1,1,6.818-6.816,7.31,7.31,0,0,1-6.818,6.816" transform="translate(-8926.746 2486.183)" fill="#bab3ab"/>
      <path id="Path_16360" data-name="Path 16360" d="M278.289,206.893a.593.593,0,0,1-.535-.854,7.307,7.307,0,0,1,11.8-1.773.6.6,0,0,0,.432.189h4.512a.6.6,0,0,0,.525-.876,12.182,12.182,0,0,0-22.9,5.073,12.47,12.47,0,0,0,.135,2.608.6.6,0,0,0,.59.5h17.431a.594.594,0,0,1,.533.855,7.307,7.307,0,0,1-11.8,1.772.6.6,0,0,0-.432-.189h-4.512a.6.6,0,0,0-.525.876,12.181,12.181,0,0,0,22.9-5.075,12.469,12.469,0,0,0-.135-2.608.6.6,0,0,0-.59-.5Z" transform="translate(-8930.099 2486.184)" fill="#bab3ab"/>
      <path id="Path_16361" data-name="Path 16361" d="M369.484,202.027a7.287,7.287,0,0,1,5.574,2.24.607.607,0,0,0,.435.186H380a.6.6,0,0,0,.527-.873,12.181,12.181,0,1,0,0,11.494A.6.6,0,0,0,380,214.2h-4.508a.617.617,0,0,0-.435.186,7.307,7.307,0,1,1-5.574-12.36" transform="translate(-8917.873 2486.184)" fill="#bab3ab"/>
      <path id="Path_16362" data-name="Path 16362" d="M336.5,198.963a12.179,12.179,0,1,0,0,20.731.591.591,0,0,1,.907.5v.721a.594.594,0,0,0,.594.592h3.686a.592.592,0,0,0,.592-.592V197.741a.594.594,0,0,0-.592-.594H338a.6.6,0,0,0-.594.594v.721a.593.593,0,0,1-.907.5m-6.4,17.673a7.308,7.308,0,1,1,7.307-7.307,7.307,7.307,0,0,1-7.307,7.307" transform="translate(-8923.547 2486.183)" fill="#bab3ab"/>
      <path id="Path_16363" data-name="Path 16363" d="M301.938,224.887v-3.74a.514.514,0,0,1,.517-.513H413.974a.516.516,0,0,1,.517.513v3.74a.519.519,0,0,1-.517.517H302.455a.517.517,0,0,1-.517-.517" transform="translate(-8925.832 2489.541)" fill="#bab3ab"/>
      <path id="Path_16364" data-name="Path 16364" d="M272.1,224.944V221.1a.514.514,0,0,1,.517-.515h23.326a.517.517,0,0,1,.519.515v3.84a.519.519,0,0,1-.519.517H272.617a.517.517,0,0,1-.517-.517" transform="translate(-8930.099 2489.535)" fill="#bab3ab"/>
      <path id="Path_16365" data-name="Path 16365" d="M360.944,200.308a.6.6,0,0,0-.162-.778,12.182,12.182,0,0,0-13.63-.567.6.6,0,0,1-.913-.5v-.719a.593.593,0,0,0-.594-.594h-3.686a.594.594,0,0,0-.592.594v23.173a.594.594,0,0,0,.592.592h3.686a.593.593,0,0,0,.594-.592V209.475a7.4,7.4,0,0,1,7.137-7.453,7.282,7.282,0,0,1,4.8,1.652.612.612,0,0,0,.918-.17Z" transform="translate(-8920.195 2486.184)" fill="#bab3ab"/>
    </g>
    <rect id="Rectangle_2302" data-name="Rectangle 2302" width="195" height="195" transform="translate(-8688 2631)" fill="none"/>
  </g>
</svg>
