<svg xmlns="http://www.w3.org/2000/svg" width="195" height="195" viewBox="0 0 195 195">
  <g fill="#bab3ab" data-name="Group 7017">
    <path d="M158.476 80.004a12.181 12.181 0 1 0 12.179 12.182 12.182 12.182 0 0 0-12.179-12.182m0 19.489a7.308 7.308 0 1 1 7.307-7.307 7.307 7.307 0 0 1-7.307 7.307" data-name="Path 16358"/>
    <path d="M63.574 80.014a12.165 12.165 0 0 0-6.993 1.8.6.6 0 0 1-.913-.5v-.719a.593.593 0 0 0-.592-.594H51.39a.594.594 0 0 0-.592.594v32.912a.594.594 0 0 0 .592.594h3.686a.593.593 0 0 0 .592-.594v-10.459a.6.6 0 0 1 .913-.5 12.18 12.18 0 1 0 6.993-22.531m-.121 19.456a7.309 7.309 0 1 1 6.818-6.816 7.31 7.31 0 0 1-6.818 6.816" data-name="Path 16359"/>
    <path d="M30.189 89.747a.593.593 0 0 1-.535-.854 7.307 7.307 0 0 1 11.8-1.773.6.6 0 0 0 .432.189h4.512a.6.6 0 0 0 .525-.876 12.182 12.182 0 0 0-22.9 5.073 12.47 12.47 0 0 0 .135 2.608.6.6 0 0 0 .59.5h17.431a.594.594 0 0 1 .533.855 7.307 7.307 0 0 1-11.8 1.772.6.6 0 0 0-.432-.189h-4.512a.6.6 0 0 0-.525.876 12.181 12.181 0 0 0 22.9-5.075 12.469 12.469 0 0 0-.135-2.608.6.6 0 0 0-.59-.5Z" data-name="Path 16360"/>
    <path d="M133.61 84.881a7.287 7.287 0 0 1 5.574 2.24.607.607 0 0 0 .435.186h4.507a.6.6 0 0 0 .527-.873 12.181 12.181 0 1 0 0 11.494.6.6 0 0 0-.527-.874h-4.508a.617.617 0 0 0-.435.186 7.307 7.307 0 1 1-5.574-12.36" data-name="Path 16361"/>
    <path d="M94.952 81.816a12.179 12.179 0 1 0 0 20.731.591.591 0 0 1 .907.5v.721a.594.594 0 0 0 .594.592h3.686a.592.592 0 0 0 .592-.592V80.594a.594.594 0 0 0-.592-.594h-3.687a.6.6 0 0 0-.594.594v.721a.593.593 0 0 1-.907.5m-6.4 17.673a7.308 7.308 0 1 1 7.307-7.307 7.307 7.307 0 0 1-7.307 7.307" data-name="Path 16362"/>
    <path d="M58.105 111.098v-3.74a.514.514 0 0 1 .517-.513h111.519a.516.516 0 0 1 .517.513v3.74a.519.519 0 0 1-.517.517H58.622a.517.517 0 0 1-.517-.517" data-name="Path 16363"/>
    <path d="M24 111.149v-3.844a.514.514 0 0 1 .517-.515h23.326a.517.517 0 0 1 .519.515v3.84a.519.519 0 0 1-.519.517H24.517a.517.517 0 0 1-.517-.517" data-name="Path 16364"/>
    <path d="M122.748 83.162a.6.6 0 0 0-.162-.778 12.182 12.182 0 0 0-13.63-.567.6.6 0 0 1-.913-.5v-.719a.593.593 0 0 0-.594-.594h-3.686a.594.594 0 0 0-.592.594v23.173a.594.594 0 0 0 .592.592h3.686a.593.593 0 0 0 .594-.592V92.329a7.4 7.4 0 0 1 7.137-7.453 7.282 7.282 0 0 1 4.8 1.652.612.612 0 0 0 .918-.17Z" data-name="Path 16365"/>
  </g>
  <path fill="none" d="M0 0h195v195H0z" data-name="Rectangle 2302"/>
</svg>
