<svg xmlns="http://www.w3.org/2000/svg" width="195" height="195" viewBox="0 0 195 195">
  <g fill="#bab3ab" fill-rule="evenodd" data-name="Group 7028">
    <path d="M140.576 68.775h5.455l1.05 1.446a5.771 5.771 0 0 1 4.4-1.578c3.089 0 3.877 3.353 3.877 4.731v5.653h-4.995v-4.272s-.065-2.036-1.839-2.036-1.708 1.9-1.708 1.9v16.362a2.3 2.3 0 0 0 .328.984c.263.328.591.85.591.85h-6.768a4.652 4.652 0 0 0 .526-.65 2.127 2.127 0 0 0 .2-1.119V70.681a2.375 2.375 0 0 0-.394-1.183l-.722-.723" data-name="Path 16394"/>
    <path d="M172.837 80.929s.526-12.548-7.426-12.548-7.754 12.616-7.754 12.616.066 11.823 7.557 11.823 7.622-9.324 7.622-9.324h-4.864s.459 5.452-2.694 5.452-2.5-8.019-2.5-8.019Zm-7.754-8.541c2.366 0 2.1 4.668 2.1 4.668h-4.27s-.2-4.668 2.168-4.668" data-name="Path 16395"/>
    <path d="M130.456 68.642c-5.849 0-7.755 6.571-7.755 12.487s1.906 11.69 7.688 11.69 7.425-5.778 7.425-11.626-1.51-12.551-7.357-12.551m-.461 19.845c-1.842 0-2.235-4.14-2.235-7.887s.592-7.687 2.365-7.687 2.432 1.447 2.432 7.688-.724 7.887-2.563 7.887" data-name="Path 16396"/>
    <path d="M95.76 68.84h5.454l.787 1.314a8.708 8.708 0 0 1 2.432-1.249 4.311 4.311 0 0 1 3.416.2 5.532 5.532 0 0 1 1.447 1.182 8.921 8.921 0 0 1 2.694-1.247c1.642-.459 4.475-.575 5.717.789 1.313 1.447 1.182 4.2 1.182 4.2v17.083a3.787 3.787 0 0 0 .262.922 4.693 4.693 0 0 0 .592.783h-6.7a7.181 7.181 0 0 0 .526-.85 3.624 3.624 0 0 0 .264-.984V74.882a1.531 1.531 0 0 0-1.644-1.316c-1.512 0-1.905 1.711-1.905 1.711v15.9a1.6 1.6 0 0 0 .393.918 4.444 4.444 0 0 1 .657.719h-7.03a9.679 9.679 0 0 0 .657-.85 2.8 2.8 0 0 0 .33-1.052v-15.83a1.551 1.551 0 0 0-1.711-1.513 1.814 1.814 0 0 0-1.909 1.513v16.031a1.745 1.745 0 0 0 .328.986l.593.719h-6.77a8.757 8.757 0 0 0 .592-.65 1.487 1.487 0 0 0 .2-.924V70.417a3.156 3.156 0 0 0-.4-.919 3.174 3.174 0 0 1-.461-.657" data-name="Path 16397"/>
    <path d="M91.819 91.705a3.025 3.025 0 0 1-.263-1.181v-15.9s.263-4.008-2.169-5.189a9.355 9.355 0 0 0-6.964-.461c-1.644.657-1.906.854-2.564.789a11.955 11.955 0 0 1-1.248-.2v7.555h3.943v-2.169a2.689 2.689 0 0 1 .92-1.576 2.3 2.3 0 0 1 2.1-.4 1.524 1.524 0 0 1 .985 1.578v2.63s.2.853-1.708 1.182-4.075.854-5.518 2.824a9.515 9.515 0 0 0-1.513 8.214c.988 2.958 2.366 3.412 4.4 3.412a8.4 8.4 0 0 0 4.007-1.31s.263.46.459.788a1.6 1.6 0 0 0 .592.522h5.323a6.2 6.2 0 0 1-.789-1.113m-5.258-4.664a2.2 2.2 0 0 1-2.168 2.1c-2.036 0-1.839-3.155-1.839-3.155s-.067-2.693 1.248-3.548a5.632 5.632 0 0 1 2.759-.852Z" data-name="Path 16398"/>
    <path d="M66.855 61h6.768v29.658a3.286 3.286 0 0 0 .461 1.38 5.082 5.082 0 0 1 .657.783h-7.76a1.974 1.974 0 0 0 .855-1.046 4.212 4.212 0 0 0 .13-.989V62.994a2.663 2.663 0 0 0-.329-1.183c-.409-.411-.788-.812-.788-.812" data-name="Path 16399"/>
    <path d="M56.797 61h6.766v29.658a3.32 3.32 0 0 0 .461 1.38 5.2 5.2 0 0 1 .659.783h-7.754a1.969 1.969 0 0 0 .854-1.046 4.212 4.212 0 0 0 .13-.989V62.994a2.663 2.663 0 0 0-.329-1.183c-.409-.411-.788-.812-.788-.812" data-name="Path 16400"/>
    <path d="M37.872 68.907h6.243v18.4s-.263 1.839 1.51 1.839a1.813 1.813 0 0 0 2.039-1.906V71.21a2.12 2.12 0 0 0-.328-1.314c-.5-.584-.791-.921-.791-.921h6.308v21.487a3.22 3.22 0 0 0 .462 1.316c.447.669.656 1.046.656 1.046h-5.257a1.293 1.293 0 0 1-.919-.65 3.277 3.277 0 0 1-.33-.661 8.37 8.37 0 0 1-4.27 1.311c-2.366 0-2.694-.982-3.417-2.035-.78-1.137-.722-3.744-.722-3.744V71.208a2.257 2.257 0 0 0-.394-1.314 5.517 5.517 0 0 1-.789-.986" data-name="Path 16401"/>
    <path d="M19.994 61h18.4v5.935a2.92 2.92 0 0 0-1.576-1.447 7.1 7.1 0 0 0-1.84-.425h-3.084v25.068a4.833 4.833 0 0 0 .393 1.775 3.672 3.672 0 0 0 .855.914h-8.084a2.622 2.622 0 0 0 .921-1.178 4.362 4.362 0 0 0 .329-1.578v-25h-3.549a6.79 6.79 0 0 0-1.577.624 4.345 4.345 0 0 0-1.188 1.247Z" data-name="Path 16402"/>
    <path d="M155.336 71.05a6.515 6.515 0 0 1 .8 2.948v5.805h-4.19v.8h4.992v-5.65a5.616 5.616 0 0 0-1.6-3.906" data-name="Path 16403"/>
    <path d="M149.053 73.478a1.244 1.244 0 0 0-.988.423 2.076 2.076 0 0 0-.473 1.34v16.355a2.124 2.124 0 0 0 .295.9c.266.334.587.842.6.863l.15.238h-5.489a.986.986 0 0 1-.077.151c-.264.393.194.653.194.653h5.339s.381-.52.118-.85a2.285 2.285 0 0 1-.328-.985v-16.36s-.265-1.906 1-1.906c.168 0-.137-.032 0 0 .411.072.426-.82-.341-.82" data-name="Path 16404"/>
    <path d="m147.758 70.563-.151-.206h-.069l.178.243c.014-.011.025-.023.041-.038" data-name="Path 16405"/>
    <path d="M165.838 93.596a5.886 5.886 0 0 1-3.267-.931 5.765 5.765 0 0 0 4.223 1.735c7.492 0 7.624-9.327 7.624-9.327h-.88c-.282 2.407-1.6 8.523-7.7 8.523" data-name="Path 16406"/>
    <path d="m173.614 81.558-.006.151h-10.057c-.056.875-.278 5.573 1.2 7.179a1.671 1.671 0 0 0 .337.282c-1.085-2.287-.727-6.66-.727-6.66h10.054s.3-7.2-3.015-10.692c2.431 3.686 2.222 9.471 2.212 9.74" data-name="Path 16407"/>
    <path d="M165.826 73.969c.126 0-.113-.024 0 0 .27-.045.339-.073.3-.319s-.135-.446-.546-.479a1.032 1.032 0 0 0-.909.441c-.949.99-.992 3.3-.985 3.909h.836c.111-1.472.137-3.552 1.3-3.552" data-name="Path 16408"/>
    <path d="M130.744 74.402a.328.328 0 0 0 .376-.306c.034-.376-.243-.41-.513-.4-1.63.043-2.068 3.891-2.068 7.531 0 4.484.409 6.129 1.486 6.665-.661-1.505-.684-3.209-.684-5.7 0-3.749.376-7.782 1.4-7.782" data-name="Path 16409"/>
    <path d="M138.591 81.815c0 7.6-2.692 11.782-7.581 11.782a6.8 6.8 0 0 1-3.665-.975 6.376 6.376 0 0 0 4.627 1.778c5.78 0 7.422-5.78 7.422-11.627 0-3.933-.687-8.253-2.916-10.659 1.749 2.751 2.113 6.819 2.113 9.7" data-name="Path 16410"/>
    <path d="M98.09 93.596a.723.723 0 0 1-.09.151c-.263.329.165.653.165.653h5.167s.582-.323.254-.719a1.016 1.016 0 0 1-.059-.085H98.09Z" data-name="Path 16411"/>
    <path d="M104.202 74.347a1.643 1.643 0 0 0-1.749 1.369v16.02a1.734 1.734 0 0 0 .217.839l.318.376c.547.069.267-.684.267-.684v-15.6a1.81 1.81 0 0 1 1.9-1.511 2.227 2.227 0 0 1 .487.05 1.392 1.392 0 0 0-1.445-.856" data-name="Path 16412"/>
    <path d="M120.735 93.616c-.258-.206-.264-.919-.264-.919V75.612s.131-2.76-1.182-4.2a2.5 2.5 0 0 0-.317-.286 7.928 7.928 0 0 1 .695 3.539v17.076a1.918 1.918 0 0 0 .2.8 9.807 9.807 0 0 0 .634.831l.129.232h-5.508c-.773.383.014.8.014.8h5.615s.616-.285-.016-.784" data-name="Path 16413"/>
    <path d="M106.508 93.596c-.61.486.041.8.041.8h5.681s.355-.456.029-.719a.475.475 0 0 1-.081-.085h-5.67Z" data-name="Path 16414"/>
    <path d="M112.81 74.347c-1.32 0-1.712 1.415-1.752 1.575v15.872a1.411 1.411 0 0 0 .337.81c.219.176.217.181.387.181.274-.1.08-.757.08-.757V76.86s.394-1.708 1.905-1.708a2.11 2.11 0 0 1 .435.045 1.36 1.36 0 0 0-1.393-.85" data-name="Path 16415"/>
    <path d="m102.814 70.454-.019-.033h-.2l.079.133c.04-.03.087-.062.143-.1" data-name="Path 16416"/>
    <path d="M93.136 92.104v-15.9s.209-3.272-1.549-4.773a8.022 8.022 0 0 1 .746 3.824v15.89a2.9 2.9 0 0 0 .246 1.114 6.285 6.285 0 0 0 .766 1.079l.232.258h-5.469c.055.1.114.2.167.284a1.592 1.592 0 0 0 .591.52h4.335s.959-.148.2-1.112a1.771 1.771 0 0 1-.264-1.183" data-name="Path 16417"/>
    <path d="M84.133 77.019v-.487s.2-1.454.75-1.786a1.264 1.264 0 0 1 1.029-.241c-.107-.286-.447-.738-.651-.755a1.334 1.334 0 0 0-1.1.39 2.732 2.732 0 0 0-.829 1.975v.924Z" data-name="Path 16418"/>
    <path d="M84.099 77.897h-3.907v.8h3.942Z" data-name="Path 16419"/>
    <path d="M84.133 87.572s-.255-2.8 1.06-3.653c.567-.37.741-.343.741-.343v-.822s-.41-.221-1.425.44c-1.225.8-1.177 3.388-1.177 3.415a7.228 7.228 0 0 0 .321 1.687c.062.158.173.277.344.208.341-.139.137-.933.137-.933" data-name="Path 16420"/>
    <path d="M86.666 93.294c-.13-.215-.288-.487-.382-.65a6.448 6.448 0 0 1-3.435.952 5.2 5.2 0 0 1-2.318-.417 3.823 3.823 0 0 0 3.275 1.222 5.992 5.992 0 0 0 3.124-.8 1.344 1.344 0 0 1-.264-.309" data-name="Path 16421"/>
    <path d="m75.616 93.557.025.039h-6.318a.654.654 0 0 0 .061.8h5.987s.715-.362.288-.784a.449.449 0 0 1-.042-.058" data-name="Path 16422"/>
    <path d="M74.81 92.547a.9.9 0 0 0 .389.235c.171-.173 0-.545 0-.545V62.58h-.8v28.687a3.165 3.165 0 0 0 .415 1.28" data-name="Path 16423"/>
    <path d="m65.563 93.557.025.039H59.27a.6.6 0 0 0 .211.8h5.839s.712-.362.285-.784a.448.448 0 0 1-.042-.058" data-name="Path 16424"/>
    <path d="M64.757 92.547c.278.3.371.093.381.109.138-.15.007-.418.007-.418V62.58h-.8v28.687a3.183 3.183 0 0 0 .415 1.28" data-name="Path 16425"/>
    <path d="M48.281 92.865a9.342 9.342 0 0 1-.265-.5 8.437 8.437 0 0 1-4.2 1.234 4.7 4.7 0 0 1-1.828-.3 3.045 3.045 0 0 0 2.785 1.1 8.3 8.3 0 0 0 3.9-1.085 1.442 1.442 0 0 1-.393-.45" data-name="Path 16426"/>
    <path d="M54.436 92.037V70.553h-.8v20.528a3.069 3.069 0 0 0 .434 1.226c.443.668.654 1.045.663 1.061l.127.229h-5.57l.086.155a1.288 1.288 0 0 0 .92.654h4.349a.7.7 0 0 0 .25-1.048 3.189 3.189 0 0 1-.459-1.314" data-name="Path 16427"/>
    <path d="M44.893 87.938v.01a1.81 1.81 0 0 0 .314 1.264 1.1 1.1 0 0 0 .512.317 2.259 2.259 0 0 1-.023-.646v-18.4h-.8v17.45Z" data-name="Path 16428"/>
    <path d="M27.359 93.596c-.357.592.178.8.178.8h6.3s.563-.211.118-.8h-6.596Z" data-name="Path 16429"/>
    <path d="M36.562 66.641a7.147 7.147 0 0 1 1.839.429c.066.023.12.055.179.08a2.616 2.616 0 0 0-1.19-.893 6.979 6.979 0 0 0-1.8-.417h-2.92v24.913a4.414 4.414 0 0 0 .367 1.682c.309.434.57.2.706.31a4.664 4.664 0 0 1-.27-1.036V66.641Z" data-name="Path 16430"/>
    <path d="M23.402 65.84a6.578 6.578 0 0 0-1.518.6 2.612 2.612 0 0 0-.305.229v.708a9.856 9.856 0 0 1 1.184-.457 5.845 5.845 0 0 1 1.576-.278h2.435v-.8Z" data-name="Path 16431"/>
    <path d="M39.979 67.011v-4.432h-.8v4.931c.559.454.8-.5.8-.5" data-name="Path 16432"/>
    <path d="M103.596 108.192h6.31a2 2 0 0 0-.462.855 3.254 3.254 0 0 0 .066 1.118l2.628 11.3 2.7-11.566a1.96 1.96 0 0 0-.133-.983c-.2-.264-.459-.66-.459-.66h6.034a1.388 1.388 0 0 0-.514.789 2.052 2.052 0 0 0 .066.854l2.694 11.958 2.891-12.221a1.841 1.841 0 0 0-.065-.788 1.752 1.752 0 0 0-.461-.592h5.519a2.208 2.208 0 0 0-.525.66 3.253 3.253 0 0 0-.263.919l-4.671 20.764a1.63 1.63 0 0 0 .131.855c.2.393.591.982.591.982h-6.637a5.562 5.562 0 0 0 .529-1 1.879 1.879 0 0 0 0-.906l-2.5-10.71-2.627 10.841a1.809 1.809 0 0 0 .029.809 9.4 9.4 0 0 0 .629.962h-6.445s.45-.683.645-1.032a1.671 1.671 0 0 0 .011-.936l-4.856-21.089a1.558 1.558 0 0 0-.394-.721 2.6 2.6 0 0 1-.461-.462" data-name="Path 16433"/>
    <path d="M82.965 109.702a9.453 9.453 0 0 0-1.84-6.7c-2.43-3.286-6.7-2.891-6.7-2.891h-9a8.974 8.974 0 0 1 .725.984 4.1 4.1 0 0 1 .4 1.511v28.056a1.942 1.942 0 0 1-.264 1.118 1.531 1.531 0 0 1-.856.653h10.11a6.988 6.988 0 0 0 4.928-1.967c2.3-2.168 2.563-8.014 2.563-8.014Zm-5.849-2.365v15.508a16.3 16.3 0 0 1-.525 3.744c-.526 1.972-1.447 1.84-1.447 1.84h-2.561v-24.506h2.3s.526-.069 1.446.657.788 2.758.788 2.758" data-name="Path 16434"/>
    <path d="M101.902 120.546s.527-12.55-7.425-12.55-7.754 12.617-7.754 12.617.066 11.822 7.558 11.822 7.62-9.327 7.62-9.327H97.04s.458 5.453-2.694 5.453-2.5-8.016-2.5-8.016Zm-7.753-8.543c2.366 0 2.1 4.664 2.1 4.664h-4.267s-.2-4.664 2.167-4.664" data-name="Path 16435"/>
    <path d="M115.212 131.325a1.583 1.583 0 0 0 .017.7 9.129 9.129 0 0 0 .615.938l.182.248h-5.278c-.72.484.033.8.033.8h4.926s.959-.217.339-.961c-.177-.216-.03-.809-.03-.809l2.174-8.962-.506-2.166Z" data-name="Path 16436"/>
    <path d="M130.546 109.839a3.608 3.608 0 0 0-.152.638c0 .016-4.669 20.778-4.669 20.778a1.481 1.481 0 0 0 .12.752 10.961 10.961 0 0 0 .581.962l.162.243h-5.517c-.709.484.043.8.043.8h5.409s.719-.149.141-.983a1.183 1.183 0 0 1-.131-.853l4.666-20.763a3.355 3.355 0 0 1 .263-.92.564.564 0 0 0-.079-.658Z" data-name="Path 16437"/>
    <path d="m120.595 110.474 2.55 11.318.3-1.262-2.037-9.048a2.049 2.049 0 0 1-.066-.853 1.114 1.114 0 0 0-.192-.79h-.626a1.917 1.917 0 0 0 .072.634" data-name="Path 16438"/>
    <path d="M110.286 110.756s1.92 8.253 2.476 10.649l.289-1.237-1.958-8.423a3.227 3.227 0 0 1-.065-1.116 1.068 1.068 0 0 0-.109-.855h-.711a3.281 3.281 0 0 0 .078.981" data-name="Path 16439"/>
    <path d="M76.469 105.501a1.488 1.488 0 0 1 .7.189 1.306 1.306 0 0 0-.31-.366 2.205 2.205 0 0 0-1.334-.625h-2.166v24.2h.8v-23.4Z" data-name="Path 16440"/>
    <path d="M82.704 104.582a6.784 6.784 0 0 0-.569-.664 9.7 9.7 0 0 1 1.606 6.419c0 .248.067 12.736.067 12.744-.011.241-.294 5.935-2.612 8.121a7.093 7.093 0 0 1-5.046 2.01h-8.214c-.025.049-.05.1-.082.151-.327.526.421.653.421.653h8.844a7 7 0 0 0 4.93-1.968c2.3-2.168 2.563-8.016 2.563-8.016l-.065-12.748a9.456 9.456 0 0 0-1.841-6.7" data-name="Path 16441"/>
    <path d="M94.903 133.212a5.877 5.877 0 0 1-3.264-.933 5.753 5.753 0 0 0 4.222 1.736c7.491 0 7.622-9.328 7.622-9.328h-.88c-.281 2.407-1.6 8.524-7.7 8.524" data-name="Path 16442"/>
    <path d="m102.68 121.176-.006.147H92.617c-.056.877-.279 5.574 1.2 7.181a1.736 1.736 0 0 0 .338.28c-1.085-2.285-.727-6.658-.727-6.658h10.056s.3-7.2-3.014-10.7c2.43 3.686 2.222 9.474 2.21 9.745" data-name="Path 16443"/>
    <path d="M94.871 113.586c.167-.045-.113-.026 0 0 .154.013.278-.115.3-.319.035-.272-.143-.478-.547-.478a1.068 1.068 0 0 0-.885.441c-.95.99-.992 3.3-.986 3.907h.842c.111-1.456.234-3.27 1.28-3.551" data-name="Path 16444"/>
  </g>
  <path fill="none" d="M0 0h195v195H0z" data-name="Rectangle 2315"/>
</svg>
