<svg xmlns="http://www.w3.org/2000/svg" width="195" height="195" viewBox="0 0 195 195">
  <g fill="#bab3ab" data-name="Group 7032">
    <path d="M27.276 91.264a2.369 2.369 0 0 0 .619-.925 1.457 1.457 0 0 0-.526-1.544 2.127 2.127 0 0 1 .153.873 2.616 2.616 0 0 1-.62.95c-.429.429-1.02.938-1.7 1.542 0 0-2.283 2.1-3.951 3.544s-7 5.894-8.038 6.7c-.9.7-4.037 3.013-5.026 3.747-.146.1-.243.169-.276.194a3.9 3.9 0 0 1-1.46.264 5.207 5.207 0 0 0 .576.6c.406.392 1.116-.175 1.374-.37.027-.019.094-.068.193-.137a12.363 12.363 0 0 0 18.679-15.433" data-name="Path 16477"/>
    <path d="M15.615 93.276s1.418-1.815 1.553-2.04.188-.4-.2-.64-1.667-.982-1.923-1.177-.211-.908.541-1.057a71.207 71.207 0 0 1 9.05-.47A12.362 12.362 0 0 0 7.02 105.171c1.512-2.109 8.057-11.254 8.595-11.895" data-name="Path 16478"/>
    <path d="M46.412 86.937v15.177c0 3.346-2.93 5.888-6.8 5.888s-6.8-2.542-6.8-5.888V90.507a3.551 3.551 0 0 1 3.534-3.57h.25v15.15a3.024 3.024 0 0 0 3.151 2.9 2.956 2.956 0 0 0 3.1-2.9v-11.78a3.386 3.386 0 0 1 3.373-3.373Z" data-name="Path 16479"/>
    <path d="M53.871 92.3c5.169 0 6 2.9 6 4.645v10.837h-.165a3.576 3.576 0 0 1-3.538-3.51v-7.266c0-1.024-.415-2.24-2.433-2.24a5.565 5.565 0 0 0-2.1.332v12.689h-3.7V93.434a16.921 16.921 0 0 1 5.943-1.134" data-name="Path 16480"/>
    <path d="M65.168 92.3v12a3.487 3.487 0 0 1-3.483 3.483h-.166V92.3Zm-1.825-5.363a1.921 1.921 0 0 1 1.99 1.852 1.9 1.9 0 0 1-1.99 1.8 1.921 1.921 0 0 1-2.018-1.8 1.945 1.945 0 0 1 2.018-1.852" data-name="Path 16481"/>
    <path d="M75.691 86.634a9 9 0 0 1 4.728 1.216v3.65a4.6 4.6 0 0 0-3.925-1.824c-3.761 0-6.083 3.7-6.083 7.547 0 3.622 2.433 7.575 6.083 7.575a4.681 4.681 0 0 0 3.925-1.632v3.594a8.1 8.1 0 0 1-4.755 1.244c-5.973 0-9.123-5.472-9.123-10.753 0-5.2 3.151-10.616 9.15-10.616" data-name="Path 16482"/>
    <path d="M86.965 92.3a13.984 13.984 0 0 1 2.073.166v2.958a3.816 3.816 0 0 0-3.7-.223v9.1a3.5 3.5 0 0 1-3.484 3.483h-.192V93.488a11.162 11.162 0 0 1 5.307-1.188" data-name="Path 16483"/>
    <path d="M98.658 98.106c-.11-3.068-2.017-3.4-3.041-3.4h-.138c-2.072.054-3.04 1.52-3.04 4.257Zm3.207 2.1-9.206 1.272c.306 2.516 1.576 3.843 3.9 3.843a7.493 7.493 0 0 0 4.811-1.493v3.068a11.2 11.2 0 0 1-5.17 1.105c-4.507 0-7.188-3.039-7.188-7.907 0-4.726 2.488-7.8 6.58-7.8 4.035 0 6.275 2.683 6.275 7.326Z" data-name="Path 16484"/>
    <path d="M111.519 95.286a4.592 4.592 0 0 0-1.272-.166c-3.041 0-3.677 2.93-3.677 5.364 0 3.4 1.133 5.087 3.428 5.087a11.959 11.959 0 0 0 1.52-.138Zm3.622-8.349v20.651a38.157 38.157 0 0 1-5 .414h-.249c-4.505-.055-6.966-2.654-6.966-7.325 0-4.727 2.569-7.768 6.552-7.768a8.72 8.72 0 0 1 2.017.22v-2.682a3.492 3.492 0 0 1 3.484-3.51Z" data-name="Path 16485"/>
    <path d="M120.515 92.3v12a3.487 3.487 0 0 1-3.483 3.483h-.166V92.3Zm-1.826-5.363a1.921 1.921 0 0 1 1.991 1.852 1.9 1.9 0 0 1-1.991 1.8 1.92 1.92 0 0 1-2.017-1.8 1.945 1.945 0 0 1 2.017-1.852" data-name="Path 16486"/>
    <path d="M126.979 86.937V92.3h2.377v2.958h-2.377v8.211c0 .994.332 1.3 1.41 1.3a3.016 3.016 0 0 0 .967-.193v3.068a5.239 5.239 0 0 1-1.852.359c-2.71 0-4.2-1.327-4.2-3.731v-9.013h-1.6v-2.958h1.6v-1.88a3.48 3.48 0 0 1 3.459-3.484Z" data-name="Path 16487"/>
    <path d="m141.468 97.613-1.219.028v7.759h2.494c2.548 0 4.377-.97 4.377-3.657 0-2.883-1.607-4.24-5.652-4.129m5.071-5.458c0-2.3-1.33-3.381-3.907-3.381a7.726 7.726 0 0 0-2.382.333v6.6l1.219.028c3.8.109 5.071-1.053 5.071-3.575m-.194 4.378v.083c1.995.388 4.738 2.134 4.738 5.182 0 4.157-3.325 5.985-8.2 5.985-4.655 0-6.344-.083-6.344-.083V87.75a14.2 14.2 0 0 1 6.1-1.164c5.154 0 7.731 2.244 7.731 5.319a4.717 4.717 0 0 1-4.018 4.628" data-name="Path 16488"/>
    <path d="M160.216 99.718c-3.241.306-5.209.97-5.209 3.548 0 1.911 1.164 2.77 3.159 2.77a12.428 12.428 0 0 0 2.05-.138Zm0-1.717v-1.025c0-1.967-1.22-2.494-2.992-2.494a10 10 0 0 0-4.572 1.413V93.43a11.982 11.982 0 0 1 5.182-1.164c3.131 0 5.735 1.579 5.735 5.458v9.863a34.37 34.37 0 0 1-4.849.416h-.776c-4.1 0-6.234-1.718-6.234-4.628 0-3.99 3.879-4.931 8.506-5.375" data-name="Path 16489"/>
    <path d="M171.097 92.265c5.182 0 6.013 2.91 6.013 4.656v10.861h-.166a3.584 3.584 0 0 1-3.546-3.519v-7.287c0-1.025-.416-2.245-2.44-2.245a5.591 5.591 0 0 0-2.106.333v12.718h-3.712V93.404a17.02 17.02 0 0 1 5.958-1.136" data-name="Path 16490"/>
    <path d="M182.395 104.179a3.568 3.568 0 0 1-3.63 3.6h-.027V90.492a3.566 3.566 0 0 1 3.629-3.6h.028v12.58l4.6-6.815h3.463l-4.739 6.927 5.542 8.2h-3.878l-4.988-7.68Z" data-name="Path 16491"/>
  </g>
  <path fill="none" d="M0 0h195v195H0z" data-name="Rectangle 2319"/>
</svg>
