<svg xmlns="http://www.w3.org/2000/svg" width="195" height="195" viewBox="0 0 195 195">
  <g id="unicredit-bank" transform="translate(8967 -3381)">
    <g id="Group_7032" data-name="Group 7032" transform="translate(6 -12.694)">
      <path id="Path_16477" data-name="Path 16477" d="M23.093,899.019a2.369,2.369,0,0,0,.619-.925,1.457,1.457,0,0,0-.526-1.544,2.127,2.127,0,0,1,.153.873,2.616,2.616,0,0,1-.62.95c-.429.429-1.02.938-1.7,1.542,0,0-2.283,2.1-3.951,3.544s-7,5.894-8.038,6.7c-.9.7-4.037,3.013-5.026,3.747-.146.1-.243.169-.276.194a3.9,3.9,0,0,1-1.46.264,5.207,5.207,0,0,0,.576.6c.406.392,1.116-.175,1.374-.37.027-.019.094-.068.193-.137a12.363,12.363,0,0,0,18.679-15.433" transform="translate(-8968.817 2585.939)" fill="#bab3ab"/>
      <path id="Path_16478" data-name="Path 16478" d="M11.615,901.334s1.418-1.815,1.553-2.04.188-.4-.2-.64-1.667-.982-1.923-1.177-.211-.908.541-1.057a71.207,71.207,0,0,1,9.05-.47A12.362,12.362,0,0,0,3.02,913.229c1.512-2.109,8.057-11.254,8.595-11.895" transform="translate(-8969 2585.636)" fill="#bab3ab"/>
      <path id="Path_16479" data-name="Path 16479" d="M40.266,894.83v15.177c0,3.346-2.93,5.888-6.8,5.888s-6.8-2.542-6.8-5.888V898.4A3.551,3.551,0,0,1,30.2,894.83h.25v15.15a3.024,3.024,0,0,0,3.151,2.9,2.956,2.956,0,0,0,3.1-2.9V898.2a3.386,3.386,0,0,1,3.373-3.373Z" transform="translate(-8966.854 2585.801)" fill="#bab3ab"/>
      <path id="Path_16480" data-name="Path 16480" d="M46.6,899.794c5.169,0,6,2.9,6,4.645v10.837h-.165a3.576,3.576,0,0,1-3.538-3.51V904.5c0-1.024-.415-2.24-2.433-2.24a5.565,5.565,0,0,0-2.1.332v12.689h-3.7V900.928a16.921,16.921,0,0,1,5.943-1.134" transform="translate(-8965.729 2586.2)" fill="#bab3ab"/>
      <path id="Path_16481" data-name="Path 16481" d="M56.9,900.193v12a3.487,3.487,0,0,1-3.483,3.483h-.166V900.193Zm-1.825-5.363a1.921,1.921,0,0,1,1.99,1.852,1.9,1.9,0,0,1-1.99,1.8,1.921,1.921,0,0,1-2.018-1.8,1.945,1.945,0,0,1,2.018-1.852" transform="translate(-8964.732 2585.801)" fill="#bab3ab"/>
      <path id="Path_16482" data-name="Path 16482" d="M67.035,894.549a9,9,0,0,1,4.728,1.216v3.65a4.6,4.6,0,0,0-3.925-1.824c-3.761,0-6.083,3.7-6.083,7.547,0,3.622,2.433,7.575,6.083,7.575a4.681,4.681,0,0,0,3.925-1.632v3.594a8.1,8.1,0,0,1-4.755,1.244c-5.973,0-9.123-5.472-9.123-10.753,0-5.2,3.151-10.616,9.15-10.616" transform="translate(-8964.344 2585.779)" fill="#bab3ab"/>
      <path id="Path_16483" data-name="Path 16483" d="M77.183,899.794a13.984,13.984,0,0,1,2.073.166v2.958a3.816,3.816,0,0,0-3.7-.223v9.1a3.5,3.5,0,0,1-3.484,3.483h-.192V900.982a11.162,11.162,0,0,1,5.307-1.188" transform="translate(-8963.218 2586.2)" fill="#bab3ab"/>
      <path id="Path_16484" data-name="Path 16484" d="M88.329,905.6c-.11-3.068-2.017-3.4-3.041-3.4H85.15c-2.072.054-3.04,1.52-3.04,4.257Zm3.207,2.1-9.206,1.272c.306,2.516,1.576,3.843,3.9,3.843a7.493,7.493,0,0,0,4.811-1.493v3.068a11.2,11.2,0,0,1-5.17,1.105c-4.507,0-7.188-3.039-7.188-7.907,0-4.726,2.488-7.8,6.58-7.8,4.035,0,6.275,2.683,6.275,7.326Z" transform="translate(-8962.671 2586.2)" fill="#bab3ab"/>
      <path id="Path_16485" data-name="Path 16485" d="M100.154,903.179a4.592,4.592,0,0,0-1.272-.166c-3.041,0-3.677,2.93-3.677,5.364,0,3.4,1.133,5.087,3.428,5.087a11.959,11.959,0,0,0,1.52-.138Zm3.622-8.349v20.651a38.157,38.157,0,0,1-5,.414h-.249c-4.505-.055-6.966-2.654-6.966-7.325,0-4.727,2.569-7.768,6.552-7.768a8.72,8.72,0,0,1,2.017.22V898.34a3.492,3.492,0,0,1,3.484-3.51Z" transform="translate(-8961.635 2585.801)" fill="#bab3ab"/>
      <path id="Path_16486" data-name="Path 16486" d="M108.126,900.193v12a3.487,3.487,0,0,1-3.483,3.483h-.166V900.193ZM106.3,894.83a1.921,1.921,0,0,1,1.991,1.852,1.9,1.9,0,0,1-1.991,1.8,1.92,1.92,0,0,1-2.017-1.8,1.945,1.945,0,0,1,2.017-1.852" transform="translate(-8960.611 2585.801)" fill="#bab3ab"/>
      <path id="Path_16487" data-name="Path 16487" d="M114.216,894.83v5.363h2.377v2.958h-2.377v8.211c0,.994.332,1.3,1.41,1.3a3.016,3.016,0,0,0,.967-.193v3.068a5.239,5.239,0,0,1-1.852.359c-2.71,0-4.2-1.327-4.2-3.731v-9.013h-1.6v-2.958h1.6v-1.88A3.48,3.48,0,0,1,114,894.83Z" transform="translate(-8960.237 2585.801)" fill="#bab3ab"/>
      <path id="Path_16488" data-name="Path 16488" d="M127.6,905.532l-1.219.028v7.759h2.494c2.548,0,4.377-.97,4.377-3.657,0-2.883-1.607-4.24-5.652-4.129m5.071-5.458c0-2.3-1.33-3.381-3.907-3.381a7.726,7.726,0,0,0-2.382.333v6.6l1.219.028c3.8.109,5.071-1.053,5.071-3.575m-.194,4.378v.083c1.995.388,4.738,2.134,4.738,5.182,0,4.157-3.325,5.985-8.2,5.985-4.655,0-6.344-.083-6.344-.083V895.669a14.2,14.2,0,0,1,6.1-1.164c5.154,0,7.731,2.244,7.731,5.319a4.717,4.717,0,0,1-4.018,4.628" transform="translate(-8959.132 2585.775)" fill="#bab3ab"/>
      <path id="Path_16489" data-name="Path 16489" d="M145.219,907.214c-3.241.306-5.209.97-5.209,3.548,0,1.911,1.164,2.77,3.159,2.77a12.428,12.428,0,0,0,2.05-.138Zm0-1.717v-1.025c0-1.967-1.22-2.494-2.992-2.494a10,10,0,0,0-4.572,1.413v-2.465a11.982,11.982,0,0,1,5.182-1.164c3.131,0,5.735,1.579,5.735,5.458v9.863a34.37,34.37,0,0,1-4.849.416h-.776c-4.1,0-6.234-1.718-6.234-4.628,0-3.99,3.879-4.931,8.506-5.375" transform="translate(-8958.003 2586.198)" fill="#bab3ab"/>
      <path id="Path_16490" data-name="Path 16490" d="M155.1,899.761c5.182,0,6.013,2.91,6.013,4.656v10.861h-.166a3.584,3.584,0,0,1-3.546-3.519v-7.287c0-1.025-.416-2.245-2.44-2.245a5.591,5.591,0,0,0-2.106.333v12.718h-3.712V900.9a17.02,17.02,0,0,1,5.958-1.136" transform="translate(-8957.003 2586.198)" fill="#bab3ab"/>
      <path id="Path_16491" data-name="Path 16491" d="M165.385,912.075a3.568,3.568,0,0,1-3.63,3.6h-.027V898.388a3.566,3.566,0,0,1,3.629-3.6h.028v12.58l4.6-6.815h3.463l-4.739,6.927,5.542,8.2h-3.878L165.385,908Z" transform="translate(-8955.99 2585.798)" fill="#bab3ab"/>
    </g>
    <rect id="Rectangle_2319" data-name="Rectangle 2319" width="195" height="195" transform="translate(-8967 3381)" fill="none"/>
  </g>
</svg>
