<svg xmlns="http://www.w3.org/2000/svg" width="195" height="195" viewBox="0 0 195 195">
  <g data-name="Group 7014">
    <path fill="#bab3ab" d="M149.095 112.836v.705c.448.015.673-.123.673-.416 0-.261-.166-.392-.495-.392-.131-.008-.2.025-.178.1Zm1.312 1.638v.056h-.474l-.672-.888-.168.011v.562c-.024.178.062.264.255.258v.056h-.8v-.056c.194.014.275-.085.247-.291v-1.244c.024-.178-.061-.266-.247-.261v-.043h.8c.478 0 .726.171.732.493 0 .271-.173.431-.514.478l.582.729a.331.331 0 0 0 .258.136Zm.377-.724a1.385 1.385 0 1 1 0-.35 1.281 1.281 0 0 1 0 .35m.4-.344a1.8 1.8 0 1 0 0 .383 1.8 1.8 0 0 0 0-.383m-3.543-16.346h-6.19a3.664 3.664 0 0 0-3.842-2.966c-2.955 0-3.624 1.129-3.6 1.974.015.654.517 1.487 1.876 2.109 2.612 1.2 7.065 1.631 9.865 3.636 3.625 2.595 3.159 8.116.077 10.839q-2.764 2.445-8.621 2.52-9.406-.408-10.568-8.112h6.512c.638 3.473 4.844 3.866 7.468 2.47 1.321-.7 1.857-1.85.638-2.959a18.909 18.909 0 0 0-4.823-1.854c-4.227-1.062-6.988-2.4-8.289-4.418a7.231 7.231 0 0 1 1.664-8.837 12.367 12.367 0 0 1 7.65-2.248q9.018.137 10.182 7.841Zm-39.63-7.345 8.716 13.5v-13.5h6.331v24.876h-6.331l-8.716-13.54v13.54h-6.907V89.716Zm-27.894 24.876h-7.47l9.626-24.874h6.094l9.624 24.874h-7.593l-1.275-3.284H81.38l-1.276 3.28Zm8.035-8.541-2.8-8.911-2.869 8.911ZM71.433 79.001h78.24v6.59H77.159l-11.219 29h-7.6L45 79h8.259l8.912 23.944L71.433 79Z" data-name="Path 16454"/>
  </g>
  <path fill="none" d="M0 0h195v195H0z" data-name="Rectangle 2299"/>
</svg>
