<svg xmlns="http://www.w3.org/2000/svg" width="195" height="195" viewBox="0 0 195 195">
  <g fill="#bab3ab" data-name="Group 7012">
    <path d="M57.93 90.804h-9.309a4.021 4.021 0 0 0-4.148 3.88v21.067h-6.242V85.269h19.7ZM21.631 79.218h16.6v6.053h-16.6Zm-8.63 45.486h53.7v-53.7h-53.7Z" data-name="Path 16344"/>
    <path d="M78.951 112.905h-2.04a.721.721 0 0 0-.762.678v4.829a.718.718 0 0 0 .675.765h2.127a.721.721 0 0 0 .765-.678v-4.829a.725.725 0 0 0-.678-.765Z" data-name="Path 16345"/>
    <path d="M79.462 82.612v-1.046a.656.656 0 0 0-.623-.689h-2.691v2.5H78.7a.718.718 0 0 0 .766-.673Z" data-name="Path 16346"/>
    <path d="M140.59 112.905h-2.04a.724.724 0 0 0-.765.681v4.826a.718.718 0 0 0 .678.765h2.127a.721.721 0 0 0 .765-.678v-4.829a.725.725 0 0 0-.678-.765Z" data-name="Path 16347"/>
    <path d="M117.273 95.77a.723.723 0 0 0-.681-.765h-2.5v2.829h2.421a.721.721 0 0 0 .765-.675V95.77Z" data-name="Path 16348"/>
    <path d="M87.879 79.168v-1.3a.721.721 0 0 0-.678-.765h-2.508v2.829h2.421a.723.723 0 0 0 .765-.678Z" data-name="Path 16349"/>
    <path d="M102.918 83.381h2.04a.722.722 0 0 0 .765-.678V77.87a.718.718 0 0 0-.678-.765h-2.127a.72.72 0 0 0-.766.676v4.829a.722.722 0 0 0 .678.765Z" data-name="Path 16350"/>
    <path d="M173.376 116.717v3.786h-1.529v-3.786l-2.9-5.138h1.76l1.975 3.66h.051l2.08-3.66h1.592Zm-5.57-2.422h-1.529v-.626a.724.724 0 0 0-.681-.765h-1.87a.724.724 0 0 0-.765.678v4.829a.727.727 0 0 0 .676.768h1.876a.726.726 0 0 0 .765-.679v-1.183h-1.787v-1.326h3.316v2.345a2.064 2.064 0 0 1-1.953 2.167h-2.253a2.06 2.06 0 0 1-2.167-1.953v-4.8a2.062 2.062 0 0 1 1.951-2.167h2.254a2.064 2.064 0 0 1 2.167 1.954v.761Zm-8.8 4.043a2.066 2.066 0 0 1-1.953 2.168h-2.51a2.064 2.064 0 0 1-2.168-1.954v-4.8a2.063 2.063 0 0 1 1.954-2.167h2.51a2.063 2.063 0 0 1 2.167 1.953v4.8Zm-8.48 2.168H145.3v-8.923h1.529v7.6h3.7Zm-6.015-17.9h-1.532v-3.789l-2.892-5.14h1.757l1.978 3.66h.048l2.081-3.66h1.593l-3.026 5.14Zm-1.632 15.732a2.064 2.064 0 0 1-1.953 2.168h-2.51a2.064 2.064 0 0 1-2.168-1.954v-4.8a2.065 2.065 0 0 1 1.954-2.167h2.51a2.06 2.06 0 0 1 2.167 1.951v4.8Zm-10.182-23.331v-1.332h6.629v1.324h-2.551v7.6h-1.529v-7.6Zm1.133 25.5h-1.527l-3.518-6.107h-.051v6.107h-1.527v-8.924h1.527l3.521 6.1h.048v-6.1h1.529Zm-8.777-17.9h-2.04a2.062 2.062 0 0 1-2.165-1.953v-.762h1.529v.625a.721.721 0 0 0 .675.767h1.873a.721.721 0 0 0 .765-.678v-1.059a.724.724 0 0 0-.681-.765h-1.868a2.061 2.061 0 0 1-2.167-1.951v-.981a2.062 2.062 0 0 1 1.951-2.167h2.066a2.064 2.064 0 0 1 2.167 1.953v.762h-1.538v-.624a.72.72 0 0 0-.678-.765h-1.678a.723.723 0 0 0-.768.678v1a.727.727 0 0 0 .679.768h1.872a2.06 2.06 0 0 1 2.167 1.951v1.032a2.064 2.064 0 0 1-1.953 2.167h-.214m-.262 17.9h-1.529v-3.823h-3.565v3.827h-1.53v-8.926h1.53v3.772h3.569v-3.772h1.529Zm-9.2-21.345h-1.494v3.445h-1.53v-8.93h4.078a2.064 2.064 0 0 1 2.167 1.953v1.359a2.044 2.044 0 0 1-1.581 2.105l1.837 3.508h-1.684Zm.408 15.137h-1.529v-.626a.724.724 0 0 0-.681-.765h-1.87a.723.723 0 0 0-.765.68v4.831a.723.723 0 0 0 .679.765h1.864a.722.722 0 0 0 .765-.678v-.711h1.535v.549a2.064 2.064 0 0 1-1.953 2.167h-2.254a2.066 2.066 0 0 1-2.167-1.957v-4.8a2.06 2.06 0 0 1 1.953-2.165h2.254a2.062 2.062 0 0 1 2.167 1.95v.765Zm-8.417 6.207h-5.611v-8.921h5.481v1.324h-3.955v2.448h3.7v1.325h-3.7v2.5h4.08Zm-8.783-17.9-2.884-8.925h1.594l2.116 6.81h.051l2.127-6.81h1.456l-2.884 8.925Zm1.516 10.3h-2.551v7.6h-1.529v-7.602h-2.548v-1.319h6.628Zm-7.585-19.23h1.529v8.923h-1.532Zm-1.146-17.9h1.527l3.518 6.107h.051v-6.1h1.533v8.922h-1.536l-3.518-6.1h-.051v6.1h-1.527Zm-1.276 26.825h-1.529l-3.521-6.108h-.05v6.108h-1.53v-8.924h1.53l3.518 6.107h.054v-6.107h1.529Zm-1.4 10.3h-3.7v2.448h3.445v1.325h-3.445v3.823h-1.53v-8.92h5.229Zm-5.737-37.126h4.078a2.064 2.064 0 0 1 2.167 1.953v1.359a2.046 2.046 0 0 1-1.581 2.105l1.834 3.5h-1.684l-1.8-3.443h-1.488v3.443h-1.529Zm-1.913 24.658a2.062 2.062 0 0 1-1.961 2.172H76.78a2.06 2.06 0 0 1-2.165-1.953v-6.975h1.527v6.834a.726.726 0 0 0 .679.765h2.129a.723.723 0 0 0 .761-.678v-6.921h1.53Zm0 17.9a2.064 2.064 0 0 1-1.961 2.172H76.78a2.06 2.06 0 0 1-2.165-1.953v-4.8a2.064 2.064 0 0 1 1.954-2.167h2.508a2.064 2.064 0 0 1 2.167 1.954v4.8Zm-6.629-42.555h4.016a2.064 2.064 0 0 1 2.167 1.953v.707a1.845 1.845 0 0 1-.943 1.7v.049a1.837 1.837 0 0 1 1.132 1.786v.561a2.06 2.06 0 0 1-1.951 2.167h-4.423Zm26.007 2.167a2.061 2.061 0 0 1 1.951-2.167h2.51a2.064 2.064 0 0 1 2.168 1.953v4.8a2.063 2.063 0 0 1-1.954 2.167h-2.514a2.061 2.061 0 0 1-2.167-1.951v-4.8Zm9.51 19.5v1.327h-3.7v2.5h4.077v1.327h-5.607v-8.922h5.481v1.327h-3.953v2.448Zm19.378-3.773h1.529v8.923h-1.529Zm22.773 13.13V88.9h-39.12V71h-44.29v53.7h112.266v-17.9Z" data-name="Path 16351"/>
    <path d="M79.271 78.864v-.989a.726.726 0 0 0-.678-.768h-2.446v2.452h2.435a.662.662 0 0 0 .689-.633v-.056" data-name="Path 16352"/>
    <path d="M156.717 112.905h-2.04a.724.724 0 0 0-.765.681v4.826a.721.721 0 0 0 .678.765h2.127a.719.719 0 0 0 .765-.675v-4.832a.722.722 0 0 0-.678-.765Z" data-name="Path 16353"/>
  </g>
  <path fill="none" d="M0 0h195v195H0z" data-name="Rectangle 2296"/>
</svg>
