<svg xmlns="http://www.w3.org/2000/svg" width="195" height="195" viewBox="0 0 195 195">
  <g id="vut" transform="translate(8688 -2408)">
    <g id="Group_7012" data-name="Group 7012" transform="translate(-6.257 -5.266)">
      <path id="Path_16344" data-name="Path 16344" d="M307.629,42.786H298.32a4.021,4.021,0,0,0-4.148,3.88V67.733H287.93V37.251h19.7ZM271.33,31.2h16.6v6.053h-16.6ZM262.7,76.686h53.7v-53.7H262.7Z" transform="translate(-8931.442 2461.284)" fill="#bab3ab"/>
      <path id="Path_16345" data-name="Path 16345" d="M320.752,59.646h-2.04a.721.721,0,0,0-.762.678v4.829a.718.718,0,0,0,.675.765h2.127a.721.721,0,0,0,.765-.678V60.411a.725.725,0,0,0-.678-.765Z" transform="translate(-8923.544 2466.525)" fill="#bab3ab"/>
      <path id="Path_16346" data-name="Path 16346" d="M321.262,33.359V32.313a.656.656,0,0,0-.623-.689h-2.691v2.5H320.5a.718.718,0,0,0,.766-.673Z" transform="translate(-8923.543 2462.519)" fill="#bab3ab"/>
      <path id="Path_16347" data-name="Path 16347" d="M374.681,59.646h-2.04a.724.724,0,0,0-.765.681v4.826a.718.718,0,0,0,.678.765h2.127a.721.721,0,0,0,.765-.678V60.411a.725.725,0,0,0-.678-.765Z" transform="translate(-8915.834 2466.525)" fill="#bab3ab"/>
      <path id="Path_16348" data-name="Path 16348" d="M354.328,44.75a.723.723,0,0,0-.681-.765h-2.5v2.829h2.421a.721.721,0,0,0,.765-.675V44.75Z" transform="translate(-8918.798 2464.286)" fill="#bab3ab"/>
      <path id="Path_16349" data-name="Path 16349" d="M328.611,30.387v-1.3a.721.721,0,0,0-.678-.765h-2.508v2.829h2.421a.723.723,0,0,0,.765-.678Z" transform="translate(-8922.475 2462.047)" fill="#bab3ab"/>
      <path id="Path_16350" data-name="Path 16350" d="M341.466,34.6h2.04a.722.722,0,0,0,.765-.678V29.089a.718.718,0,0,0-.678-.765h-2.127A.72.72,0,0,0,340.7,29v4.829a.722.722,0,0,0,.678.765Z" transform="translate(-8920.291 2462.047)" fill="#bab3ab"/>
      <path id="Path_16351" data-name="Path 16351" d="M416.085,68.7v3.786h-1.529V68.7l-2.9-5.138h1.76l1.975,3.66h.051l2.08-3.66h1.592Zm-5.57-2.422h-1.529v-.626a.724.724,0,0,0-.681-.765h-1.87a.724.724,0,0,0-.765.678v4.829a.727.727,0,0,0,.676.768h1.876a.726.726,0,0,0,.765-.679V69.3H407.2V67.974h3.316v2.345a2.064,2.064,0,0,1-1.953,2.167H406.31a2.06,2.06,0,0,1-2.167-1.953v-4.8a2.062,2.062,0,0,1,1.951-2.167h2.254a2.064,2.064,0,0,1,2.167,1.954v.761Zm-8.8,4.043a2.066,2.066,0,0,1-1.953,2.168h-2.51a2.064,2.064,0,0,1-2.168-1.954v-4.8a2.063,2.063,0,0,1,1.954-2.167h2.51a2.063,2.063,0,0,1,2.167,1.953v4.8Zm-8.48,2.168h-5.226V63.566h1.529v7.6h3.7Zm-6.015-17.9h-1.532V50.8l-2.892-5.14h1.757l1.978,3.66h.048l2.081-3.66h1.593L387.227,50.8Zm-1.632,15.732a2.064,2.064,0,0,1-1.953,2.168h-2.51a2.064,2.064,0,0,1-2.168-1.954v-4.8a2.065,2.065,0,0,1,1.954-2.167h2.51a2.06,2.06,0,0,1,2.167,1.951v4.8ZM375.406,46.99V45.658h6.629v1.324h-2.551v7.6h-1.529v-7.6Zm1.133,25.5h-1.527l-3.518-6.107h-.051v6.107h-1.527V63.566h1.527l3.521,6.1h.048v-6.1h1.529Zm-8.777-17.9h-2.04a2.062,2.062,0,0,1-2.165-1.953v-.762h1.529V52.5a.721.721,0,0,0,.675.767h1.873a.721.721,0,0,0,.765-.678V51.53a.724.724,0,0,0-.681-.765h-1.868a2.061,2.061,0,0,1-2.167-1.951v-.981a2.062,2.062,0,0,1,1.951-2.167H367.7a2.064,2.064,0,0,1,2.167,1.953v.762h-1.538v-.624a.72.72,0,0,0-.678-.765h-1.678a.723.723,0,0,0-.768.678v1a.727.727,0,0,0,.679.768h1.872a2.06,2.06,0,0,1,2.167,1.951v1.032a2.064,2.064,0,0,1-1.953,2.167h-.214m-.262,17.9h-1.529V68.665H362.4v3.827h-1.53V63.566h1.53v3.772h3.569V63.566h1.529Zm-9.2-21.345H356.8v3.445H355.27V45.658h4.078a2.064,2.064,0,0,1,2.167,1.953v1.359a2.044,2.044,0,0,1-1.581,2.105l1.837,3.508h-1.684Zm.408,15.137h-1.529v-.626a.724.724,0,0,0-.681-.765h-1.87a.723.723,0,0,0-.765.68V70.4a.723.723,0,0,0,.679.765H356.4a.722.722,0,0,0,.765-.678v-.711H358.7v.549a2.064,2.064,0,0,1-1.953,2.167h-2.254a2.066,2.066,0,0,1-2.167-1.957v-4.8a2.06,2.06,0,0,1,1.953-2.165h2.254A2.062,2.062,0,0,1,358.7,65.52v.765Zm-8.417,6.207h-5.611V63.566h5.481V64.89H346.2v2.448h3.7v1.325h-3.7v2.5h4.08Zm-8.783-17.9-2.884-8.925h1.594l2.116,6.81h.051l2.127-6.81h1.456l-2.884,8.925Zm1.516,10.3h-2.551v7.6h-1.529V64.885h-2.548V63.566h6.628Zm-7.585-19.23h1.529v8.923H335.43Zm-1.146-17.9h1.527l3.518,6.107h.051V27.764h1.533v8.922H339.38l-3.518-6.1h-.051v6.1h-1.527Zm-1.276,26.825h-1.529l-3.521-6.108h-.05v6.108h-1.53V45.658h1.53l3.518,6.107h.054V45.658h1.529Zm-1.4,10.3h-3.7v2.448h3.445v1.325h-3.445v3.823h-1.53v-8.92h5.229Zm-5.737-37.126h4.078a2.064,2.064,0,0,1,2.167,1.953v1.359a2.046,2.046,0,0,1-1.581,2.105l1.834,3.5h-1.684l-1.8-3.443H327.4v3.443h-1.529Zm-1.913,24.658A2.062,2.062,0,0,1,322,54.586h-2.511a2.06,2.06,0,0,1-2.165-1.953V45.658h1.527v6.834a.726.726,0,0,0,.679.765h2.129a.723.723,0,0,0,.761-.678V45.658h1.53Zm0,17.9A2.064,2.064,0,0,1,322,72.486h-2.511a2.06,2.06,0,0,1-2.165-1.953v-4.8a2.064,2.064,0,0,1,1.954-2.167h2.508a2.064,2.064,0,0,1,2.167,1.954v4.8Zm-6.629-42.555h4.016a2.064,2.064,0,0,1,2.167,1.953v.707a1.845,1.845,0,0,1-.943,1.7v.049a1.837,1.837,0,0,1,1.132,1.786v.561a2.06,2.06,0,0,1-1.951,2.167h-4.423Zm26.007,2.167a2.061,2.061,0,0,1,1.951-2.167h2.51a2.064,2.064,0,0,1,2.168,1.953v4.8a2.063,2.063,0,0,1-1.954,2.167H345.5a2.061,2.061,0,0,1-2.167-1.951v-4.8Zm9.51,19.5v1.327h-3.7v2.5h4.077v1.327h-5.607V45.658H353.1v1.327h-3.953v2.448Zm19.378-3.773h1.529v8.923h-1.529ZM395,58.783v-17.9h-39.12v-17.9H311.59v53.7H423.856v-17.9Z" transform="translate(-8924.452 2461.283)" fill="#bab3ab"/>
      <path id="Path_16352" data-name="Path 16352" d="M321.072,30.083v-.989a.726.726,0,0,0-.678-.768h-2.446v2.452h2.435a.662.662,0,0,0,.689-.633v-.056" transform="translate(-8923.544 2462.047)" fill="#bab3ab"/>
      <path id="Path_16353" data-name="Path 16353" d="M388.79,59.646h-2.04a.724.724,0,0,0-.765.681v4.826a.721.721,0,0,0,.678.765h2.127a.719.719,0,0,0,.765-.675V60.411a.722.722,0,0,0-.678-.765Z" transform="translate(-8913.816 2466.525)" fill="#bab3ab"/>
    </g>
    <rect id="Rectangle_2296" data-name="Rectangle 2296" width="195" height="195" transform="translate(-8688 2408)" fill="none"/>
  </g>
</svg>
